<svg xmlns="http://www.w3.org/2000/svg" xmlns:xlink="http://www.w3.org/1999/xlink" width="489.495" height="409.788" viewBox="0 0 489.495 409.788">
  <defs>
    <radialGradient id="radial-gradient" cx="0.5" cy="0.5" r="0.5" gradientUnits="objectBoundingBox">
      <stop offset="0" stop-color="#cee5ed"/>
      <stop offset="1" stop-color="#aed3df"/>
    </radialGradient>
  </defs>
  <g id="Group_14230" data-name="Group 14230" transform="translate(-106.828 -246.149)">
    <g id="Group_34" data-name="Group 34" transform="translate(149.287 246.149)">
      <ellipse id="Ellipse_6" data-name="Ellipse 6" cx="36.955" cy="36.955" rx="36.955" ry="36.955" transform="matrix(0.976, -0.218, 0.218, 0.976, 0, 16.119)" fill="#3e8ccc"/>
      <ellipse id="Ellipse_7" data-name="Ellipse 7" cx="33.149" cy="33.149" rx="33.149" ry="33.149" transform="translate(10.976 10.976)" fill="#cee5ed"/>
      <path id="Path_94" data-name="Path 94" d="M556.415,139.822" transform="translate(-512.289 -119.633)" fill="none" stroke="#3e8ccc" stroke-miterlimit="10" stroke-width="1"/>
      <g id="Group_33" data-name="Group 33" transform="translate(32.648 18.493)">
        <g id="Group_32" data-name="Group 32">
          <path id="Path_95" data-name="Path 95" d="M552.912,175.941a2.062,2.062,0,0,1-1.458-3.52l8.641-8.643V141.062a2.062,2.062,0,0,1,4.125,0v23.569a2.065,2.065,0,0,1-.6,1.458l-9.245,9.248A2.055,2.055,0,0,1,552.912,175.941Z" transform="translate(-550.85 -139)" fill="#3e8ccc"/>
        </g>
        <path id="Path_96" data-name="Path 96" d="M563.4,153.584a4.749,4.749,0,1,0-4.75,4.748A4.749,4.749,0,0,0,563.4,153.584Z" transform="translate(-547.605 -128.553)" fill="#1e394c"/>
      </g>
    </g>
    <ellipse id="Ellipse_5" data-name="Ellipse 5" cx="237.968" cy="10.212" rx="237.968" ry="10.212" transform="translate(106.828 635.513)" opacity="0.66" fill="url(#radial-gradient)"/>
    <g id="Group_31" data-name="Group 31" transform="translate(230.791 370.347)">
      <rect id="Rectangle_9" data-name="Rectangle 9" width="11.324" height="108.295" transform="translate(46.591 157.354)" fill="#aac6ce"/>
      <rect id="Rectangle_10" data-name="Rectangle 10" width="11.324" height="15.224" transform="translate(46.591 157.354)" fill="#85b0ba"/>
      <path id="Rectangle_11" data-name="Rectangle 11" d="M2.348,0h103.37a2.348,2.348,0,0,1,2.348,2.348v7.59a0,0,0,0,1,0,0H0a0,0,0,0,1,0,0V2.348A2.348,2.348,0,0,1,2.348,0Z" transform="translate(0 265.687)" fill="#aac6ce"/>
      <path id="Path_93" data-name="Path 93" d="M588.22,348.819H666.7c-28.555-10.255-17.509-106.864-12.231-143.484a12.241,12.241,0,0,0-12.124-13.98H590.073a21.416,21.416,0,0,0-21.226,18.482c-4.585,33.275-11.814,102.27,2.5,128.981A19.11,19.11,0,0,0,588.22,348.819Z" transform="translate(-562.815 -191.355)" fill="#aac6ce"/>
    </g>
    <g id="Group_44" data-name="Group 44" transform="translate(239.259 312.54)">
      <g id="Group_42" data-name="Group 42" transform="translate(0.842 161.566)">
        <g id="Group_40" data-name="Group 40" transform="translate(45.271 11.922)">
          <path id="Path_103" data-name="Path 103" d="M607.055,281.925l-1.108,7.657,5.826,7.456,14.777-7.234,1.6-7-18.394-2.781Z" transform="translate(-540.161 -147.941)" fill="#f2bf75"/>
          <path id="Path_104" data-name="Path 104" d="M620.292,300.429l1.526-1.889a.713.713,0,0,1,1.1-.017l1.531,1.8a3.205,3.205,0,0,0,2.487,1.123l34.334-.587a1.839,1.839,0,0,0,.059-2.593c-5.03-5.08-32.115-13.86-33.462-14.6s-9.632,5.695-20.605-.221a116.375,116.375,0,0,0-2.034,14.164,3.919,3.919,0,0,0,3.965,4.138l8.713-.148A3.147,3.147,0,0,0,620.292,300.429Z" transform="translate(-541.47 -141.801)" fill="#1e394c"/>
          <path id="Path_105" data-name="Path 105" d="M586.29,237.338s-14.257,15.76,11.848,32.887c18.314,12.016,32.747,8.344,44.243,15.626,2.7,1.71,4.745,4.25,4.935,7.436l.584,73.676,1.389.69a25.314,25.314,0,0,0,22.017.24h0L681.7,283.83c.372-5.8-2.758-10.68-6.346-15.246-19.963-25.392-55.306-34-64.253-35.463C599.471,231.215,586.29,237.338,586.29,237.338Z" transform="translate(-582.404 -232.753)" fill="#1e394c"/>
        </g>
        <g id="Group_41" data-name="Group 41">
          <path id="Path_106" data-name="Path 106" d="M586.806,281.9l-1.213,7.641,5.724,7.534,14.875-7.031,1.7-6.98-18.355-3.032Z" transform="translate(-531.413 -136.001)" fill="#f2bf75"/>
          <path id="Path_107" data-name="Path 107" d="M599.831,300.6l1.551-1.867a.71.71,0,0,1,1.1,0l1.506,1.816a3.206,3.206,0,0,0,2.473,1.157l34.339-.115a1.847,1.847,0,0,0,.092-2.6c-4.96-5.147-31.923-14.3-33.258-15.056s-9.71,5.564-20.6-.5a116.08,116.08,0,0,0-2.23,14.137,3.92,3.92,0,0,0,3.909,4.191l8.713-.031A3.135,3.135,0,0,0,599.831,300.6Z" transform="translate(-532.849 -129.895)" fill="#1e394c"/>
          <path id="Path_108" data-name="Path 108" d="M572.022,231.253s-17.274,19.253,7.7,41c17.523,15.254,33.247,8.732,44.282,18.035,2.587,2.182,4.376,5.147,4.119,8.523l-7.888,74.941.6.388a23.748,23.748,0,0,0,23.031,1.57h0l19.53-78.971c1.224-6.036-1.366-11.622-4.482-16.934-17.333-29.55-44.547-47.163-53.738-49.991C593.226,226.143,572.022,231.253,572.022,231.253Z" transform="translate(-566.203 -228.487)" fill="#1e394c"/>
        </g>
        <path id="Path_109" data-name="Path 109" d="M626.846,283.459a34.263,34.263,0,0,0-4.024-1.4,34.37,34.37,0,0,0-4.387-10.2,135.257,135.257,0,0,0-29.676-34.789c6.259-1.062,9.445-2.4,11.177-4.164A117.656,117.656,0,0,1,618.687,238C627.182,252.191,627.154,275.244,626.846,283.459Z" transform="translate(-525.73 -220.551)" fill="#0f2a3f"/>
      </g>
      <path id="Path_110" data-name="Path 110" d="M618.867,193.154s-24.914-3.322-35.267,16.09-25.814,95.513-12.3,97.827c5.985,1.026,21.947,5.041,39.635,3.747,24.319-1.78,29.606-4.018,31.358-8.643l15.492-70.917a29.986,29.986,0,0,0-11.761-25.037C633.615,196.811,618.867,193.154,618.867,193.154Z" transform="translate(-565.697 -130.708)" fill="#cee5ed"/>
      <path id="Path_111" data-name="Path 111" d="M607.654,204.42s.324,42.709,13.751,45.3,49.18,1.78,49.18,1.78v13.589H593.9Z" transform="translate(-515.66 -110.105)" fill="#aac6ce"/>
      <path id="Path_112" data-name="Path 112" d="M605.23,216.768l3.021-15.1L588.66,186.74l-3.753,17.808S591.085,231.737,605.23,216.768Z" transform="translate(-531.802 -141.829)" fill="#ea9249"/>
      <path id="Path_113" data-name="Path 113" d="M635.174,201.713s-10.25,4.988-25.266-4.164c0,0-3.485,6.262-13.547,11.854,0,0-5.228-8.766-8.241-2.2a13.894,13.894,0,0,0-1.383,5.36c-9.425-12.172-2.78-28.212,6.011-36.857,8.327-8.207,26.353-4.943,37.614-.416,11.954,4.812,14.151-3.56,14.151-3.56C659.618,193.012,635.174,201.713,635.174,201.713Z" transform="translate(-536.752 -170.668)" fill="#1e394c"/>
      <path id="Path_114" data-name="Path 114" d="M593.419,192.142s-5.231-8.766-8.24-2.2c-3.649,7.969.47,12.966,5.413,12.966,0,0,3.926,20.726,22.969,19.261s21.787-32.043,18.675-37.718c0,0-10.252,4.988-25.266-4.166C606.969,180.286,603.49,186.557,593.419,192.142Z" transform="translate(-533.814 -153.41)" fill="#f2bf75"/>
      <g id="Group_43" data-name="Group 43" transform="translate(87.232 87.206)">
        <path id="Path_115" data-name="Path 115" d="M709.319,201.876H629.835a8.247,8.247,0,0,0-8.078,6.6l-10.579,51.866h96.309l9.911-48.571A8.245,8.245,0,0,0,709.319,201.876Z" transform="translate(-571.897 -201.876)" fill="#cee5ed"/>
        <rect id="Rectangle_12" data-name="Rectangle 12" width="139.207" height="9.117" rx="1.404" transform="translate(0 58.468)" fill="#80a9b2"/>
        <path id="Path_116" data-name="Path 116" d="M707.86,222.8H610.8a3.921,3.921,0,0,1,3.923,3.923v1.269a3.921,3.921,0,0,1-3.923,3.923H707.86a3.923,3.923,0,0,0,3.923-3.923v-1.269A3.923,3.923,0,0,0,707.86,222.8Z" transform="translate(-572.575 -164.331)" fill="#aac6ce"/>
      </g>
      <path id="Path_117" data-name="Path 117" d="M661.294,268.3c-15.475-1.8-58.888-6.231-66.326-7-9.384-.972,11-38.827,13.265-51.768s-7.6-13.43-7.6-13.43c-5.569-.7-11.647,0-16.825,7.841-10.6,16.048-22.4,62.956-16.176,74.536a4.187,4.187,0,0,0,3.7,2.193h89.966Z" transform="translate(-565.902 -125.406)" fill="#cee5ed"/>
      <path id="Path_118" data-name="Path 118" d="M646.3,268.295s-55.892-3.845-67.944-5.463c-9.35-1.255,10.138-40.04,12.4-52.981s-7.766-12.4-7.766-12.4a24.019,24.019,0,0,0-8.726.819c3.741-2.459,7.662-2.627,11.376-2.174,0,0,9.861.492,7.6,13.435S573.5,259.515,579.4,260.971C586.665,262.762,630.818,266.5,646.3,268.295Z" transform="translate(-550.904 -125.404)" fill="#aac6ce"/>
      <path id="Path_119" data-name="Path 119" d="M600.04,233.49h20.849a1.968,1.968,0,0,0,1.654-3.043c-1.953-3-5.035-7.24-7.3-7.958-1.347-.428-11.485-.05-15.207.344Z" transform="translate(-504.648 -78.024)" fill="#f2bf75"/>
      <path id="Path_120" data-name="Path 120" d="M618.723,181.777a16.6,16.6,0,0,1-4.72,1.176c-.254,1.411-.71,4.124-.953,6.7-.349,3.666,1.484,15.02.349,15.106a33.365,33.365,0,0,1-3.493-.087s-1.746,16.417-18.163,13.8c-.156-.025-.28-.042-.428-.064a20.727,20.727,0,0,0,8.732,1.1C619.089,218.031,621.836,187.452,618.723,181.777Z" transform="translate(-520.302 -150.734)" fill="#ea9249" opacity="0.67"/>
    </g>
    <g id="Group_68" data-name="Group 68" transform="translate(158.444 467.844)">
      <g id="Group_50" data-name="Group 50" transform="translate(10.815 0)">
        <rect id="Rectangle_13" data-name="Rectangle 13" width="356.395" height="16.178" rx="2.491" transform="translate(0 0)" fill="#3e8ccc"/>
        <path id="Path_129" data-name="Path 129" d="M890.286,226.246H547.813a6.96,6.96,0,0,0-6.961,6.961v2.255a6.949,6.949,0,0,0,.357,2.11,6.939,6.939,0,0,1,6.6-4.854H890.286a6.936,6.936,0,0,1,6.6,4.854,6.945,6.945,0,0,0,.36-2.11v-2.255A6.961,6.961,0,0,0,890.286,226.246Z" transform="translate(-540.851 -226.246)" fill="#2173aa"/>
      </g>
      <g id="Group_67" data-name="Group 67" transform="translate(0 16.259)">
        <g id="Group_52" data-name="Group 52" transform="translate(34.943)">
          <g id="Group_51" data-name="Group 51">
            <path id="Path_130" data-name="Path 130" d="M640.565,393.354H629.118l-79.632-161.29h11.446Z" transform="translate(-549.486 -232.064)" fill="#34648c"/>
          </g>
        </g>
        <g id="Group_54" data-name="Group 54">
          <g id="Group_53" data-name="Group 53">
            <path id="Path_131" data-name="Path 131" d="M536.981,393.354h11.446l79.632-161.29H616.613Z" transform="translate(-536.981 -232.064)" fill="#34648c"/>
          </g>
        </g>
        <g id="Group_56" data-name="Group 56" transform="translate(281.489)">
          <g id="Group_55" data-name="Group 55">
            <path id="Path_132" data-name="Path 132" d="M728.795,393.354H717.349l-79.632-161.29h11.446Z" transform="translate(-637.717 -232.064)" fill="#34648c"/>
          </g>
        </g>
        <g id="Group_58" data-name="Group 58" transform="translate(246.546)">
          <g id="Group_57" data-name="Group 57">
            <path id="Path_133" data-name="Path 133" d="M625.212,393.354h11.446l79.632-161.29H704.844Z" transform="translate(-625.212 -232.064)" fill="#34648c"/>
          </g>
        </g>
        <g id="Group_60" data-name="Group 60" transform="translate(34.943)">
          <g id="Group_59" data-name="Group 59">
            <path id="Path_134" data-name="Path 134" d="M564.088,238.455l-3.155-6.39H549.486l3.155,6.39Z" transform="translate(-549.486 -232.064)" fill="#1a3651"/>
          </g>
        </g>
        <g id="Group_62" data-name="Group 62" transform="translate(76.477)">
          <g id="Group_61" data-name="Group 61">
            <path id="Path_135" data-name="Path 135" d="M575.8,238.455l3.155-6.39H567.5l-3.155,6.39Z" transform="translate(-564.35 -232.064)" fill="#1a3651"/>
          </g>
        </g>
        <g id="Group_64" data-name="Group 64" transform="translate(281.489)">
          <g id="Group_63" data-name="Group 63">
            <path id="Path_136" data-name="Path 136" d="M652.318,238.455l-3.155-6.39H637.717l3.155,6.39Z" transform="translate(-637.717 -232.064)" fill="#1a3651"/>
          </g>
        </g>
        <g id="Group_66" data-name="Group 66" transform="translate(323.022)">
          <g id="Group_65" data-name="Group 65">
            <path id="Path_137" data-name="Path 137" d="M664.027,238.455l3.155-6.39H655.735l-3.155,6.39Z" transform="translate(-652.58 -232.064)" fill="#1a3651"/>
          </g>
        </g>
      </g>
    </g>
    <g id="Group_39" data-name="Group 39" transform="translate(183.931 409.917)">
      <g id="Group_37" data-name="Group 37" transform="translate(2.009)">
        <path id="Path_98" data-name="Path 98" d="M575.392,221.137c0-9.06-6.4-18.137-14.29-18.137s-14.29,9.077-14.29,18.137,6.4,16.4,14.29,16.4S575.392,230.2,575.392,221.137Z" transform="translate(-546.812 -203)" fill="#67b8ef"/>
        <path id="Path_99" data-name="Path 99" d="M554.824,203a10.565,10.565,0,0,0-3.668.69c6.111,2.255,10.622,9.847,10.622,17.447s-4.511,13.975-10.622,15.838a12.566,12.566,0,0,0,3.668.565c7.893,0,14.29-7.343,14.29-16.4S562.717,203,554.824,203Z" transform="translate(-540.534 -203)" fill="#34648c" opacity="0.25"/>
      </g>
      <g id="Group_38" data-name="Group 38" transform="translate(0 26.49)">
        <path id="Path_100" data-name="Path 100" d="M546,216.2l2.56,23.186a5.724,5.724,0,0,0,5.688,5.093h14.779a5.721,5.721,0,0,0,5.685-5.093l2.56-23.186a2.131,2.131,0,0,0-2.117-2.365H548.121A2.131,2.131,0,0,0,546,216.2Z" transform="translate(-545.99 -213.833)" fill="#cee5ed"/>
        <path id="Path_101" data-name="Path 101" d="M548.121,217.3h27.037a2.1,2.1,0,0,1,1.866,1.188l.252-2.289a2.131,2.131,0,0,0-2.117-2.365H548.121A2.131,2.131,0,0,0,546,216.2l.254,2.289A2.094,2.094,0,0,1,548.121,217.3Z" transform="translate(-545.99 -213.833)" fill="#aac6ce"/>
        <path id="Path_102" data-name="Path 102" d="M567.082,213.833h-9.373a2.131,2.131,0,0,1,2.118,2.365l-2.563,23.186a5.721,5.721,0,0,1-5.685,5.093h9.375a5.721,5.721,0,0,0,5.685-5.093L569.2,216.2A2.131,2.131,0,0,0,567.082,213.833Z" transform="translate(-537.914 -213.833)" fill="#aac6ce"/>
      </g>
    </g>
    <g id="Group_14210" data-name="Group 14210" transform="translate(457.567 362.01)">
      <rect id="Rectangle_2793" data-name="Rectangle 2793" width="50" height="21" rx="6" transform="translate(0.433 0.99)" fill="#cee5ed"/>
      <text id="_" data-name="****" transform="translate(8.433 18.99)" fill="gray" font-size="13" font-family="SofiaPro-Bold, Sofia Pro" font-weight="700" letter-spacing="0.25em"><tspan x="0" y="0">****</tspan></text>
    </g>
    <g id="Group_49" data-name="Group 49" transform="translate(509.649 523.22)">
      <g id="Group_45" data-name="Group 45" transform="translate(37.958 10.601)">
        <path id="Path_121" data-name="Path 121" d="M696.423,298.532s17.165-8.514,12.5-21.421-7.552-13.457,1.374-20.736,21.833-25.541,5.493-26.914-15.518,20.324-29.113,23.345S665.664,312.677,696.423,298.532Z" transform="translate(-674.904 -229.398)" fill="#67b8ef"/>
        <path id="Path_122" data-name="Path 122" d="M679.277,299.81c3.3,1.529,7.728,1.379,13.509-1.278,0,0,17.165-8.514,12.5-21.421s-7.552-13.457,1.374-20.736,21.833-25.541,5.493-26.914a15,15,0,0,0-4.356.233c4.6,1.91,9.173,5.7,3.26,12.714-9.845,11.677-15.111,15.8-13.967,23.354C698.2,273.128,697.568,289.855,679.277,299.81Z" transform="translate(-671.266 -229.397)" fill="#34648c" opacity="0.25"/>
      </g>
      <g id="Group_46" data-name="Group 46" transform="translate(0 28.645)">
        <path id="Path_123" data-name="Path 123" d="M684.547,289.927s-15.106-.549-14.282-11.4,1.244-11.272-8.241-14.692c-16.752-6.043-3.489-38.219,10.162-17.989,9.475,14.04,13.595,10.882,19.775,11.981S711.6,294.734,684.547,289.927Z" transform="translate(-654.18 -239.249)" fill="#67b8ef"/>
        <path id="Path_124" data-name="Path 124" d="M691.441,257.828c-6.18-1.1-10.3,2.059-19.775-11.981-7.145-10.591-14.175-6.814-16.86.049,4.02-1.231,10.127-1.969,10.887,4.572.987,8.488,20.843,22.423,20.438,39.749.264.028.518.046.775.066,2.889-7.62,6.7-17.5,9.966-25.922C695.124,260.732,693.04,258.112,691.441,257.828Z" transform="translate(-653.66 -239.248)" fill="#34648c" opacity="0.29"/>
      </g>
      <g id="Group_47" data-name="Group 47" transform="translate(20.182)">
        <path id="Path_125" data-name="Path 125" d="M678.883,302.454s-18.743-18.333-12.358-21.423,18.95,7,11.946-3.912-15.157-27.922-5.477-25.244,10.384,5.619,9.186-7.1c-1.549-16.447,7.62-24.923,16.271-19.568s-7.415,41.608-1.442,37.694,10.917-7.209,12.153-2.471-17.1,23.339-10.3,20.185c8.446-3.912,9.682,3.09,7,7.416S692.066,318.107,678.883,302.454Z" transform="translate(-665.199 -223.61)" fill="#34648c"/>
        <path id="Path_126" data-name="Path 126" d="M697.7,288.029c2.678-4.326,1.442-11.329-7-7.416-6.8,3.154,11.536-15.448,10.3-20.185s-6.178-1.442-12.153,2.471,10.094-32.338,1.441-37.694c-4.022-2.491-8.144-1.958-11.263.945,4.479,1.1,8.065,4.7,5.579,14.424-5.266,20.606-8.471,37.778,1.145,32.741,9.058-4.744-10.519,17.121-10.719,32.878C686.262,312.618,695.316,291.874,697.7,288.029Z" transform="translate(-657.029 -223.604)" fill="#1e394c" opacity="0.48"/>
      </g>
      <g id="Group_48" data-name="Group 48" transform="translate(20.869 77.644)">
        <path id="Path_127" data-name="Path 127" d="M665.592,269.348l3.628,32.845a8.1,8.1,0,0,0,8.054,7.213H698.21a8.1,8.1,0,0,0,8.054-7.213l3.629-32.845a3.018,3.018,0,0,0-3-3.348h-38.3A3.018,3.018,0,0,0,665.592,269.348Z" transform="translate(-665.574 -266)" fill="#cee5ed"/>
        <path id="Path_128" data-name="Path 128" d="M698.1,266h-13.28a3.018,3.018,0,0,1,3,3.348L684.2,302.194a8.1,8.1,0,0,1-8.054,7.213h13.28a8.1,8.1,0,0,0,8.054-7.213l3.629-32.845A3.018,3.018,0,0,0,698.1,266Z" transform="translate(-656.785 -266)" fill="#aac6ce"/>
      </g>
    </g>
    <path id="Polygon_6" data-name="Polygon 6" d="M4,0,8,8H0Z" transform="translate(471 389) rotate(180)" fill="#cee5ed"/>
  </g>
</svg>
