<?xml version="1.0" standalone="no"?>
<!DOCTYPE svg PUBLIC "-//W3C//DTD SVG 1.1//EN" "http://www.w3.org/Graphics/SVG/1.1/DTD/svg11.dtd" >
<svg>
<metadata>
Created by FontForge 20090622 at Thu Apr 30 10:32:08 2020
 By deploy user
Copyright (c) Olivier Gourvat - Mostardesign Studio, 2012. All rights reserved.
</metadata>
<defs>
<font id="SofiaProMedium" horiz-adv-x="580" >
  <font-face 
    font-family="Sofia Pro Medium"
    font-weight="400"
    font-stretch="normal"
    units-per-em="1000"
    panose-1="2 11 0 0 0 0 0 0 0 0"
    ascent="750"
    descent="-250"
    x-height="467"
    cap-height="689"
    bbox="-174 -259 1120 1096"
    underline-thickness="50"
    underline-position="-50"
    unicode-range="U+0020-U+FB04"
  />
<missing-glyph horiz-adv-x="635" 
d="M80 0v665h475v-665h-475zM185 431h62q0 37 21 60t53 23t56 -20.5t24 -52.5q0 -30 -24 -50q-15 -17 -33 -21q-45 -13 -69 -38t-24 -72v-38h62v38q0 22 12.5 32.5t37.5 17.5q43 13 71 48t28 83q0 60 -41.5 97.5t-99.5 37.5q-57 0 -96.5 -40t-39.5 -105zM237 131
q0 -18 13.5 -30.5t32.5 -12.5q18 0 31.5 12.5t13.5 30.5t-13.5 30.5t-31.5 12.5q-19 0 -32.5 -12.5t-13.5 -30.5z" />
    <glyph glyph-name="f_f" unicode="ff" horiz-adv-x="718" 
d="M723 721v-99h-51q-83 0 -83 -112v-43h105v-85h-105v-382h-104v382h-267v-382h-104v382h-89v85h89v43q0 99 47 155t140 56h51v-99h-51q-83 0 -83 -112v-43h267v43q0 99 47 155t140 56h51z" />
    <glyph glyph-name="fi" unicode="fi" horiz-adv-x="640" 
d="M467 0v382h-249v-382h-104v382h-89v85h89v43q0 99 47 155t140 56h51v-99h-51q-83 0 -83 -112v-43h249h102v-467h-102zM449 656q0 27 20.5 46t48.5 19q29 0 48.5 -18.5t19.5 -46.5t-19.5 -46.5t-48.5 -18.5q-28 0 -48.5 19t-20.5 46z" />
    <glyph glyph-name="fl" unicode="fl" horiz-adv-x="629" 
d="M454 622h-153q-83 0 -83 -112v-43h105v-85h-105v-382h-104v382h-89v85h89v43q0 99 47 155t140 56h256v-721h-103v622z" />
    <glyph glyph-name="f_f_i" unicode="ffi" horiz-adv-x="1011" 
d="M838 382h-249v-382h-104v382h-267v-382h-104v382h-89v85h89v43q0 99 47 155t140 56h51v-99h-51q-83 0 -83 -112v-43h267v43q0 99 47 155t140 56h51v-99h-51q-83 0 -83 -112v-43h351v-467h-102v382zM820 656q0 27 20.5 46t48.5 19q29 0 48.5 -18.5t19.5 -46.5t-19.5 -46.5
t-48.5 -18.5q-28 0 -48.5 19t-20.5 46z" />
    <glyph glyph-name="f_f_l" unicode="ffl" horiz-adv-x="1000" 
d="M825 622h-153q-83 0 -83 -112v-43h105v-85h-105v-382h-104v382h-267v-382h-104v382h-89v85h89v43q0 99 47 155t140 56h51v-99h-51q-83 0 -83 -112v-43h267v43q0 99 47 155t140 56h256v-721h-103v622z" />
    <glyph glyph-name="f_f_j" unicode="ffj" horiz-adv-x="1004" 
d="M695 -231v96h56q80 0 78 105v412h-240v-382h-104v382h-267v-382h-104v382h-89v85h89v43q0 99 47 155t140 56h51v-99h-51q-83 0 -83 -112v-43h267v43q0 99 47 155t140 56h51v-99h-51q-83 0 -83 -112v-43h344v-497q0 -201 -170 -201h-68zM812 656q0 27 20.5 46t48.5 19
q29 0 49 -18.5t20 -46.5t-20 -46.5t-49 -18.5q-28 0 -48.5 19t-20.5 46z" />
    <glyph glyph-name="f_j" unicode="fj" horiz-adv-x="633" 
d="M324 -231v96h56q80 0 78 105v412h-240v-382h-104v382h-89v85h89v43q0 99 47 155t140 56h51v-99h-51q-83 0 -83 -112v-43h344v-497q0 -201 -170 -201h-68zM441 656q0 27 20.5 46t48.5 19q29 0 49 -18.5t20 -46.5t-20 -46.5t-49 -18.5q-28 0 -48.5 19t-20.5 46z" />
    <glyph glyph-name=".notdef" horiz-adv-x="635" 
d="M80 0v665h475v-665h-475zM185 431h62q0 37 21 60t53 23t56 -20.5t24 -52.5q0 -30 -24 -50q-15 -17 -33 -21q-45 -13 -69 -38t-24 -72v-38h62v38q0 22 12.5 32.5t37.5 17.5q43 13 71 48t28 83q0 60 -41.5 97.5t-99.5 37.5q-57 0 -96.5 -40t-39.5 -105zM237 131
q0 -18 13.5 -30.5t32.5 -12.5q18 0 31.5 12.5t13.5 30.5t-13.5 30.5t-31.5 12.5q-19 0 -32.5 -12.5t-13.5 -30.5z" />
    <glyph glyph-name=".null" horiz-adv-x="0" 
 />
    <glyph glyph-name="nonmarkingreturn" horiz-adv-x="333" 
 />
    <glyph glyph-name="space" unicode=" " horiz-adv-x="254" 
 />
    <glyph glyph-name="exclam" unicode="!" horiz-adv-x="268" 
d="M188 689l-14 -504h-82l-15 504h111zM63 58q0 29 21 48.5t50 19.5q30 0 50.5 -19.5t20.5 -48.5t-20.5 -48t-50.5 -19q-29 0 -50 19t-21 48z" />
    <glyph glyph-name="quotedbl" unicode="&#x22;" horiz-adv-x="356" 
d="M77 399l-6 290h78l-6 -290h-66zM213 399l-6 290h78l-6 -290h-66z" />
    <glyph glyph-name="numbersign" unicode="#" horiz-adv-x="674" 
d="M531 515h107l-24 -87h-108l-49 -173h108l-24 -87h-108l-50 -168h-91l48 168h-105l-50 -168h-91l49 168h-106l23 87h107l48 173h-105l23 87h106l49 174h93l-49 -174h106l49 174h93zM307 428l-48 -173h105l49 173h-106z" />
    <glyph glyph-name="dollar" unicode="$" horiz-adv-x="564" 
d="M252 797h65v-103q83 -11 134 -65t51 -136h-106q0 47 -33 75.5t-87 28.5q-49 0 -84 -26.5t-35 -68.5q0 -66 92 -90l88 -23q102 -27 148 -82.5t38 -131.5q-7 -76 -63 -126.5t-143 -57.5v-111h-65v112q-92 10 -149.5 69.5t-57.5 138.5h106q2 -44 40 -78.5t97 -34.5
q58 0 91 27t39 67q5 85 -109 112l-87 22q-171 46 -171 185q0 79 58 132.5t143 62.5v102z" />
    <glyph glyph-name="percent" unicode="%" horiz-adv-x="684" 
d="M533 668h-67l-327 -668h66zM37 536q0 56 38.5 95t94.5 39t95 -39t39 -95t-39 -94.5t-95 -38.5t-94.5 38.5t-38.5 94.5zM110 536q0 -26 17 -43t43 -17q25 0 43 17.5t18 42.5t-18 43t-43 18q-26 0 -43 -17.5t-17 -43.5zM380 123q0 56 38.5 95t94.5 39q55 0 94.5 -39.5
t39.5 -94.5q0 -56 -39 -94.5t-95 -38.5t-94.5 38.5t-38.5 94.5zM453 123q0 -26 17 -43t43 -17t44 17t18 43q0 25 -18.5 43t-43.5 18t-42.5 -18t-17.5 -43z" />
    <glyph glyph-name="ampersand" unicode="&#x26;" horiz-adv-x="666" 
d="M287 336q-59 0 -95 -39.5t-35 -88.5q2 -53 37.5 -86t92.5 -33q66 0 99.5 43.5t33.5 118.5v85h-133zM281 -10q-99 0 -163 61.5t-64 153.5q0 58 27.5 105.5t77.5 74.5q-27 20 -43 56t-16 76q0 72 53.5 124t131.5 53q54 1 99.5 -25t74.5 -71l-85 -52q-32 49 -83 49
q-39 0 -63 -23.5t-24 -57.5q0 -33 23 -64t63 -31h130v87h96v-87h86v-83h-86v-128q0 -64 20.5 -94.5t81.5 -30.5v-93q-130 0 -167 77q-24 -36 -71 -56.5t-99 -20.5z" />
    <glyph glyph-name="quotesingle" unicode="'" horiz-adv-x="220" 
d="M77 399l-6 290h78l-6 -290h-66z" />
    <glyph glyph-name="parenleft" unicode="(" horiz-adv-x="367" 
d="M46 231q0 212 78.5 339t206.5 127v-94q-84 0 -138 -104t-54 -268q0 -163 54 -266.5t138 -103.5v-94q-128 0 -206.5 126t-78.5 338z" />
    <glyph glyph-name="parenright" unicode=")" horiz-adv-x="367" 
d="M321 231q0 -211 -78.5 -337.5t-206.5 -126.5v94q83 0 137.5 103.5t54.5 266.5t-54.5 267.5t-137.5 104.5v94q128 0 206.5 -127t78.5 -339z" />
    <glyph glyph-name="asterisk" unicode="*" horiz-adv-x="472" 
d="M97 395l84 104l-130 37l27 78l124 -49l-8 134h84l-9 -133l126 48l25 -78l-129 -35l86 -107l-66 -46l-73 111l-77 -113z" />
    <glyph glyph-name="plus" unicode="+" horiz-adv-x="515" 
d="M303 216v-161h-91v161h-160v91h160v160h91v-160h160v-91h-160z" />
    <glyph glyph-name="comma" unicode="," horiz-adv-x="259" 
d="M81 -128l-70 24q73 102 70 230h108q-5 -91 -36.5 -156.5t-71.5 -97.5z" />
    <glyph glyph-name="hyphen" unicode="-" horiz-adv-x="481" 
d="M66 190v93h349v-93h-349z" />
    <glyph glyph-name="period" unicode="." horiz-adv-x="266" 
d="M63 57q0 29 20.5 48.5t49.5 19.5q30 0 50.5 -19.5t20.5 -48.5t-20.5 -48t-50.5 -19q-29 0 -49.5 19t-20.5 48z" />
    <glyph glyph-name="slash" unicode="/" horiz-adv-x="502" 
d="M369 689h102l-338 -689h-102z" />
    <glyph glyph-name="zero" unicode="0" horiz-adv-x="604" 
d="M63 325q0 59 6.5 107t23.5 92t43.5 73.5t68.5 47t97 17.5t97 -17.5t68.5 -47t43 -73.5t23 -92t6.5 -107t-6.5 -106.5t-23 -91t-43 -73t-68.5 -47t-97 -17.5q-69 0 -117 25.5t-74 73.5t-37 105t-11 131zM165 325q0 -235 137 -235q136 0 136 235t-136 235q-137 0 -137 -235
z" />
    <glyph glyph-name="one" unicode="1" horiz-adv-x="344" 
d="M41 577l210 83v-660h-102v521l-108 -39v95z" />
    <glyph glyph-name="two" unicode="2" horiz-adv-x="532" 
d="M467 0h-409v49l266 320q45 53 45 99q0 41 -31 67.5t-77 26.5q-43 0 -74 -27.5t-37 -72.5l-98 21q13 82 71.5 131t139.5 49q88 0 148 -54.5t60 -140.5q0 -89 -71 -168l-170 -200h237v-100z" />
    <glyph glyph-name="three" unicode="3" horiz-adv-x="538" 
d="M257 300h-73v95h73q36 -1 57.5 22t26.5 52q9 62 -48 85q-16 7 -45 7q-57 1 -92 -51l-78 57q27 47 79 73.5t113 22.5q80 -4 132 -57t52 -124q0 -38 -21.5 -73t-57.5 -56q48 -18 76.5 -67t28.5 -104q0 -89 -64 -140.5t-164 -51.5q-74 0 -130 36.5t-83 95.5l90 48
q13 -31 51 -55.5t72 -24.5h-1q60 0 91.5 28t31.5 72q0 42 -31.5 76.5t-85.5 33.5z" />
    <glyph glyph-name="four" unicode="4" horiz-adv-x="591" 
d="M184 230h171v255zM548 137h-91v-137h-102v137h-334l348 516h88v-423h91v-93z" />
    <glyph glyph-name="five" unicode="5" horiz-adv-x="569" 
d="M417 215q0 58 -37.5 89.5t-93.5 31.5q-79 0 -158 -59l-61 45l56 331h357v-97h-274l-31 -165q21 16 56 26.5t66 10.5q95 0 158 -56.5t63 -156.5q0 -101 -69 -163t-182 -62q-68 0 -128.5 39.5t-92.5 105.5q11 5 45 25.5t42 24.5q20 -44 55.5 -69.5t78.5 -25.5
q72 0 111 35.5t39 89.5z" />
    <glyph glyph-name="six" unicode="6" horiz-adv-x="561" 
d="M401 203q0 49 -30.5 83.5t-77.5 35.5q-48 2 -84.5 -31.5t-36.5 -79.5q0 -50 33 -84t80 -35q48 -2 82 30.5t34 80.5zM303 421q85 0 143 -63.5t58 -159.5q-3 -90 -66.5 -149t-156.5 -59q-88 0 -147.5 61.5t-67.5 163.5q-6 51 -3 104.5t9 103.5t24.5 94.5t44.5 77t69 51
t98 16.5q64 -3 112 -30.5t79 -95.5l-93 -40q-34 70 -102 70t-108 -63t-32 -156q41 74 139 74z" />
    <glyph glyph-name="seven" unicode="7" horiz-adv-x="532" 
d="M55 653h462l-341 -653h-119l291 554h-293v99z" />
    <glyph glyph-name="eight" unicode="8" horiz-adv-x="570" 
d="M204 491q0 -33 23 -54.5t60 -21.5q35 1 57 23t22 53q0 30 -23 51.5t-58 21.5t-58 -21.5t-23 -51.5zM156 208q0 -50 37.5 -84.5t91.5 -34.5t91 34.5t37 84.5q0 48 -36 83t-89 35h-11q-51 -1 -86 -36t-35 -82zM104 492q0 71 52 121t129 50t130 -50t53 -121q0 -68 -51 -114
q46 -28 72.5 -73t26.5 -98q0 -91 -67 -154t-164 -63t-164 63t-67 154q0 54 26 99t72 72q-48 46 -48 114z" />
    <glyph glyph-name="nine" unicode="9" horiz-adv-x="561" 
d="M159 449q0 -49 30.5 -83.5t77.5 -35.5q48 -2 84.5 31.5t36.5 79.5q0 50 -33 84t-80 35q-48 2 -82 -30.5t-34 -80.5zM257 231q-85 0 -143 63.5t-58 159.5q3 90 66.5 149t156.5 59q88 0 147.5 -61.5t67.5 -163.5q6 -51 3 -104.5t-9 -103.5t-24.5 -94.5t-44.5 -77t-69 -51
t-98 -16.5q-64 3 -112 30.5t-79 95.5l93 40q34 -70 102 -70t108 63t32 156q-38 -74 -139 -74z" />
    <glyph glyph-name="colon" unicode=":" horiz-adv-x="273" 
d="M66 57q0 29 20.5 48.5t50.5 19.5q29 0 49.5 -19.5t20.5 -48.5t-20.5 -48t-49.5 -19q-30 0 -50.5 19t-20.5 48zM66 409q0 30 20.5 49t50.5 19q29 0 49.5 -19.5t20.5 -48.5t-20.5 -48.5t-49.5 -19.5q-30 0 -50.5 19.5t-20.5 48.5z" />
    <glyph glyph-name="semicolon" unicode=";" horiz-adv-x="286" 
d="M96 -128l-75 24q74 101 71 230h111q-4 -91 -35.5 -156.5t-71.5 -97.5zM78 409q0 30 20.5 49t50.5 19q29 0 50 -19.5t21 -48.5t-21 -48.5t-50 -19.5q-30 0 -50.5 19.5t-20.5 48.5z" />
    <glyph glyph-name="less" unicode="&#x3c;" horiz-adv-x="614" 
d="M548 36l-505 194v93l505 193v-100l-375 -139l375 -141v-100z" />
    <glyph glyph-name="equal" unicode="=" horiz-adv-x="606" 
d="M533 315h-460v89h460v-89zM73 209h460v-89h-460v89z" />
    <glyph glyph-name="greater" unicode="&#x3e;" horiz-adv-x="614" 
d="M571 230l-505 -194v100l375 141l-375 139v100l505 -193v-93z" />
    <glyph glyph-name="question" unicode="?" horiz-adv-x="487" 
d="M241 237l-2 -51h-100v51q0 39 7.5 65t25 42.5t34.5 26.5t48 25.5t53 30.5q40 28 40 75q0 41 -31 67t-74 26q-42 0 -71.5 -29.5t-29.5 -77.5h-99q0 94 57.5 151.5t142.5 57.5q87 0 147 -53.5t60 -141.5q0 -70 -40 -120t-102 -69q-34 -10 -50 -26.5t-16 -49.5zM119 58
q0 29 21 48.5t50 19.5q30 0 50.5 -19.5t20.5 -48.5t-20.5 -48t-50.5 -19q-29 0 -50 19t-21 48z" />
    <glyph glyph-name="at" unicode="@" horiz-adv-x="969" 
d="M596 130v128q0 53 -37 89.5t-89 36.5t-89 -36.5t-37 -89.5q0 -52 37 -88.5t89 -36.5q48 0 94 43v-88q-48 -30 -94 -30q-83 0 -142 58.5t-59 141.5q0 84 59 142.5t142 58.5q81 0 139 -55q59 -56 62 -137v-144q0 -64 69 -64q33 0 57 21t35.5 55.5t16.5 67.5t5 67
q0 148 -110 247.5t-264 99.5q-150 0 -253.5 -106.5t-103.5 -257.5t103.5 -255.5t253.5 -104.5h25v-76h-25q-182 0 -307 126.5t-125 309.5q0 182 125.5 310.5t306.5 128.5q121 0 224 -54t165 -151.5t62 -216.5q0 -47 -10.5 -94.5t-31.5 -92t-59.5 -72t-89.5 -27.5
q-62 0 -103 34.5t-41 111.5z" />
    <glyph glyph-name="A" unicode="A" horiz-adv-x="647" 
d="M529 0l-66 172h-278l-66 -172h-113l260 689h115l260 -689h-112zM324 556l-103 -289h206z" />
    <glyph glyph-name="B" unicode="B" horiz-adv-x="629" 
d="M545 507q0 -105 -89 -140q57 -13 91.5 -62t34.5 -103q0 -85 -56.5 -143.5t-150.5 -58.5h-285v689h264q88 0 139.5 -49t51.5 -133zM197 406h153q40 0 62.5 28t22.5 69q0 42 -24.5 65.5t-67.5 23.5h-146v-186zM367 315h-170v-218h173q46 0 73.5 32t27.5 74t-29 77t-75 35z
" />
    <glyph glyph-name="C" unicode="C" horiz-adv-x="684" 
d="M581 182l82 -65q-46 -60 -115.5 -93.5t-152.5 -33.5q-146 0 -247 103t-101 250t101 250.5t247 103.5q81 0 150 -33t116 -91l-82 -64q-76 86 -184 86q-102 0 -172 -73.5t-70 -178.5t70 -178t172 -73q116 0 186 90z" />
    <glyph glyph-name="D" unicode="D" horiz-adv-x="719" 
d="M196 590v-492h162q98 0 151 69t53 176q0 108 -53.5 177.5t-150.5 69.5h-162zM358 0h-268v689h268q143 0 226.5 -97.5t83.5 -248.5q0 -150 -83 -246.5t-227 -96.5z" />
    <glyph glyph-name="E" unicode="E" horiz-adv-x="567" 
d="M90 0v689h415v-98h-309v-204h270v-97h-270v-193h319v-97h-425z" />
    <glyph glyph-name="F" unicode="F" horiz-adv-x="527" 
d="M90 0v689h409v-98h-303v-204h240v-97h-240v-290h-106z" />
    <glyph glyph-name="G" unicode="G" horiz-adv-x="755" 
d="M636 600l-78 -69q-68 65 -162 65q-102 0 -172.5 -74t-70.5 -179t70.5 -179t172.5 -74q86 0 144.5 46.5t62.5 122.5h-193v91h315q0 -179 -88 -269.5t-241 -90.5q-146 0 -247.5 103t-101.5 250t101 250.5t248 103.5q143 0 240 -97z" />
    <glyph glyph-name="H" unicode="H" horiz-adv-x="705" 
d="M507 689h108v-689h-108v294h-311v-294h-106v689h106v-298h311v298z" />
    <glyph glyph-name="I" unicode="I" horiz-adv-x="286" 
d="M90 0v689h106v-689h-106z" />
    <glyph glyph-name="J" unicode="J" horiz-adv-x="287" 
d="M-100 -235l10 99q27 -9 71 -9q56 0 82.5 34.5t26.5 89.5v710h107v-710q0 -100 -52.5 -163t-163.5 -63q-27 0 -81 12z" />
    <glyph glyph-name="K" unicode="K" horiz-adv-x="583" 
d="M269 346l325 -346h-140l-257 279v-279h-107v689h107v-280l211 280h125z" />
    <glyph glyph-name="L" unicode="L" horiz-adv-x="499" 
d="M90 0v689h106v-592h276v-97h-382z" />
    <glyph glyph-name="M" unicode="M" horiz-adv-x="927" 
d="M463 198l234 491h95l84 -689h-106l-59 492l-202 -415h-90l-203 415l-59 -492h-106l84 689h94z" />
    <glyph glyph-name="N" unicode="N" horiz-adv-x="681" 
d="M591 689v-689h-99l-296 493v-493h-106v689h102l293 -489v489h106z" />
    <glyph glyph-name="O" unicode="O" horiz-adv-x="792" 
d="M153 343q0 -104 70 -176.5t172 -72.5t172.5 72.5t70.5 176.5t-70.5 177t-172.5 73t-172 -73t-70 -177zM47 343q0 148 101 251t247 103q147 0 248.5 -103t101.5 -251q0 -147 -101.5 -250t-248.5 -103q-146 0 -247 103t-101 250z" />
    <glyph glyph-name="P" unicode="P" horiz-adv-x="607" 
d="M365 591h-168v-241h164q54 0 82 35.5t28 84.5t-27 85t-79 36zM90 0v689h277q104 0 157 -64t53 -155t-52.5 -154t-157.5 -63h-170v-253h-107z" />
    <glyph glyph-name="Q" unicode="Q" horiz-adv-x="794" 
d="M587 46l70 -113l-80 -49l-76 122q-48 -16 -105 -16q-146 0 -247.5 103t-101.5 250t101 250.5t248 103.5q148 0 249.5 -103t101.5 -251q0 -92 -43 -170.5t-117 -126.5zM456 256l75 -121q51 33 80 88t29 120q0 105 -70.5 178.5t-173.5 73.5q-102 0 -172.5 -73.5
t-70.5 -178.5q0 -98 62.5 -168t156.5 -78q35 -4 71 2l-66 108z" />
    <glyph glyph-name="R" unicode="R" horiz-adv-x="622" 
d="M355 591h-158v-241h154q54 0 81 35.5t27 84.5t-26 85t-78 36zM391 257l181 -257h-129l-172 253h-74v-253h-107v689h269q104 0 157 -64t53 -155q0 -83 -44.5 -143t-133.5 -70z" />
    <glyph glyph-name="S" unicode="S" horiz-adv-x="574" 
d="M50 200h106q2 -44 40 -78.5t97 -34.5q58 0 91 27t39 67q5 85 -109 112l-87 22q-171 46 -171 185q0 86 67 141.5t160 55.5q97 0 160.5 -55.5t63.5 -148.5h-106q0 47 -33 75.5t-87 28.5q-49 0 -84 -26.5t-35 -68.5q0 -66 92 -90l88 -23q102 -27 148 -82.5t38 -131.5
q-8 -82 -72.5 -133.5t-162.5 -51.5q-105 0 -174 62t-69 148z" />
    <glyph glyph-name="T" unicode="T" horiz-adv-x="570" 
d="M28 590v99h514v-99h-203v-590h-108v590h-203z" />
    <glyph glyph-name="U" unicode="U" horiz-adv-x="677" 
d="M339 92q61 0 104.5 41t43.5 106v450h107v-450q0 -110 -74.5 -179.5t-180.5 -69.5q-107 0 -181.5 69.5t-74.5 179.5v450h108v-450q0 -65 43.5 -106t104.5 -41z" />
    <glyph glyph-name="V" unicode="V" horiz-adv-x="566" 
d="M25 689h111l147 -512l148 512h110l-208 -689h-99z" />
    <glyph glyph-name="W" unicode="W" horiz-adv-x="897" 
d="M608 176l164 513h114l-233 -689h-89l-116 413l-115 -413h-89l-233 689h114l164 -513l118 419h83z" />
    <glyph glyph-name="X" unicode="X" horiz-adv-x="624" 
d="M591 689l-215 -320l240 -369h-127l-177 282l-177 -282h-126l239 369l-214 320h128l150 -234l152 234h127z" />
    <glyph glyph-name="Y" unicode="Y" horiz-adv-x="634" 
d="M371 0h-109v316l-262 373h127l190 -274l192 274h127l-265 -374v-315z" />
    <glyph glyph-name="Z" unicode="Z" horiz-adv-x="577" 
d="M41 88l352 503h-338v98h474v-89l-354 -502h354v-98h-488v88z" />
    <glyph glyph-name="bracketleft" unicode="[" horiz-adv-x="328" 
d="M81 -227v916h208v-88h-111v-740h111v-88h-208z" />
    <glyph glyph-name="backslash" unicode="\" horiz-adv-x="502" 
d="M31 689h102l338 -689h-102z" />
    <glyph glyph-name="bracketright" unicode="]" horiz-adv-x="328" 
d="M247 689v-916h-208v88h111v740h-111v88h208z" />
    <glyph glyph-name="underscore" unicode="_" horiz-adv-x="709" 
d="M66 -115v86h577v-86h-577z" />
    <glyph glyph-name="grave" unicode="`" horiz-adv-x="522" 
d="M129 698h116l100 -158h-90z" />
    <glyph glyph-name="a" unicode="a" horiz-adv-x="610" 
d="M436 0v67q-22 -36 -66.5 -56.5t-90.5 -20.5q-98 0 -167.5 68t-69.5 176t69.5 175.5t167.5 67.5q46 0 90 -19.5t67 -56.5v66h102v-467h-102zM148 235q0 -63 41.5 -104t101.5 -41t102 39.5t42 105.5q0 65 -43.5 103.5t-100.5 38.5q-60 0 -101.5 -39.5t-41.5 -102.5z" />
    <glyph glyph-name="b" unicode="b" horiz-adv-x="608" 
d="M176 235q0 -66 41.5 -105.5t101.5 -39.5q59 0 100 41t41 104t-40.5 102.5t-100.5 39.5q-57 0 -100 -38.5t-43 -103.5zM175 0h-103v721h103v-321q21 37 63.5 57t93.5 20q98 0 165.5 -67t67.5 -177q0 -107 -68.5 -175t-165.5 -68q-49 0 -92 20.5t-64 57.5v-68z" />
    <glyph glyph-name="c" unicode="c" horiz-adv-x="514" 
d="M42 235q0 108 72.5 175t176.5 67q116 0 185 -81l-80 -64q-39 45 -105 45q-61 0 -104 -39.5t-43 -102.5q0 -64 43.5 -105t103.5 -41q65 0 105 46l81 -63q-69 -82 -186 -82q-103 0 -176 68.5t-73 176.5z" />
    <glyph glyph-name="d" unicode="d" horiz-adv-x="608" 
d="M434 0v68q-21 -37 -64.5 -57.5t-93.5 -20.5q-97 0 -165 67.5t-68 175.5q0 109 67.5 176.5t165.5 67.5q51 0 94 -20t64 -57v321h102v-721h-102zM432 235q0 65 -43 103.5t-100 38.5q-60 0 -100 -39.5t-40 -102.5q0 -64 40.5 -104.5t99.5 -40.5q60 0 101.5 39.5t41.5 105.5z
" />
    <glyph glyph-name="e" unicode="e" horiz-adv-x="553" 
d="M516 235q0 -28 -1 -38h-371q7 -54 46.5 -85.5t96.5 -31.5q40 0 74.5 17.5t52.5 49.5l84 -37q-30 -59 -88 -89.5t-128 -30.5q-102 0 -171 68t-69 177t69 175.5t171 66.5t168 -66.5t66 -175.5zM144 272h271q-7 54 -43.5 84.5t-89.5 30.5q-55 0 -93 -31t-45 -84z" />
    <glyph glyph-name="f" unicode="f" horiz-adv-x="347" 
d="M352 721v-99h-51q-83 0 -83 -112v-43h105v-85h-105v-382h-104v382h-89v85h89v43q0 99 47 155t140 56h51z" />
    <glyph glyph-name="g" unicode="g" horiz-adv-x="610" 
d="M435 233q0 67 -41.5 105.5t-102.5 38.5q-60 0 -101 -40.5t-41 -103.5q0 -64 41 -104t101 -40q56 0 100 39.5t44 104.5zM150 -59q18 -36 55 -57t76 -21q156 0 156 184v24q-20 -38 -64.5 -59.5t-93.5 -21.5q-98 0 -167 67t-69 175q0 109 69 177t167 68q49 0 93 -21t65 -58
v69h101v-398q0 -302 -257 -302q-68 0 -125.5 34.5t-90.5 96.5q9 4 42.5 21.5t42.5 21.5z" />
    <glyph glyph-name="h" unicode="h" horiz-adv-x="578" 
d="M175 251v-251h-103v721h103v-325q18 39 62 60t86 21q89 0 139 -55.5t50 -155.5v-266h-103v260q0 53 -29.5 84.5t-74.5 31.5q-52 0 -91 -31t-39 -94z" />
    <glyph glyph-name="i" unicode="i" horiz-adv-x="246" 
d="M174 0v467h-102v-467h102zM54 656q0 27 20.5 46t48.5 19q29 0 48.5 -18.5t19.5 -46.5t-19.5 -46.5t-48.5 -18.5q-28 0 -48.5 19t-20.5 46z" />
    <glyph glyph-name="j" unicode="j" horiz-adv-x="248" 
d="M-62 -231v96h56q80 0 78 105v497h104v-497q0 -201 -170 -201h-68zM55 656q0 27 20.5 46t48.5 19q29 0 49 -18.5t20 -46.5t-20 -46.5t-49 -18.5q-28 0 -48.5 19t-20.5 46z" />
    <glyph glyph-name="k" unicode="k" horiz-adv-x="506" 
d="M373 0l-199 217v-217h-102v721h102v-408l148 154h138l-199 -203l244 -264h-132z" />
    <glyph glyph-name="l" unicode="l" horiz-adv-x="247" 
d="M72 0v721h103v-721h-103z" />
    <glyph glyph-name="m" unicode="m" horiz-adv-x="873" 
d="M604 376q-51 0 -82 -34.5t-31 -90.5v-251h-103v262q-1 53 -27 83.5t-68 30.5q-50 0 -84 -30.5t-34 -94.5v-251h-103v467h103v-70q21 43 64.5 61.5t82.5 18.5q106 0 147 -93q51 93 157 93q86 0 133 -54t47 -154v-269h-103v260q0 54 -27 85t-72 31z" />
    <glyph glyph-name="n" unicode="n" horiz-adv-x="563" 
d="M175 251v-251h-103v467h103v-70q19 38 60 59t83 21q85 0 131.5 -53t46.5 -152v-272h-103v260q0 55 -26.5 85.5t-71.5 30.5q-51 0 -85.5 -30.5t-34.5 -94.5z" />
    <glyph glyph-name="o" unicode="o" horiz-adv-x="572" 
d="M285 90q60 0 101 40t41 105q0 63 -41 102t-101 39q-59 0 -100 -39t-41 -102q0 -64 41 -104.5t100 -40.5zM285 -10q-102 0 -172.5 68.5t-70.5 176.5t70.5 175t172.5 67q103 0 174 -67t71 -175t-71.5 -176.5t-173.5 -68.5z" />
    <glyph glyph-name="p" unicode="p" horiz-adv-x="606" 
d="M175 467v-69q21 37 64.5 58t91.5 21q97 0 164.5 -68t67.5 -176q0 -109 -67.5 -176t-164.5 -67q-50 0 -92.5 20t-63.5 57v-294h-103v694h103zM176 231q0 -65 42.5 -103.5t99.5 -38.5q60 0 100 39.5t40 102.5q0 64 -40.5 105t-99.5 41t-100.5 -40t-41.5 -106z" />
    <glyph glyph-name="q" unicode="q" horiz-adv-x="606" 
d="M430 231q0 66 -41 106t-101 40q-59 0 -99 -41t-40 -105q0 -63 39.5 -102.5t99.5 -39.5q57 0 99.5 38.5t42.5 103.5zM431 398v69h103v-694h-103v294q-20 -37 -63 -57t-93 -20q-97 0 -164.5 67t-67.5 176q0 108 67.5 176t164.5 68q49 0 92.5 -21t63.5 -58z" />
    <glyph glyph-name="r" unicode="r" horiz-adv-x="399" 
d="M175 168v-168h-103v467h103v-107q34 117 128 117q56 0 83 -18l-17 -95q-32 16 -69 16q-63 0 -94 -57t-31 -155z" />
    <glyph glyph-name="s" unicode="s" horiz-adv-x="444" 
d="M181 202q-73 20 -103.5 57t-25.5 95q4 52 53 87.5t114 35.5q69 0 117.5 -34t52.5 -104h-98q-3 25 -22.5 37.5t-45.5 12.5q-20 0 -39.5 -7t-26.5 -19q-12 -20 -4 -42q7 -22 57 -36l72 -18q122 -30 122 -136q0 -66 -52 -103.5t-134 -37.5q-70 0 -124 41.5t-55 111.5h95
q4 -31 28 -49t64 -18q36 0 59.5 15t23.5 41q0 40 -65 55z" />
    <glyph glyph-name="t" unicode="t" horiz-adv-x="336" 
d="M212 644v-177h99v-85h-99v-382h-103v382h-84v85h84v177h103z" />
    <glyph glyph-name="u" unicode="u" horiz-adv-x="562" 
d="M387 216v251h103v-467h-103v68q-19 -37 -59 -57.5t-80 -20.5q-86 0 -134 53.5t-47 151.5v272h103v-260q0 -56 27 -86.5t70 -30.5q51 0 85.5 30.5t34.5 95.5z" />
    <glyph glyph-name="v" unicode="v" horiz-adv-x="511" 
d="M208 0l-195 467h109l134 -336l132 336h110l-195 -467h-95z" />
    <glyph glyph-name="w" unicode="w" horiz-adv-x="782" 
d="M764 467l-171 -467h-85l-119 331l-114 -331h-84l-176 467h110l108 -315l108 315h96l108 -315l109 315h110z" />
    <glyph glyph-name="x" unicode="x" horiz-adv-x="506" 
d="M194 255l-153 212h122l90 -129l90 129h122l-153 -212l184 -255h-121l-122 171l-124 -171h-120z" />
    <glyph glyph-name="y" unicode="y" horiz-adv-x="507" 
d="M494 467l-289 -695h-108l101 250l-185 445h110l130 -320l131 320h110z" />
    <glyph glyph-name="z" unicode="z" horiz-adv-x="504" 
d="M57 467h398v-82l-268 -288h268v-97h-414v82l264 288h-248v97z" />
    <glyph glyph-name="braceleft" unicode="{" horiz-adv-x="399" 
d="M36 270q24 0 42.5 17.5t18.5 39.5v174q-1 88 56.5 142t141.5 54h69v-77h-72q-42 0 -71.5 -31t-29.5 -77v-157q0 -97 -67 -122q35 -11 51 -45.5t16 -76.5v-149q0 -45 30 -78t71 -33h72v-78h-69q-84 0 -141 54.5t-57 142.5v170q0 21 -18.5 38.5t-42.5 17.5v74z" />
    <glyph glyph-name="bar" unicode="|" horiz-adv-x="227" 
d="M81 797h65v-917h-65v917z" />
    <glyph glyph-name="braceright" unicode="}" horiz-adv-x="399" 
d="M363 270v-74q-24 0 -42.5 -17.5t-18.5 -38.5v-170q0 -88 -57 -142.5t-141 -54.5h-69v78h72q41 0 71 33t30 78v149q0 42 16 76.5t51 45.5q-67 25 -67 122v157q0 46 -29.5 77t-71.5 31h-72v77h69q84 0 141.5 -54t56.5 -142v-174q0 -22 18.5 -39.5t42.5 -17.5z" />
    <glyph glyph-name="exclamdown" unicode="&#xa1;" horiz-adv-x="249" 
d="M165 283l14 -510h-111l15 510h82zM54 410q0 29 21 48t50 19q30 0 50.5 -19t20.5 -48t-20.5 -48.5t-50.5 -19.5q-29 0 -50 19.5t-21 48.5z" />
    <glyph glyph-name="cent" unicode="&#xa2;" horiz-adv-x="533" 
d="M315 579v-103q104 -6 167 -80l-80 -64q-39 45 -105 45q-61 0 -104 -39.5t-43 -102.5q0 -64 43.5 -105t103.5 -41q65 0 105 46l81 -63q-62 -73 -168 -81v-110h-65v113q-87 15 -144.5 80t-57.5 161q0 95 57 159t145 79v106h65z" />
    <glyph glyph-name="sterling" unicode="&#xa3;" horiz-adv-x="643" 
d="M387 285h-143v-187h198q40 0 48 13q3 5 3 13v50h102v-51q0 -53 -28 -88t-76 -35h-445v98h96v187h-78v61h78v120q0 106 55 168.5t152 62.5q86 0 145 -58t59 -156h-103q0 55 -31.5 84t-76.5 24q-40 -2 -69 -28.5t-29 -67.5v-149h143v-61z" />
    <glyph glyph-name="currency" unicode="&#xa4;" horiz-adv-x="614" 
d="M199 174l-70 -72l-59 59l71 71q-32 47 -32 107q0 58 33 108l-72 71l59 58l71 -71q48 32 107 32t108 -32l70 71l58 -58l-70 -72q32 -50 32 -107q0 -61 -32 -107l70 -71l-58 -59l-70 72q-50 -33 -108 -33q-59 0 -108 33zM204 339q0 -43 30 -73t73 -30t73.5 30t30.5 73
t-30.5 73.5t-73.5 30.5t-73 -30.5t-30 -73.5z" />
    <glyph glyph-name="yen" unicode="&#xa5;" horiz-adv-x="702" 
d="M407 319h174v-65h-177v-82h177v-65h-177v-107h-109v107h-174v65h174v82h-174v65h172l-260 370h127l190 -274l192 274h127z" />
    <glyph glyph-name="brokenbar" unicode="&#xa6;" horiz-adv-x="229" 
d="M82 267h65v-387h-65v387zM147 797v-388h-65v388h65z" />
    <glyph glyph-name="section" unicode="&#xa7;" horiz-adv-x="521" 
d="M318 220v-97q-27 -7 -54 -7q-84 0 -142.5 54.5t-58.5 143.5v185q0 88 58.5 143t142.5 55q66 0 120 -38t74 -105l-91 -27q-14 36 -41.5 55.5t-61.5 19.5q-44 0 -75 -28.5t-31 -74.5v-185q0 -47 31 -75t76 -28q29 0 53 9zM203 321v97q27 7 54 7q84 0 142.5 -54.5
t58.5 -143.5v-185q0 -88 -58.5 -143t-142.5 -55q-66 0 -120 38t-74 105l91 27q14 -36 42 -55.5t61 -19.5q44 0 75 28.5t31 74.5v185q0 47 -31 75t-76 28q-29 0 -53 -9z" />
    <glyph glyph-name="dieresis" unicode="&#xa8;" horiz-adv-x="540" 
d="M120 622q0 26 19 43.5t46 17.5q26 0 44.5 -17.5t18.5 -43.5t-18.5 -44t-44.5 -18q-27 0 -46 18t-19 44zM291 622q0 26 19 43.5t46 17.5t45.5 -17.5t18.5 -43.5t-19 -44t-45 -18q-27 0 -46 18t-19 44z" />
    <glyph glyph-name="copyright" unicode="&#xa9;" horiz-adv-x="807" 
d="M544 222l-45 50q-48 -48 -93 -48q-47 0 -79.5 33.5t-32.5 80.5t32.5 80t79.5 33q45 0 91 -46l46 47q-63 66 -137 66q-76 0 -128 -52.5t-52 -127.5t52.5 -128t127.5 -53q76 0 138 65zM54 343q0 147 101.5 250.5t247.5 103.5t248 -103.5t102 -250.5t-102 -250t-248 -103
t-247.5 103t-101.5 250zM115 343q0 -121 84 -206t204 -85t204 85t84 206t-84 206.5t-204 85.5t-204 -85.5t-84 -206.5z" />
    <glyph glyph-name="ordfeminine" unicode="&#xaa;" horiz-adv-x="482" 
d="M334 324v49q-15 -26 -46 -41t-65 -15q-69 0 -118 48t-49 124t48.5 123.5t118.5 47.5q34 0 64.5 -14t46.5 -41v48h66v-329h-66zM334 490q0 48 -32 76t-74 28q-44 0 -73.5 -29t-29.5 -75q0 -47 29.5 -77t73.5 -30t75 29t31 78zM82 214v51h315v-51h-315z" />
    <glyph glyph-name="guillemotleft" unicode="&#xab;" horiz-adv-x="494" 
d="M222 233l138 207h86l-138 -207l138 -207h-86zM45 233l138 207h87l-138 -207l138 -207h-87z" />
    <glyph glyph-name="logicalnot" unicode="&#xac;" horiz-adv-x="639" 
d="M73 362h489v-248h-96v153h-393v95z" />
    <glyph glyph-name="registered" unicode="&#xae;" horiz-adv-x="807" 
d="M547 165l-90 127q38 10 57.5 40.5t19.5 69.5q0 47 -30 81.5t-84 34.5h-137v-353h69v122h23l88 -122h84zM352 450h68q21 0 33.5 -14t12.5 -34q0 -19 -13 -33t-35 -14h-66v95zM54 343q0 147 101.5 250.5t247.5 103.5t248 -103.5t102 -250.5t-102 -250t-248 -103t-247.5 103
t-101.5 250zM115 343q0 -121 84 -206t204 -85t204 85t84 206t-84 206.5t-204 85.5t-204 -85.5t-84 -206.5z" />
    <glyph glyph-name="macron" unicode="&#xaf;" horiz-adv-x="498" 
d="M120 572v81h258v-81h-258z" />
    <glyph glyph-name="degree" unicode="&#xb0;" horiz-adv-x="369" 
d="M50 555q0 55 39.5 94.5t94.5 39.5t95 -39.5t40 -94.5t-39.5 -95t-95.5 -40q-55 0 -94.5 40t-39.5 95zM120 555q0 -27 19 -46t45 -19q27 0 46 19t19 46q0 26 -19 45t-46 19q-26 0 -45 -19t-19 -45z" />
    <glyph glyph-name="plusminus" unicode="&#xb1;" horiz-adv-x="540" 
d="M315 281v-145h-91v145h-157v90h157v143h91v-143h158v-90h-158zM473 0h-406v87h406v-87z" />
    <glyph glyph-name="twosuperior" unicode="&#xb2;" horiz-adv-x="317" 
d="M34 463l157 189q26 31 26 57q0 24 -18 39.5t-44 15.5q-25 0 -44 -17t-23 -45l-58 14q8 50 43 80t83 30q52 0 88 -33t36 -84q0 -52 -42 -101l-98 -114h139v-63h-245v32z" />
    <glyph glyph-name="threesuperior" unicode="&#xb3;" horiz-adv-x="319" 
d="M91 735l-22 16t-24 18q17 27 47.5 42.5t66.5 13.5q49 -2 80 -33.5t29 -73.5q0 -24 -12.5 -45t-34.5 -32q30 -11 48 -42t15 -63q-4 -49 -46.5 -81.5t-97.5 -28.5q-39 3 -70.5 25t-47.5 56q6 3 26.5 14t26.5 15q9 -20 28 -34.5t41 -15.5h-1q30 -2 53 15t25 43
q1 25 -18.5 45.5t-50.5 19.5h-44v57h44q25 0 39 19t11 40q-2 18 -15.5 29.5t-33.5 11.5q-39 4 -62 -31z" />
    <glyph glyph-name="acute" unicode="&#xb4;" horiz-adv-x="522" 
d="M229 698h116l-126 -158h-90z" />
    <glyph glyph-name="mu" unicode="&#xb5;" horiz-adv-x="559" 
d="M80 -163v630h103v-265q0 -53 24.5 -82t65.5 -29q49 0 84.5 30.5t35.5 93.5v252h103v-467h-103v59q-20 -33 -56.5 -50.5t-73.5 -17.5q-58 0 -87 29l4 -120v-63h-100z" />
    <glyph glyph-name="paragraph" unicode="&#xb6;" horiz-adv-x="667" 
d="M330 689v-679q0 -6 1 -19.5t0.5 -18t-4 -12t-12 -10t-23.5 -2.5h-50v307q-86 5 -146.5 68t-60.5 149q0 90 63 153.5t154 63.5h78zM500 601h-24v-650q0 -52 -41 -93.5t-96 -43.5h-11h-87v80h96q20 0 36 13.5t16 32.5v749h104q56 0 96.5 -40.5t40.5 -96.5v-85h-85v83
q0 21 -13 36t-32 15z" />
    <glyph glyph-name="periodcentered" unicode="&#xb7;" horiz-adv-x="274" 
d="M66 275q0 29 20.5 48.5t49.5 19.5q30 0 51 -19.5t21 -48.5t-21 -48.5t-51 -19.5q-29 0 -49.5 19.5t-20.5 48.5z" />
    <glyph glyph-name="cedilla" unicode="&#xb8;" horiz-adv-x="524" 
d="M230 -111q6 -14 19 -20t28 -2q15 7 20 21t-1 29l-44 122h53l51 -94q8 -17 8 -44q0 -39 -29.5 -70t-73.5 -31q-41 0 -71 32.5t-30 83.5l67 -4q-1 -14 3 -23z" />
    <glyph glyph-name="onesuperior" unicode="&#xb9;" horiz-adv-x="209" 
d="M91 431v297l-67 -33v60l132 70v-394h-65z" />
    <glyph glyph-name="ordmasculine" unicode="&#xba;" horiz-adv-x="474" 
d="M235 317q-72 0 -122 48.5t-50 124.5q0 75 50 122.5t122 47.5t122 -47.5t50 -122.5q0 -76 -50 -124.5t-122 -48.5zM235 383q44 0 74.5 29.5t30.5 77.5q0 46 -30.5 75t-74.5 29q-45 0 -75 -29t-30 -75q0 -48 30 -77.5t75 -29.5zM75 214v51h327v-51h-327z" />
    <glyph glyph-name="guillemotright" unicode="&#xbb;" horiz-adv-x="494" 
d="M134 440l138 -207l-138 -207h-86l138 207l-138 207h86zM311 440l138 -207l-138 -207h-87l138 207l-138 207h87z" />
    <glyph glyph-name="onequarter" unicode="&#xbc;" horiz-adv-x="751" 
d="M618 668l-451 -678h-71l451 678h71zM110 264v297l-67 -33v60l132 70v-394h-65zM657 80v-80h-65v80h-197l208 310h54v-251h54v-59h-54zM499 139h93v143z" />
    <glyph glyph-name="onehalf" unicode="&#xbd;" horiz-adv-x="800" 
d="M618 668l-451 -678h-71l451 678h71zM110 264v297l-67 -33v60l132 70v-394h-65zM505 32l157 189q26 31 26 57q0 24 -18 39.5t-44 15.5q-25 0 -44 -17t-23 -45l-58 14q8 50 43 80t83 30q52 0 88 -33t36 -84q0 -52 -42 -101l-98 -114h139v-63h-245v32z" />
    <glyph glyph-name="threequarters" unicode="&#xbe;" horiz-adv-x="810" 
d="M680 668l-451 -678h-71l451 678h71zM716 80v-80h-65v80h-197l208 310h54v-251h54v-59h-54zM558 139h93v143zM111 564q-6 5 -24.5 19t-24.5 18q17 28 48.5 44t67.5 14q49 -2 80.5 -34t30.5 -75q0 -45 -43 -76q59 -27 58 -98q-1 -54 -42 -86t-97 -31q-37 1 -73 23t-51 56
l55 30q9 -18 30.5 -31t42.5 -14q28 -1 47.5 14.5t20.5 40.5t-14.5 44t-45.5 19h-52v60h46q37 0 47 41q2 22 -11.5 38t-40.5 16q-32 0 -55 -32z" />
    <glyph glyph-name="questiondown" unicode="&#xbf;" horiz-adv-x="476" 
d="M241 231l2 51h100v-51q0 -39 -7.5 -65t-25 -42.5t-34.5 -26.5t-48 -25.5t-53 -30.5q-40 -28 -40 -75q0 -41 31 -67t74 -26q42 0 71.5 29.5t29.5 77.5h99q0 -94 -57.5 -151.5t-142.5 -57.5q-87 0 -147 53.5t-60 141.5q0 70 40 120t102 69q34 10 50 26.5t16 49.5zM363 410
q0 -29 -21 -48.5t-50 -19.5q-30 0 -50.5 19.5t-20.5 48.5t20.5 48t50.5 19q29 0 50 -19t21 -48z" />
    <glyph glyph-name="Agrave" unicode="&#xc0;" horiz-adv-x="647" 
d="M529 0l-66 172h-278l-66 -172h-113l260 689h115l260 -689h-112zM324 556l-103 -289h206zM156 920h116l100 -158h-90z" />
    <glyph glyph-name="Aacute" unicode="&#xc1;" horiz-adv-x="647" 
d="M463 172l66 -172h112l-260 689h-115l-260 -689h113l66 172h278zM221 267l103 289l103 -289h-206zM377 920h116l-126 -158h-90z" />
    <glyph glyph-name="Acircumflex" unicode="&#xc2;" horiz-adv-x="647" 
d="M529 0l-66 172h-278l-66 -172h-113l260 689h115l260 -689h-112zM324 556l-103 -289h206zM271 921h104l110 -158h-87l-76 88l-75 -88h-86z" />
    <glyph glyph-name="Atilde" unicode="&#xc3;" horiz-adv-x="647" 
d="M529 0l-66 172h-278l-66 -172h-113l260 689h115l260 -689h-112zM324 556l-103 -289h206zM279 821q-9 0 -17.5 -11t-9.5 -33h-65q3 63 30 91.5t62 28.5q26 0 52.5 -20.5t35.5 -20.5q10 0 18.5 10t9.5 31h64q-3 -62 -30 -89.5t-62 -27.5q-24 0 -51.5 20.5t-36.5 20.5z" />
    <glyph glyph-name="Adieresis" unicode="&#xc4;" horiz-adv-x="647" 
d="M463 172l66 -172h112l-260 689h-115l-260 -689h113l66 172h278zM221 267l103 289l103 -289h-206zM173 844q0 26 19 43.5t46 17.5q26 0 44.5 -17.5t18.5 -43.5t-18.5 -44t-44.5 -18q-27 0 -46 18t-19 44zM344 844q0 26 19 43.5t46 17.5t45.5 -17.5t18.5 -43.5t-19 -44
t-45 -18q-27 0 -46 18t-19 44z" />
    <glyph glyph-name="Aring" unicode="&#xc5;" horiz-adv-x="647" 
d="M463 172l66 -172h112l-260 689h-115l-260 -689h113l66 172h278zM221 267l103 289l103 -289h-206zM214 860q0 47 31.5 79t76.5 32q47 0 79 -32t32 -79q0 -45 -32.5 -76.5t-78.5 -31.5q-45 0 -76.5 31.5t-31.5 76.5zM270 860q0 -21 15 -36.5t37 -15.5t38.5 15.5t16.5 36.5
q0 23 -16 39t-39 16q-22 0 -37 -16t-15 -39z" />
    <glyph glyph-name="AE" unicode="&#xc6;" horiz-adv-x="931" 
d="M428 689h441v-101h-307v-199h269v-101h-269v-187h318v-101h-424v0v169h-230l-108 -169h-125zM456 543l-168 -272h168v272z" />
    <glyph glyph-name="Ccedilla" unicode="&#xc7;" horiz-adv-x="685" 
d="M321 -111q6 -14 19 -20t28 -2q15 7 20 21t-1 29l-27 75q-133 13 -222.5 113.5t-89.5 237.5q0 147 101 250.5t247 103.5q81 0 150 -33t116 -91l-82 -64q-76 86 -184 86q-102 0 -172 -73.5t-70 -178.5t70 -178t172 -73q116 0 186 90l82 -65q-90 -115 -242 -126l25 -46
q8 -17 8 -44q0 -39 -29.5 -70t-73.5 -31q-41 0 -71 32.5t-30 83.5l67 -4q-1 -14 3 -23z" />
    <glyph glyph-name="Egrave" unicode="&#xc8;" horiz-adv-x="567" 
d="M90 0v689h415v-98h-309v-204h270v-97h-270v-193h319v-97h-425zM159 920h116l100 -158h-90z" />
    <glyph glyph-name="Eacute" unicode="&#xc9;" horiz-adv-x="567" 
d="M90 689v-689h425v97h-319v193h270v97h-270v204h309v98h-415zM316 920h116l-126 -158h-90z" />
    <glyph glyph-name="Ecircumflex" unicode="&#xca;" horiz-adv-x="567" 
d="M90 0v689h415v-98h-309v-204h270v-97h-270v-193h319v-97h-425zM230 921h104l110 -158h-87l-76 88l-75 -88h-86z" />
    <glyph glyph-name="Edieresis" unicode="&#xcb;" horiz-adv-x="567" 
d="M90 689v-689h425v97h-319v193h270v97h-270v204h309v98h-415zM142 844q0 26 19 43.5t46 17.5q26 0 44.5 -17.5t18.5 -43.5t-18.5 -44t-44.5 -18q-27 0 -46 18t-19 44zM313 844q0 26 19 43.5t46 17.5t45.5 -17.5t18.5 -43.5t-19 -44t-45 -18q-27 0 -46 18t-19 44z" />
    <glyph glyph-name="Igrave" unicode="&#xcc;" horiz-adv-x="286" 
d="M90 0v689h106v-689h-106zM-26 920h116l100 -158h-90z" />
    <glyph glyph-name="Iacute" unicode="&#xcd;" horiz-adv-x="286" 
d="M90 689v-689h106v689h-106zM193 920h116l-126 -158h-90z" />
    <glyph glyph-name="Icircumflex" unicode="&#xce;" horiz-adv-x="286" 
d="M90 0v689h106v-689h-106zM91 921h104l110 -158h-87l-76 88l-75 -88h-86z" />
    <glyph glyph-name="Idieresis" unicode="&#xcf;" horiz-adv-x="286" 
d="M90 689v-689h106v689h-106zM-7 844q0 26 19 43.5t46 17.5q26 0 44.5 -17.5t18.5 -43.5t-18.5 -44t-44.5 -18q-27 0 -46 18t-19 44zM164 844q0 26 19 43.5t46 17.5t45.5 -17.5t18.5 -43.5t-19 -44t-45 -18q-27 0 -46 18t-19 44z" />
    <glyph glyph-name="Eth" unicode="&#xd0;" horiz-adv-x="723" 
d="M6 304v76h93v309h265q144 0 226 -97t82 -249q0 -151 -82 -247t-226 -96h-265v304h-93zM206 304v-202h158q97 0 149.5 67.5t52.5 173.5q0 107 -52.5 175.5t-149.5 68.5h-158v-207h154v-76h-154z" />
    <glyph glyph-name="Ntilde" unicode="&#xd1;" horiz-adv-x="681" 
d="M591 689v-689h-99l-296 493v-493h-106v689h102l293 -489v489h106zM296 821q-9 0 -17.5 -11t-9.5 -33h-65q3 63 30 91.5t62 28.5q26 0 52.5 -20.5t35.5 -20.5q10 0 18.5 10t9.5 31h64q-3 -62 -30 -89.5t-62 -27.5q-24 0 -51 20.5t-37 20.5z" />
    <glyph glyph-name="Ograve" unicode="&#xd2;" horiz-adv-x="792" 
d="M153 343q0 -104 70 -176.5t172 -72.5t172.5 72.5t70.5 176.5t-70.5 177t-172.5 73t-172 -73t-70 -177zM47 343q0 148 101 251t247 103q147 0 248.5 -103t101.5 -251q0 -147 -101.5 -250t-248.5 -103q-146 0 -247 103t-101 250zM223 920h116l100 -158h-90z" />
    <glyph glyph-name="Oacute" unicode="&#xd3;" horiz-adv-x="792" 
d="M153 343q0 104 70 177t172 73t172.5 -73t70.5 -177t-70.5 -176.5t-172.5 -72.5t-172 72.5t-70 176.5zM47 343q0 -147 101 -250t247 -103q147 0 248.5 103t101.5 250q0 148 -101.5 251t-248.5 103q-146 0 -247 -103t-101 -251zM448 920h116l-126 -158h-90z" />
    <glyph glyph-name="Ocircumflex" unicode="&#xd4;" horiz-adv-x="792" 
d="M153 343q0 -104 70 -176.5t172 -72.5t172.5 72.5t70.5 176.5t-70.5 177t-172.5 73t-172 -73t-70 -177zM47 343q0 148 101 251t247 103q147 0 248.5 -103t101.5 -251q0 -147 -101.5 -250t-248.5 -103q-146 0 -247 103t-101 250zM344 921h104l110 -158h-87l-76 88l-75 -88
h-86z" />
    <glyph glyph-name="Otilde" unicode="&#xd5;" horiz-adv-x="792" 
d="M153 343q0 -104 70 -176.5t172 -72.5t172.5 72.5t70.5 176.5t-70.5 177t-172.5 73t-172 -73t-70 -177zM47 343q0 148 101 251t247 103q147 0 248.5 -103t101.5 -251q0 -147 -101.5 -250t-248.5 -103q-146 0 -247 103t-101 250zM352 821q-9 0 -17.5 -11t-9.5 -33h-65
q3 63 30 91.5t62 28.5q26 0 52.5 -20.5t35.5 -20.5q10 0 18.5 10t9.5 31h64q-3 -62 -30 -89.5t-62 -27.5q-24 0 -51 20.5t-37 20.5z" />
    <glyph glyph-name="Odieresis" unicode="&#xd6;" horiz-adv-x="792" 
d="M153 343q0 104 70 177t172 73t172.5 -73t70.5 -177t-70.5 -176.5t-172.5 -72.5t-172 72.5t-70 176.5zM47 343q0 -147 101 -250t247 -103q147 0 248.5 103t101.5 250q0 148 -101.5 251t-248.5 103q-146 0 -247 -103t-101 -251zM246 844q0 26 19 43.5t46 17.5
q26 0 44.5 -17.5t18.5 -43.5t-18.5 -44t-44.5 -18q-27 0 -46 18t-19 44zM417 844q0 26 19 43.5t46 17.5t45.5 -17.5t18.5 -43.5t-19 -44t-45 -18q-27 0 -46 18t-19 44z" />
    <glyph glyph-name="multiply" unicode="&#xd7;" horiz-adv-x="495" 
d="M312 269l122 -122l-63 -65l-123 123l-121 -121l-65 63l123 122l-123 122l64 63l122 -121l123 123l63 -65z" />
    <glyph glyph-name="Oslash" unicode="&#xd8;" horiz-adv-x="790" 
d="M176 66l-80 -82l-47 47l80 82q-83 99 -83 230q0 148 101 251t247 103q127 0 224 -81l79 81l47 -46l-80 -82q80 -99 80 -226q0 -147 -101.5 -250t-248.5 -103q-99 0 -183 52q-20 12 -35 24zM152 343q0 -86 50 -154l342 351q-64 53 -150 53q-102 0 -172 -73t-70 -177z
M394 94q102 0 172.5 72.5t70.5 176.5q0 83 -48 149l-340 -350q62 -48 145 -48z" />
    <glyph glyph-name="Ugrave" unicode="&#xd9;" horiz-adv-x="677" 
d="M339 92q61 0 104.5 41t43.5 106v450h107v-450q0 -110 -74.5 -179.5t-180.5 -69.5q-107 0 -181.5 69.5t-74.5 179.5v450h108v-450q0 -65 43.5 -106t104.5 -41zM182 920h116l100 -158h-90z" />
    <glyph glyph-name="Uacute" unicode="&#xda;" horiz-adv-x="677" 
d="M339 92q61 0 104.5 41t43.5 106v450h107v-450q0 -110 -74.5 -179.5t-180.5 -69.5q-107 0 -181.5 69.5t-74.5 179.5v450h108v-450q0 -65 43.5 -106t104.5 -41zM371 920h116l-126 -158h-90z" />
    <glyph glyph-name="Ucircumflex" unicode="&#xdb;" horiz-adv-x="677" 
d="M339 92q61 0 104.5 41t43.5 106v450h107v-450q0 -110 -74.5 -179.5t-180.5 -69.5q-107 0 -181.5 69.5t-74.5 179.5v450h108v-450q0 -65 43.5 -106t104.5 -41zM286 921h104l110 -158h-87l-76 88l-75 -88h-86z" />
    <glyph glyph-name="Udieresis" unicode="&#xdc;" horiz-adv-x="677" 
d="M339 92q61 0 104.5 41t43.5 106v450h107v-450q0 -110 -74.5 -179.5t-180.5 -69.5q-107 0 -181.5 69.5t-74.5 179.5v450h108v-450q0 -65 43.5 -106t104.5 -41zM188 844q0 26 19 43.5t46 17.5q26 0 44.5 -17.5t18.5 -43.5t-18.5 -44t-44.5 -18q-27 0 -46 18t-19 44z
M359 844q0 26 19 43.5t46 17.5t45.5 -17.5t18.5 -43.5t-19 -44t-45 -18q-27 0 -46 18t-19 44z" />
    <glyph glyph-name="Yacute" unicode="&#xdd;" horiz-adv-x="634" 
d="M371 0h-109v316l-262 373h127l190 -274l192 274h127l-265 -374v-315zM350 920h116l-126 -158h-90z" />
    <glyph glyph-name="Thorn" unicode="&#xde;" horiz-adv-x="572" 
d="M434 353q0 53 -33.5 85t-82.5 34h-122v-239h128q46 0 78 33.5t32 86.5zM326 135h-130v-135h-106v689h106v-120h130q91 0 152.5 -59.5t61.5 -155.5q0 -98 -61.5 -158.5t-152.5 -60.5z" />
    <glyph glyph-name="germandbls" unicode="&#xdf;" horiz-adv-x="565" 
d="M211 3l7 97q40 -13 74 -13q56 0 94.5 40t38.5 93q0 50 -38.5 91t-95.5 41h-35v86h31q35 0 59.5 25t24.5 59t-26.5 55.5t-66.5 22.5q-50 0 -78.5 -35.5t-28.5 -85.5v-479h-99v490q0 97 55.5 152t143.5 55q84 0 141 -48t57 -122t-63 -120q51 -25 84 -76.5t33 -112.5
q0 -97 -64.5 -162.5t-165.5 -65.5q-38 -2 -82 13z" />
    <glyph glyph-name="agrave" unicode="&#xe0;" horiz-adv-x="610" 
d="M436 0v67q-22 -36 -66.5 -56.5t-90.5 -20.5q-98 0 -167.5 68t-69.5 176t69.5 175.5t167.5 67.5q46 0 90 -19.5t67 -56.5v66h102v-467h-102zM148 235q0 -63 41.5 -104t101.5 -41t102 39.5t42 105.5q0 65 -43.5 103.5t-100.5 38.5q-60 0 -101.5 -39.5t-41.5 -102.5z
M159 698h116l100 -158h-90z" />
    <glyph glyph-name="aacute" unicode="&#xe1;" horiz-adv-x="610" 
d="M436 0v67q-22 -36 -66.5 -56.5t-90.5 -20.5q-98 0 -167.5 68t-69.5 176t69.5 175.5t167.5 67.5q46 0 90 -19.5t67 -56.5v66h102v-467h-102zM148 235q0 -63 41.5 -104t101.5 -41t102 39.5t42 105.5q0 65 -43.5 103.5t-100.5 38.5q-60 0 -101.5 -39.5t-41.5 -102.5z
M333 698h116l-126 -158h-90z" />
    <glyph glyph-name="acircumflex" unicode="&#xe2;" horiz-adv-x="610" 
d="M436 0v67q-22 -36 -66.5 -56.5t-90.5 -20.5q-98 0 -167.5 68t-69.5 176t69.5 175.5t167.5 67.5q46 0 90 -19.5t67 -56.5v66h102v-467h-102zM148 235q0 -63 41.5 -104t101.5 -41t102 39.5t42 105.5q0 65 -43.5 103.5t-100.5 38.5q-60 0 -101.5 -39.5t-41.5 -102.5z
M253 699h104l110 -158h-87l-76 88l-75 -88h-86z" />
    <glyph glyph-name="atilde" unicode="&#xe3;" horiz-adv-x="610" 
d="M436 0v67q-22 -36 -66.5 -56.5t-90.5 -20.5q-98 0 -167.5 68t-69.5 176t69.5 175.5t167.5 67.5q46 0 90 -19.5t67 -56.5v66h102v-467h-102zM148 235q0 -63 41.5 -104t101.5 -41t102 39.5t42 105.5q0 65 -43.5 103.5t-100.5 38.5q-60 0 -101.5 -39.5t-41.5 -102.5z
M261 599q-9 0 -17.5 -11t-9.5 -33h-65q3 63 30 91.5t62 28.5q26 0 52.5 -20.5t35.5 -20.5q10 0 18.5 10t9.5 31h64q-3 -62 -30 -89.5t-62 -27.5q-25 0 -52 20.5t-36 20.5z" />
    <glyph glyph-name="adieresis" unicode="&#xe4;" horiz-adv-x="610" 
d="M436 0v67q-22 -36 -66.5 -56.5t-90.5 -20.5q-98 0 -167.5 68t-69.5 176t69.5 175.5t167.5 67.5q46 0 90 -19.5t67 -56.5v66h102v-467h-102zM148 235q0 -63 41.5 -104t101.5 -41t102 39.5t42 105.5q0 65 -43.5 103.5t-100.5 38.5q-60 0 -101.5 -39.5t-41.5 -102.5z
M155 622q0 26 19 43.5t46 17.5q26 0 44.5 -17.5t18.5 -43.5t-18.5 -44t-44.5 -18q-27 0 -46 18t-19 44zM326 622q0 26 19 43.5t46 17.5t45.5 -17.5t18.5 -43.5t-19 -44t-45 -18q-27 0 -46 18t-19 44z" />
    <glyph glyph-name="aring" unicode="&#xe5;" horiz-adv-x="610" 
d="M436 0v67q-22 -36 -66.5 -56.5t-90.5 -20.5q-98 0 -167.5 68t-69.5 176t69.5 175.5t167.5 67.5q46 0 90 -19.5t67 -56.5v66h102v-467h-102zM148 235q0 -63 41.5 -104t101.5 -41t102 39.5t42 105.5q0 65 -43.5 103.5t-100.5 38.5q-60 0 -101.5 -39.5t-41.5 -102.5z
M195 638q0 47 31.5 79t76.5 32q47 0 79 -32t32 -79q0 -45 -32.5 -76.5t-78.5 -31.5q-45 0 -76.5 31.5t-31.5 76.5zM251 638q0 -21 15 -36.5t37 -15.5t38.5 15.5t16.5 36.5q0 23 -16 39t-39 16q-22 0 -37 -16t-15 -39z" />
    <glyph glyph-name="ae" unicode="&#xe6;" horiz-adv-x="969" 
d="M560 272h270q-7 53 -43 84t-89 31q-55 0 -93 -31t-45 -84zM148 235q0 -63 41.5 -104t101.5 -41t102 39.5t42 105.5q0 65 -43.5 103.5t-100.5 38.5q-60 0 -101.5 -39.5t-41.5 -102.5zM932 235q0 -18 -2 -38h-370q7 -54 46.5 -85.5t96.5 -31.5q40 0 74.5 17.5t52.5 49.5
l84 -37q-30 -59 -88 -89.5t-128 -30.5q-98 0 -163 63v-53h-99v67q-22 -36 -66.5 -56.5t-90.5 -20.5q-98 0 -167.5 68t-69.5 176t69.5 175.5t167.5 67.5q46 0 90 -19.5t67 -56.5v66h99v-52q65 62 163 62q102 0 168 -66.5t66 -175.5z" />
    <glyph glyph-name="ccedilla" unicode="&#xe7;" horiz-adv-x="515" 
d="M321 -8l26 -47q8 -14 8 -44q0 -39 -29.5 -70t-73.5 -31q-41 0 -71 32.5t-30 83.5l67 -4q-1 -14 3 -23q6 -14 19 -20t28 -2q15 7 20 21t-1 29l-27 75q-93 11 -155 77.5t-62 165.5q0 108 72.5 175t176.5 67q116 0 185 -81l-80 -64q-39 45 -105 45q-61 0 -104 -39.5
t-43 -102.5q0 -64 43.5 -105t103.5 -41q65 0 105 46l81 -63q-58 -69 -157 -80z" />
    <glyph glyph-name="egrave" unicode="&#xe8;" horiz-adv-x="553" 
d="M516 235q0 -28 -1 -38h-371q7 -54 46.5 -85.5t96.5 -31.5q40 0 74.5 17.5t52.5 49.5l84 -37q-30 -59 -88 -89.5t-128 -30.5q-102 0 -171 68t-69 177t69 175.5t171 66.5t168 -66.5t66 -175.5zM144 272h271q-7 54 -43.5 84.5t-89.5 30.5q-55 0 -93 -31t-45 -84zM121 698
h116l100 -158h-90z" />
    <glyph glyph-name="eacute" unicode="&#xe9;" horiz-adv-x="553" 
d="M516 235q0 109 -66 175.5t-168 66.5t-171 -66.5t-69 -175.5t69 -177t171 -68q70 0 128 30.5t88 89.5l-84 37q-18 -32 -52.5 -49.5t-74.5 -17.5q-57 0 -96.5 31.5t-46.5 85.5h371q1 10 1 38zM144 272q7 53 45 84t93 31q53 0 89.5 -30.5t43.5 -84.5h-271zM317 698h116
l-126 -158h-90z" />
    <glyph glyph-name="ecircumflex" unicode="&#xea;" horiz-adv-x="553" 
d="M516 235q0 -28 -1 -38h-371q7 -54 46.5 -85.5t96.5 -31.5q40 0 74.5 17.5t52.5 49.5l84 -37q-30 -59 -88 -89.5t-128 -30.5q-102 0 -171 68t-69 177t69 175.5t171 66.5t168 -66.5t66 -175.5zM144 272h271q-7 54 -43.5 84.5t-89.5 30.5q-55 0 -93 -31t-45 -84zM227 699
h104l110 -158h-87l-76 88l-75 -88h-86z" />
    <glyph glyph-name="edieresis" unicode="&#xeb;" horiz-adv-x="553" 
d="M516 235q0 109 -66 175.5t-168 66.5t-171 -66.5t-69 -175.5t69 -177t171 -68q70 0 128 30.5t88 89.5l-84 37q-18 -32 -52.5 -49.5t-74.5 -17.5q-57 0 -96.5 31.5t-46.5 85.5h371q1 10 1 38zM144 272q7 53 45 84t93 31q53 0 89.5 -30.5t43.5 -84.5h-271zM129 622
q0 26 19 43.5t46 17.5q26 0 44.5 -17.5t18.5 -43.5t-18.5 -44t-44.5 -18q-27 0 -46 18t-19 44zM300 622q0 26 19 43.5t46 17.5t45.5 -17.5t18.5 -43.5t-19 -44t-45 -18q-27 0 -46 18t-19 44z" />
    <glyph glyph-name="igrave" unicode="&#xec;" horiz-adv-x="246" 
d="M72 467h102v-467h-102v467zM-45 698h116l100 -158h-90z" />
    <glyph glyph-name="iacute" unicode="&#xed;" horiz-adv-x="246" 
d="M174 467h-102v-467h102v467zM175 698h116l-126 -158h-90z" />
    <glyph glyph-name="icircumflex" unicode="&#xee;" horiz-adv-x="246" 
d="M72 467h102v-467h-102v467zM61 699h104l110 -158h-87l-76 88l-75 -88h-86z" />
    <glyph glyph-name="idieresis" unicode="&#xef;" horiz-adv-x="246" 
d="M174 467h-102v-467h102v467zM-37 622q0 26 19 43.5t46 17.5q26 0 44.5 -17.5t18.5 -43.5t-18.5 -44t-44.5 -18q-27 0 -46 18t-19 44zM134 622q0 26 19 43.5t46 17.5t45.5 -17.5t18.5 -43.5t-19 -44t-45 -18q-27 0 -46 18t-19 44z" />
    <glyph glyph-name="eth" unicode="&#xf0;" horiz-adv-x="572" 
d="M317 593l166 -212q46 -63 46 -146q0 -108 -70.5 -176.5t-172.5 -68.5t-173 68.5t-71 176.5q0 104 67 171.5t160 67.5q22 0 39 -7l-70 80l-85 -49l-31 47l80 47l-75 97h112l41 -51l70 39l36 -42zM286 89q60 0 102.5 41t42.5 105t-42 103.5t-103 39.5t-103 -39.5
t-42 -103.5q0 -65 42 -105.5t103 -40.5z" />
    <glyph glyph-name="ntilde" unicode="&#xf1;" horiz-adv-x="563" 
d="M175 251v-251h-103v467h103v-70q19 38 60 59t83 21q85 0 131.5 -53t46.5 -152v-272h-103v260q0 55 -26.5 85.5t-71.5 30.5q-51 0 -85.5 -30.5t-34.5 -94.5zM240 599q-9 0 -17.5 -11t-9.5 -33h-65q3 63 30 91.5t62 28.5q26 0 52.5 -20.5t35.5 -20.5q10 0 18.5 10t9.5 31
h64q-3 -62 -30 -89.5t-62 -27.5q-24 0 -51 20.5t-37 20.5z" />
    <glyph glyph-name="ograve" unicode="&#xf2;" horiz-adv-x="572" 
d="M285 90q60 0 101 40t41 105q0 63 -41 102t-101 39q-59 0 -100 -39t-41 -102q0 -64 41 -104.5t100 -40.5zM285 -10q-102 0 -172.5 68.5t-70.5 176.5t70.5 175t172.5 67q103 0 174 -67t71 -175t-71.5 -176.5t-173.5 -68.5zM109 698h116l100 -158h-90z" />
    <glyph glyph-name="oacute" unicode="&#xf3;" horiz-adv-x="572" 
d="M285 90q-59 0 -100 40.5t-41 104.5q0 63 41 102t100 39q60 0 101 -39t41 -102q0 -65 -41 -105t-101 -40zM285 -10q102 0 173.5 68.5t71.5 176.5t-71 175t-174 67q-102 0 -172.5 -67t-70.5 -175t70.5 -176.5t172.5 -68.5zM337 698h116l-126 -158h-90z" />
    <glyph glyph-name="ocircumflex" unicode="&#xf4;" horiz-adv-x="572" 
d="M285 90q60 0 101 40t41 105q0 63 -41 102t-101 39q-59 0 -100 -39t-41 -102q0 -64 41 -104.5t100 -40.5zM285 -10q-102 0 -172.5 68.5t-70.5 176.5t70.5 175t172.5 67q103 0 174 -67t71 -175t-71.5 -176.5t-173.5 -68.5zM234 699h104l110 -158h-87l-76 88l-75 -88h-86z
" />
    <glyph glyph-name="otilde" unicode="&#xf5;" horiz-adv-x="572" 
d="M285 90q60 0 101 40t41 105q0 63 -41 102t-101 39q-59 0 -100 -39t-41 -102q0 -64 41 -104.5t100 -40.5zM285 -10q-102 0 -172.5 68.5t-70.5 176.5t70.5 175t172.5 67q103 0 174 -67t71 -175t-71.5 -176.5t-173.5 -68.5zM242 599q-9 0 -17.5 -11t-9.5 -33h-65
q3 63 30 91.5t62 28.5q26 0 52.5 -20.5t35.5 -20.5q10 0 18.5 10t9.5 31h64q-3 -62 -30 -89.5t-62 -27.5q-24 0 -51 20.5t-37 20.5z" />
    <glyph glyph-name="odieresis" unicode="&#xf6;" horiz-adv-x="572" 
d="M285 90q-59 0 -100 40.5t-41 104.5q0 63 41 102t100 39q60 0 101 -39t41 -102q0 -65 -41 -105t-101 -40zM285 -10q102 0 173.5 68.5t71.5 176.5t-71 175t-174 67q-102 0 -172.5 -67t-70.5 -175t70.5 -176.5t172.5 -68.5zM136 622q0 26 19 43.5t46 17.5q26 0 44.5 -17.5
t18.5 -43.5t-18.5 -44t-44.5 -18q-27 0 -46 18t-19 44zM307 622q0 26 19 43.5t46 17.5t45.5 -17.5t18.5 -43.5t-19 -44t-45 -18q-27 0 -46 18t-19 44z" />
    <glyph glyph-name="divide" unicode="&#xf7;" horiz-adv-x="548" 
d="M205 84q0 28 20.5 47t48.5 19t48.5 -19t20.5 -47t-20.5 -47t-48.5 -19t-48.5 19t-20.5 47zM205 424q0 28 20.5 46.5t48.5 18.5t48.5 -18.5t20.5 -46.5t-20.5 -47t-48.5 -19t-48.5 19t-20.5 47zM60 209h428v86h-428v-86z" />
    <glyph glyph-name="oslash" unicode="&#xf8;" horiz-adv-x="572" 
d="M285 -10q-82 0 -143 43l-57 -58l-47 47l56 57q-52 65 -52 156q0 108 70.5 175t172.5 67q83 0 150 -48l51 52l47 -46l-51 -52q48 -64 48 -148q0 -108 -71.5 -176.5t-173.5 -68.5zM285 376q-59 0 -100 -39t-41 -102q0 -49 22 -81l197 201q-34 21 -78 21zM285 90
q60 0 101 40t41 105q0 39 -18 72l-194 -199q30 -18 70 -18z" />
    <glyph glyph-name="ugrave" unicode="&#xf9;" horiz-adv-x="562" 
d="M387 216v251h103v-467h-103v68q-19 -37 -59 -57.5t-80 -20.5q-86 0 -134 53.5t-47 151.5v272h103v-260q0 -56 27 -86.5t70 -30.5q51 0 85.5 30.5t34.5 95.5zM122 698h116l100 -158h-90z" />
    <glyph glyph-name="uacute" unicode="&#xfa;" horiz-adv-x="562" 
d="M387 216v251h103v-467h-103v68q-19 -37 -59 -57.5t-80 -20.5q-86 0 -134 53.5t-47 151.5v272h103v-260q0 -56 27 -86.5t70 -30.5q51 0 85.5 30.5t34.5 95.5zM313 698h116l-126 -158h-90z" />
    <glyph glyph-name="ucircumflex" unicode="&#xfb;" horiz-adv-x="562" 
d="M387 216v251h103v-467h-103v68q-19 -37 -59 -57.5t-80 -20.5q-86 0 -134 53.5t-47 151.5v272h103v-260q0 -56 27 -86.5t70 -30.5q51 0 85.5 30.5t34.5 95.5zM226 699h104l110 -158h-87l-76 88l-75 -88h-86z" />
    <glyph glyph-name="udieresis" unicode="&#xfc;" horiz-adv-x="562" 
d="M387 216v251h103v-467h-103v68q-19 -37 -59 -57.5t-80 -20.5q-86 0 -134 53.5t-47 151.5v272h103v-260q0 -56 27 -86.5t70 -30.5q51 0 85.5 30.5t34.5 95.5zM128 622q0 26 19 43.5t46 17.5q26 0 44.5 -17.5t18.5 -43.5t-18.5 -44t-44.5 -18q-27 0 -46 18t-19 44zM299 622
q0 26 19 43.5t46 17.5t45.5 -17.5t18.5 -43.5t-19 -44t-45 -18q-27 0 -46 18t-19 44z" />
    <glyph glyph-name="yacute" unicode="&#xfd;" horiz-adv-x="507" 
d="M205 -228l289 695h-110l-131 -320l-130 320h-110l185 -445l-101 -250h108zM275 698h116l-126 -158h-90z" />
    <glyph glyph-name="thorn" unicode="&#xfe;" horiz-adv-x="601" 
d="M176 234q0 -66 41 -105t100 -39t98.5 40.5t39.5 103.5t-39.5 102.5t-98.5 39.5q-56 0 -98.5 -38.5t-42.5 -103.5zM175 -217h-103v937h103v-311q22 33 62.5 50.5t85.5 17.5q100 0 167.5 -67.5t67.5 -176.5q0 -108 -67.5 -175.5t-167.5 -67.5q-45 0 -85.5 18t-62.5 51v-276
z" />
    <glyph glyph-name="ydieresis" unicode="&#xff;" horiz-adv-x="507" 
d="M205 -228l289 695h-110l-131 -320l-130 320h-110l185 -445l-101 -250h108zM106 632q0 26 19 43.5t46 17.5q26 0 44.5 -17.5t18.5 -43.5t-18.5 -44t-44.5 -18q-27 0 -46 18t-19 44zM277 632q0 26 19 43.5t46 17.5t45.5 -17.5t18.5 -43.5t-19 -44t-45 -18q-27 0 -46 18
t-19 44z" />
    <glyph glyph-name="Amacron" unicode="&#x100;" horiz-adv-x="647" 
d="M529 0l-66 172h-278l-66 -172h-113l260 689h115l260 -689h-112zM324 556l-103 -289h206zM194 794v81h258v-81h-258z" />
    <glyph glyph-name="amacron" unicode="&#x101;" horiz-adv-x="610" 
d="M436 0v67q-22 -36 -66.5 -56.5t-90.5 -20.5q-98 0 -167.5 68t-69.5 176t69.5 175.5t167.5 67.5q46 0 90 -19.5t67 -56.5v66h102v-467h-102zM148 235q0 -63 41.5 -104t101.5 -41t102 39.5t42 105.5q0 65 -43.5 103.5t-100.5 38.5q-60 0 -101.5 -39.5t-41.5 -102.5z
M176 572v81h258v-81h-258z" />
    <glyph glyph-name="Abreve" unicode="&#x102;" horiz-adv-x="647" 
d="M463 172l66 -172h112l-260 689h-115l-260 -689h113l66 172h278zM221 267l103 289l103 -289h-206zM192 896h77q0 -26 14 -41.5t40 -15.5q25 0 39.5 17t14.5 40h78q0 -59 -36 -93.5t-96 -34.5q-65 0 -98 37t-33 91z" />
    <glyph glyph-name="abreve" unicode="&#x103;" horiz-adv-x="610" 
d="M436 0v67q-22 -36 -66.5 -56.5t-90.5 -20.5q-98 0 -167.5 68t-69.5 176t69.5 175.5t167.5 67.5q46 0 90 -19.5t67 -56.5v66h102v-467h-102zM148 235q0 -63 41.5 -104t101.5 -41t102 39.5t42 105.5q0 65 -43.5 103.5t-100.5 38.5q-60 0 -101.5 -39.5t-41.5 -102.5z
M173 674h77q0 -26 14 -41.5t40 -15.5q25 0 39.5 17t14.5 40h78q0 -59 -36 -93.5t-96 -34.5q-65 0 -98 37t-33 91z" />
    <glyph glyph-name="Aogonek" unicode="&#x104;" horiz-adv-x="647" 
d="M589 0l-30 -83q-6 -15 -1 -29t20 -21q15 -4 28 2t19 20l3 23l67 4q0 -51 -30 -83.5t-71 -32.5q-44 0 -73.5 31t-29.5 70q0 27 8 44l30 55l-66 172h-278l-66 -172h-113l260 689h115l260 -689h-52zM324 556l-103 -289h206z" />
    <glyph glyph-name="aogonek" unicode="&#x105;" horiz-adv-x="610" 
d="M532 -111l3 23l67 4q0 -51 -30 -83.5t-71 -32.5q-44 0 -73.5 31t-29.5 70q0 27 8 44l30 55v67q-22 -36 -66.5 -56.5t-90.5 -20.5q-98 0 -167.5 68t-69.5 176t69.5 175.5t167.5 67.5q46 0 90 -19.5t67 -56.5v66h102v-467h-42l-30 -83q-6 -15 -1 -29t20 -21q15 -4 28 2
t19 20zM148 235q0 -63 41.5 -104t101.5 -41t102 39.5t42 105.5q0 65 -43.5 103.5t-100.5 38.5q-60 0 -101.5 -39.5t-41.5 -102.5z" />
    <glyph glyph-name="Cacute" unicode="&#x106;" horiz-adv-x="684" 
d="M581 182q-70 -90 -186 -90q-102 0 -172 73t-70 178t70 178.5t172 73.5q108 0 184 -86l82 64q-47 58 -116 91t-150 33q-146 0 -247 -103.5t-101 -250.5t101 -250t247 -103q83 0 152.5 33.5t115.5 93.5zM427 920h116l-126 -158h-90z" />
    <glyph glyph-name="cacute" unicode="&#x107;" horiz-adv-x="514" 
d="M42 235q0 108 72.5 175t176.5 67q116 0 185 -81l-80 -64q-39 45 -105 45q-61 0 -104 -39.5t-43 -102.5q0 -64 43.5 -105t103.5 -41q65 0 105 46l81 -63q-69 -82 -186 -82q-103 0 -176 68.5t-73 176.5zM317 698h116l-126 -158h-90z" />
    <glyph glyph-name="Ccircumflex" unicode="&#x108;" horiz-adv-x="684" 
d="M581 182l82 -65q-46 -60 -115.5 -93.5t-152.5 -33.5q-146 0 -247 103t-101 250t101 250.5t247 103.5q81 0 150 -33t116 -91l-82 -64q-76 86 -184 86q-102 0 -172 -73.5t-70 -178.5t70 -178t172 -73q116 0 186 90zM336 921h104l110 -158h-87l-76 88l-75 -88h-86z" />
    <glyph glyph-name="ccircumflex" unicode="&#x109;" horiz-adv-x="514" 
d="M42 235q0 108 72.5 175t176.5 67q116 0 185 -81l-80 -64q-39 45 -105 45q-61 0 -104 -39.5t-43 -102.5q0 -64 43.5 -105t103.5 -41q65 0 105 46l81 -63q-69 -82 -186 -82q-103 0 -176 68.5t-73 176.5zM226 699h104l110 -158h-87l-76 88l-75 -88h-86z" />
    <glyph glyph-name="Cdotaccent" unicode="&#x10a;" horiz-adv-x="684" 
d="M581 182q-70 -90 -186 -90q-102 0 -172 73t-70 178t70 178.5t172 73.5q108 0 184 -86l82 64q-47 58 -116 91t-150 33q-146 0 -247 -103.5t-101 -250.5t101 -250t247 -103q83 0 152.5 33.5t115.5 93.5zM286 852q0 27 19.5 45t46.5 18q28 0 47.5 -18t19.5 -45t-19.5 -45
t-47.5 -18q-27 0 -46.5 18t-19.5 45z" />
    <glyph glyph-name="cdotaccent" unicode="&#x10b;" horiz-adv-x="514" 
d="M42 235q0 108 72.5 175t176.5 67q116 0 185 -81l-80 -64q-39 45 -105 45q-61 0 -104 -39.5t-43 -102.5q0 -64 43.5 -105t103.5 -41q65 0 105 46l81 -63q-69 -82 -186 -82q-103 0 -176 68.5t-73 176.5zM186 630q0 27 19.5 45t46.5 18q28 0 47.5 -18t19.5 -45t-19.5 -45
t-47.5 -18q-27 0 -46.5 18t-19.5 45z" />
    <glyph glyph-name="Ccaron" unicode="&#x10c;" horiz-adv-x="684" 
d="M581 182q-70 -90 -186 -90q-102 0 -172 73t-70 178t70 178.5t172 73.5q108 0 184 -86l82 64q-47 58 -116 91t-150 33q-146 0 -247 -103.5t-101 -250.5t101 -250t247 -103q83 0 152.5 33.5t115.5 93.5zM329 762l-110 157h86l75 -87l76 87h87l-110 -157h-104z" />
    <glyph glyph-name="ccaron" unicode="&#x10d;" horiz-adv-x="514" 
d="M42 235q0 108 72.5 175t176.5 67q116 0 185 -81l-80 -64q-39 45 -105 45q-61 0 -104 -39.5t-43 -102.5q0 -64 43.5 -105t103.5 -41q65 0 105 46l81 -63q-69 -82 -186 -82q-103 0 -176 68.5t-73 176.5zM225 540l-110 157h86l75 -87l76 87h87l-110 -157h-104z" />
    <glyph glyph-name="Dcaron" unicode="&#x10e;" horiz-adv-x="719" 
d="M196 98v492h162q97 0 150.5 -69.5t53.5 -177.5q0 -107 -53 -176t-151 -69h-162zM358 0q144 0 227 96.5t83 246.5q0 151 -83.5 248.5t-226.5 97.5h-268v-689h268zM305 762l-110 157h86l75 -87l76 87h87l-110 -157h-104z" />
    <glyph glyph-name="dcaron" unicode="&#x10f;" horiz-adv-x="645" 
d="M434 0v68q-21 -37 -64.5 -57.5t-93.5 -20.5q-97 0 -165 67.5t-68 175.5q0 109 67.5 176.5t165.5 67.5q51 0 94 -20t64 -57v321h102v-721h-102zM432 235q0 65 -43 103.5t-100 38.5q-60 0 -100 -39.5t-40 -102.5q0 -64 40.5 -104.5t99.5 -40.5q60 0 101.5 39.5t41.5 105.5z
M628 444l-53 22q72 101 71 223h91q-5 -80 -38.5 -147.5t-70.5 -97.5z" />
    <glyph glyph-name="Dcroat" unicode="&#x110;" horiz-adv-x="723" 
d="M6 304v76h93v309h265q144 0 226 -97t82 -249q0 -151 -82 -247t-226 -96h-265v304h-93zM206 304v-202h158q97 0 149.5 67.5t52.5 173.5q0 107 -52.5 175.5t-149.5 68.5h-158v-207h154v-76h-154z" />
    <glyph glyph-name="dcroat" unicode="&#x111;" horiz-adv-x="608" 
d="M284 558v68h150v95h102v-95h76v-68h-76v-558h-102v68q-21 -37 -64.5 -57.5t-93.5 -20.5q-97 0 -165 67.5t-68 175.5q0 109 67.5 176.5t165.5 67.5q51 0 94 -20t64 -57v158h-150zM432 235q0 65 -43 103.5t-100 38.5q-60 0 -100 -39.5t-40 -102.5q0 -64 40.5 -104.5
t99.5 -40.5q60 0 101.5 39.5t41.5 105.5z" />
    <glyph glyph-name="Emacron" unicode="&#x112;" horiz-adv-x="567" 
d="M90 0v689h415v-98h-309v-204h270v-97h-270v-193h319v-97h-425zM166 794v81h258v-81h-258z" />
    <glyph glyph-name="emacron" unicode="&#x113;" horiz-adv-x="553" 
d="M516 235q0 -28 -1 -38h-371q7 -54 46.5 -85.5t96.5 -31.5q40 0 74.5 17.5t52.5 49.5l84 -37q-30 -59 -88 -89.5t-128 -30.5q-102 0 -171 68t-69 177t69 175.5t171 66.5t168 -66.5t66 -175.5zM144 272h271q-7 54 -43.5 84.5t-89.5 30.5q-55 0 -93 -31t-45 -84zM150 572v81
h258v-81h-258z" />
    <glyph glyph-name="Ebreve" unicode="&#x114;" horiz-adv-x="567" 
d="M90 689v-689h425v97h-319v193h270v97h-270v204h309v98h-415zM151 896h77q0 -26 14 -41.5t40 -15.5q25 0 39.5 17t14.5 40h78q0 -59 -36 -93.5t-96 -34.5q-65 0 -98 37t-33 91z" />
    <glyph glyph-name="ebreve" unicode="&#x115;" horiz-adv-x="553" 
d="M516 235q0 109 -66 175.5t-168 66.5t-171 -66.5t-69 -175.5t69 -177t171 -68q70 0 128 30.5t88 89.5l-84 37q-18 -32 -52.5 -49.5t-74.5 -17.5q-57 0 -96.5 31.5t-46.5 85.5h371q1 10 1 38zM144 272q7 53 45 84t93 31q53 0 89.5 -30.5t43.5 -84.5h-271zM147 674h77
q0 -26 14 -41.5t40 -15.5q25 0 39.5 17t14.5 40h78q0 -59 -36 -93.5t-96 -34.5q-65 0 -98 37t-33 91z" />
    <glyph glyph-name="Edotaccent" unicode="&#x116;" horiz-adv-x="567" 
d="M90 689v-689h425v97h-319v193h270v97h-270v204h309v98h-415zM235 852q0 27 19.5 45t46.5 18q28 0 47.5 -18t19.5 -45t-19.5 -45t-47.5 -18q-27 0 -46.5 18t-19.5 45z" />
    <glyph glyph-name="edotaccent" unicode="&#x117;" horiz-adv-x="553" 
d="M516 235q0 109 -66 175.5t-168 66.5t-171 -66.5t-69 -175.5t69 -177t171 -68q70 0 128 30.5t88 89.5l-84 37q-18 -32 -52.5 -49.5t-74.5 -17.5q-57 0 -96.5 31.5t-46.5 85.5h371q1 10 1 38zM144 272q7 53 45 84t93 31q53 0 89.5 -30.5t43.5 -84.5h-271zM212 630
q0 27 19.5 45t46.5 18q28 0 47.5 -18t19.5 -45t-19.5 -45t-47.5 -18q-27 0 -46.5 18t-19.5 45z" />
    <glyph glyph-name="Eogonek" unicode="&#x118;" horiz-adv-x="567" 
d="M454 0h-364v689h415v-98h-309v-204h270v-97h-270v-193h319v-94l-31 -86q-6 -15 -1 -29t20 -21q15 -4 28 2t19 20l3 23l67 4q0 -51 -30 -83.5t-71 -32.5q-44 0 -73.5 31t-29.5 70q0 27 8 44z" />
    <glyph glyph-name="eogonek" unicode="&#x119;" horiz-adv-x="554" 
d="M387 -83q-11 -37 19 -50q15 -4 28 2t19 20l3 23l67 4q0 -51 -30 -83.5t-71 -32.5q-44 0 -73.5 31t-29.5 70q0 29 8 44l29 55q-34 -10 -74 -10q-102 0 -171 68t-69 177t69 175.5t171 66.5t168 -66.5t66 -175.5q0 -28 -1 -38h-371q7 -54 46.5 -85.5t96.5 -31.5
q40 0 74.5 17.5t52.5 49.5l84 -37q-5 -9 -26.5 -32.5t-45 -63t-39.5 -97.5zM144 272h271q-7 54 -43.5 84.5t-89.5 30.5q-55 0 -93 -31t-45 -84z" />
    <glyph glyph-name="Ecaron" unicode="&#x11a;" horiz-adv-x="567" 
d="M90 689v-689h425v97h-319v193h270v97h-270v204h309v98h-415zM244 762l-110 157h86l75 -87l76 87h87l-110 -157h-104z" />
    <glyph glyph-name="ecaron" unicode="&#x11b;" horiz-adv-x="553" 
d="M516 235q0 109 -66 175.5t-168 66.5t-171 -66.5t-69 -175.5t69 -177t171 -68q70 0 128 30.5t88 89.5l-84 37q-18 -32 -52.5 -49.5t-74.5 -17.5q-57 0 -96.5 31.5t-46.5 85.5h371q1 10 1 38zM144 272q7 53 45 84t93 31q53 0 89.5 -30.5t43.5 -84.5h-271zM227 540l-110 157
h86l75 -87l76 87h87l-110 -157h-104z" />
    <glyph glyph-name="Gcircumflex" unicode="&#x11c;" horiz-adv-x="755" 
d="M636 600l-78 -69q-68 65 -162 65q-102 0 -172.5 -74t-70.5 -179t70.5 -179t172.5 -74q86 0 144.5 46.5t62.5 122.5h-193v91h315q0 -179 -88 -269.5t-241 -90.5q-146 0 -247.5 103t-101.5 250t101 250.5t248 103.5q143 0 240 -97zM330 921h104l110 -158h-87l-76 88
l-75 -88h-86z" />
    <glyph glyph-name="gcircumflex" unicode="&#x11d;" horiz-adv-x="610" 
d="M435 233q0 67 -41.5 105.5t-102.5 38.5q-60 0 -101 -40.5t-41 -103.5q0 -64 41 -104t101 -40q56 0 100 39.5t44 104.5zM150 -59q18 -36 55 -57t76 -21q156 0 156 184v24q-20 -38 -64.5 -59.5t-93.5 -21.5q-98 0 -167 67t-69 175q0 109 69 177t167 68q49 0 93 -21t65 -58
v69h101v-398q0 -302 -257 -302q-68 0 -125.5 34.5t-90.5 96.5q9 4 42.5 21.5t42.5 21.5zM238 699h104l110 -158h-87l-76 88l-75 -88h-86z" />
    <glyph glyph-name="Gbreve" unicode="&#x11e;" horiz-adv-x="755" 
d="M636 600q-97 97 -240 97q-147 0 -248 -103.5t-101 -250.5t101.5 -250t247.5 -103q153 0 241 90.5t88 269.5h-315v-91h193q-4 -76 -62.5 -122.5t-144.5 -46.5q-102 0 -172.5 74t-70.5 179t70.5 179t172.5 74q94 0 162 -65zM250 896h77q0 -26 14 -41.5t40 -15.5
q25 0 39.5 17t14.5 40h78q0 -59 -36 -93.5t-96 -34.5q-65 0 -98 37t-33 91z" />
    <glyph glyph-name="gbreve" unicode="&#x11f;" horiz-adv-x="610" 
d="M435 233q0 -65 -44 -104.5t-100 -39.5q-60 0 -101 40t-41 104q0 63 41 103.5t101 40.5q61 0 102.5 -38.5t41.5 -105.5zM150 -59q-9 -4 -42.5 -21.5t-42.5 -21.5q33 -62 90.5 -96.5t125.5 -34.5q257 0 257 302v398h-101v-69q-21 37 -65 58t-93 21q-98 0 -167 -68t-69 -177
q0 -108 69 -175t167 -67q49 0 93.5 21.5t64.5 59.5v-24q0 -184 -156 -184q-39 0 -76 21t-55 57zM144 674h77q0 -26 14 -41.5t40 -15.5q25 0 39.5 17t14.5 40h78q0 -59 -36 -93.5t-96 -34.5q-65 0 -98 37t-33 91z" />
    <glyph glyph-name="Gdotaccent" unicode="&#x120;" horiz-adv-x="755" 
d="M636 600q-97 97 -240 97q-147 0 -248 -103.5t-101 -250.5t101.5 -250t247.5 -103q153 0 241 90.5t88 269.5h-315v-91h193q-4 -76 -62.5 -122.5t-144.5 -46.5q-102 0 -172.5 74t-70.5 179t70.5 179t172.5 74q94 0 162 -65zM315 852q0 27 19.5 45t46.5 18q28 0 47.5 -18
t19.5 -45t-19.5 -45t-47.5 -18q-27 0 -46.5 18t-19.5 45z" />
    <glyph glyph-name="gdotaccent" unicode="&#x121;" horiz-adv-x="610" 
d="M435 233q0 -65 -44 -104.5t-100 -39.5q-60 0 -101 40t-41 104q0 63 41 103.5t101 40.5q61 0 102.5 -38.5t41.5 -105.5zM150 -59q-9 -4 -42.5 -21.5t-42.5 -21.5q33 -62 90.5 -96.5t125.5 -34.5q257 0 257 302v398h-101v-69q-21 37 -65 58t-93 21q-98 0 -167 -68t-69 -177
q0 -108 69 -175t167 -67q49 0 93.5 21.5t64.5 59.5v-24q0 -184 -156 -184q-39 0 -76 21t-55 57zM209 630q0 27 19.5 45t46.5 18q28 0 47.5 -18t19.5 -45t-19.5 -45t-47.5 -18q-27 0 -46.5 18t-19.5 45z" />
    <glyph glyph-name="Gcommaaccent" unicode="&#x122;" horiz-adv-x="755" 
d="M636 600l-78 -69q-68 65 -162 65q-102 0 -172.5 -74t-70.5 -179t70.5 -179t172.5 -74q86 0 144.5 46.5t62.5 122.5h-193v91h315q0 -179 -88 -269.5t-241 -90.5q-146 0 -247.5 103t-101.5 250t101 250.5t248 103.5q143 0 240 -97zM369 -259l-60 23q31 42 42 79.5t7 99.5
h97q-2 -136 -86 -202z" />
    <glyph glyph-name="gcommaaccent" unicode="&#x123;" horiz-adv-x="610" 
d="M313 758l60 -23q-31 -43 -42 -80.5t-7 -99.5h-96q1 135 85 203zM435 233q0 -65 -44 -104.5t-100 -39.5q-60 0 -101 40t-41 104q0 63 41 103.5t101 40.5q61 0 102.5 -38.5t41.5 -105.5zM150 -59q-9 -4 -42.5 -21.5t-42.5 -21.5q33 -62 90.5 -96.5t125.5 -34.5
q257 0 257 302v398h-101v-69q-21 37 -65 58t-93 21q-98 0 -167 -68t-69 -177q0 -108 69 -175t167 -67q49 0 93.5 21.5t64.5 59.5v-24q0 -184 -156 -184q-39 0 -76 21t-55 57z" />
    <glyph glyph-name="Hcircumflex" unicode="&#x124;" horiz-adv-x="705" 
d="M507 689h108v-689h-108v294h-311v-294h-106v689h106v-298h311v298zM300 921h104l110 -158h-87l-76 88l-75 -88h-86z" />
    <glyph glyph-name="hcircumflex" unicode="&#x125;" horiz-adv-x="578" 
d="M175 251v-251h-103v721h103v-325q18 39 62 60t86 21q89 0 139 -55.5t50 -155.5v-266h-103v260q0 53 -29.5 84.5t-74.5 31.5q-52 0 -91 -31t-39 -94zM72 926h104l110 -158h-87l-76 88l-75 -88h-86z" />
    <glyph glyph-name="Hbar" unicode="&#x126;" horiz-adv-x="705" 
d="M507 689h108v-689h-108v294h-311v-294h-106v689h106v-298h311v298zM223 794v81h258v-81h-258z" />
    <glyph glyph-name="hbar" unicode="&#x127;" horiz-adv-x="578" 
d="M175 558v-162q18 39 62 60t86 21q89 0 139 -55.5t50 -155.5v-266h-103v260q0 53 -29.5 84.5t-74.5 31.5q-52 0 -91 -31t-39 -94v-251h-103v558h-75v68h75v95h103v-95h150v-68h-150z" />
    <glyph glyph-name="Itilde" unicode="&#x128;" horiz-adv-x="286" 
d="M90 0v689h106v-689h-106zM99 821q-9 0 -17.5 -11t-9.5 -33h-65q3 63 30 91.5t62 28.5q26 0 52.5 -20.5t35.5 -20.5q10 0 18.5 10t9.5 31h64q-3 -62 -30 -89.5t-62 -27.5q-25 0 -52 20.5t-36 20.5z" />
    <glyph glyph-name="itilde" unicode="&#x129;" horiz-adv-x="246" 
d="M72 467h102v-467h-102v467zM69 599q-9 0 -17.5 -11t-9.5 -33h-65q3 63 30 91.5t62 28.5q26 0 52.5 -20.5t35.5 -20.5q10 0 18.5 10t9.5 31h64q-3 -62 -30 -89.5t-62 -27.5q-25 0 -52 20.5t-36 20.5z" />
    <glyph glyph-name="Imacron" unicode="&#x12a;" horiz-adv-x="286" 
d="M90 0v689h106v-689h-106zM14 794v81h258v-81h-258z" />
    <glyph glyph-name="imacron" unicode="&#x12b;" horiz-adv-x="246" 
d="M72 467h102v-467h-102v467zM-16 572v81h258v-81h-258z" />
    <glyph glyph-name="Ibreve" unicode="&#x12c;" horiz-adv-x="286" 
d="M90 689v-689h106v689h-106zM12 896h77q0 -26 14 -41.5t40 -15.5q25 0 39.5 17t14.5 40h78q0 -59 -36 -93.5t-96 -34.5q-65 0 -98 37t-33 91z" />
    <glyph glyph-name="ibreve" unicode="&#x12d;" horiz-adv-x="246" 
d="M174 467h-102v-467h102v467zM-18 674h77q0 -26 14 -41.5t40 -15.5q25 0 39.5 17t14.5 40h78q0 -59 -36 -93.5t-96 -34.5q-65 0 -98 37t-33 91z" />
    <glyph glyph-name="Iogonek" unicode="&#x12e;" horiz-adv-x="286" 
d="M90 0v689h106v-689h-46l-30 -83q-6 -15 -1 -29t20 -21q15 -4 28 2t19 20l3 23l67 4q0 -51 -30 -83.5t-71 -32.5q-44 0 -73.5 31t-29.5 70q0 27 8 44z" />
    <glyph glyph-name="iogonek" unicode="&#x12f;" horiz-adv-x="246" 
d="M132 0l-30 -83q-6 -15 -1 -29t20 -21q15 -4 28 2t19 20l3 23l67 4q0 -51 -30 -83.5t-71 -32.5q-44 0 -73.5 31t-29.5 70q0 27 8 44l30 55v467h102v-467h-42zM54 656q0 27 20.5 46t48.5 19q29 0 48.5 -18.5t19.5 -46.5t-19.5 -46.5t-48.5 -18.5q-28 0 -48.5 19t-20.5 46z
" />
    <glyph glyph-name="Idotaccent" unicode="&#x130;" horiz-adv-x="286" 
d="M90 689v-689h106v689h-106zM77 852q0 27 19.5 45t46.5 18q28 0 47.5 -18t19.5 -45t-19.5 -45t-47.5 -18q-27 0 -46.5 18t-19.5 45z" />
    <glyph glyph-name="dotlessi" unicode="&#x131;" horiz-adv-x="246" 
d="M72 467h102v-467h-102v467z" />
    <glyph glyph-name="IJ" unicode="&#x132;" horiz-adv-x="573" 
d="M90 0v689h106v-689h-106zM186 -235l10 99q27 -9 71 -9q56 0 82.5 34.5t26.5 89.5v710h107v-710q0 -100 -52.5 -163t-163.5 -63q-27 0 -81 12z" />
    <glyph glyph-name="ij" unicode="&#x133;" horiz-adv-x="494" 
d="M174 0v467h-102v-467h102zM54 656q0 27 20.5 46t48.5 19q29 0 48.5 -18.5t19.5 -46.5t-19.5 -46.5t-48.5 -18.5q-28 0 -48.5 19t-20.5 46zM184 -231v96h56q80 0 78 105v497h104v-497q0 -201 -170 -201h-68zM301 656q0 27 20.5 46t48.5 19q29 0 49 -18.5t20 -46.5
t-20 -46.5t-49 -18.5q-28 0 -48.5 19t-20.5 46z" />
    <glyph glyph-name="Jcircumflex" unicode="&#x134;" horiz-adv-x="287" 
d="M-100 -235l10 99q27 -9 71 -9q56 0 82.5 34.5t26.5 89.5v710h107v-710q0 -100 -52.5 -163t-163.5 -63q-27 0 -81 12zM87 921h104l110 -158h-87l-76 88l-75 -88h-86z" />
    <glyph glyph-name="jcircumflex" unicode="&#x135;" horiz-adv-x="248" 
d="M-62 -231v96h56q80 0 78 105v497h104v-497q0 -201 -170 -201h-68zM79 699h104l110 -158h-87l-76 88l-75 -88h-86z" />
    <glyph glyph-name="Kcommaaccent" unicode="&#x136;" horiz-adv-x="583" 
d="M269 346l325 -346h-140l-257 279v-279h-107v689h107v-280l211 280h125zM286 -259l-60 23q31 42 42 79.5t7 99.5h97q-2 -136 -86 -202z" />
    <glyph glyph-name="kcommaaccent" unicode="&#x137;" horiz-adv-x="506" 
d="M373 0l-199 217v-217h-102v721h102v-408l148 154h138l-199 -203l244 -264h-132zM245 -259l-60 23q31 42 42 79.5t7 99.5h97q-2 -136 -86 -202z" />
    <glyph glyph-name="kgreenlandic" unicode="&#x138;" horiz-adv-x="492" 
d="M353 0l-179 179v-179h-102v467h102v-180l144 180h129l-192 -231l235 -236h-137z" />
    <glyph glyph-name="Lacute" unicode="&#x139;" horiz-adv-x="499" 
d="M90 689v-689h382v97h-276v592h-106zM202 920h116l-126 -158h-90z" />
    <glyph glyph-name="lacute" unicode="&#x13a;" horiz-adv-x="247" 
d="M72 721v-721h103v721h-103zM179 928h116l-126 -158h-90z" />
    <glyph glyph-name="Lcommaaccent" unicode="&#x13b;" horiz-adv-x="499" 
d="M90 0v689h106v-592h276v-97h-382zM238 -259l-60 23q31 42 42 79.5t7 99.5h97q-2 -136 -86 -202z" />
    <glyph glyph-name="lcommaaccent" unicode="&#x13c;" horiz-adv-x="247" 
d="M72 0v721h103v-721h-103zM89 -259l-60 23q31 42 42 79.5t7 99.5h97q-2 -136 -86 -202z" />
    <glyph glyph-name="Lcaron" unicode="&#x13d;" horiz-adv-x="500" 
d="M90 0v689h106v-592h276v-97h-382zM327 479l-64 21q31 43 44 85.5t9 103.5h97q-3 -144 -86 -210z" />
    <glyph glyph-name="lcaron" unicode="&#x13e;" horiz-adv-x="247" 
d="M72 0v721h103v-721h-103zM277 511l-64 21q31 43 44 85.5t9 103.5h97q-3 -144 -86 -210z" />
    <glyph glyph-name="Ldot" unicode="&#x13f;" horiz-adv-x="499" 
d="M90 0v689h106v-592h276v-97h-382zM270 275q0 29 20.5 48.5t49.5 19.5q30 0 51 -19.5t21 -48.5t-21 -48.5t-51 -19.5q-29 0 -49.5 19.5t-20.5 48.5z" />
    <glyph glyph-name="ldot" unicode="&#x140;" horiz-adv-x="387" 
d="M72 0v721h103v-721h-103zM236 275q0 29 20.5 48.5t49.5 19.5q30 0 51 -19.5t21 -48.5t-21 -48.5t-51 -19.5q-29 0 -49.5 19.5t-20.5 48.5z" />
    <glyph glyph-name="Lslash" unicode="&#x141;" horiz-adv-x="505" 
d="M96 319l-67 -42v73l67 42v297h106v-231l101 64v-74l-101 -63v-284h274v-101h-380v319z" />
    <glyph glyph-name="lslash" unicode="&#x142;" horiz-adv-x="267" 
d="M189 721v-275l80 51v-71l-80 -51v-375h-102v310l-72 -46v72l72 46v339h102z" />
    <glyph glyph-name="Nacute" unicode="&#x143;" horiz-adv-x="681" 
d="M591 0v689h-106v-489l-293 489h-102v-689h106v493l296 -493h99zM368 920h116l-126 -158h-90z" />
    <glyph glyph-name="nacute" unicode="&#x144;" horiz-adv-x="563" 
d="M175 251v-251h-103v467h103v-70q19 38 60 59t83 21q85 0 131.5 -53t46.5 -152v-272h-103v260q0 55 -26.5 85.5t-71.5 30.5q-51 0 -85.5 -30.5t-34.5 -94.5zM311 698h116l-126 -158h-90z" />
    <glyph glyph-name="Ncommaaccent" unicode="&#x145;" horiz-adv-x="681" 
d="M591 689v-689h-99l-296 493v-493h-106v689h102l293 -489v489h106zM309 -259l-60 23q31 42 42 79.5t7 99.5h97q-2 -136 -86 -202z" />
    <glyph glyph-name="ncommaaccent" unicode="&#x146;" horiz-adv-x="563" 
d="M251 -259l-40 23q27 36 31.5 77t-2.5 102h97q-2 -136 -86 -202zM175 251v-251h-103v467h103v-70q19 38 60 59t83 21q85 0 131.5 -53t46.5 -152v-272h-103v260q0 55 -26.5 85.5t-71.5 30.5q-51 0 -85.5 -30.5t-34.5 -94.5z" />
    <glyph glyph-name="Ncaron" unicode="&#x147;" horiz-adv-x="681" 
d="M591 0v689h-106v-489l-293 489h-102v-689h106v493l296 -493h99zM288 762l-110 157h86l75 -87l76 87h87l-110 -157h-104z" />
    <glyph glyph-name="ncaron" unicode="&#x148;" horiz-adv-x="563" 
d="M175 251v-251h-103v467h103v-70q19 38 60 59t83 21q85 0 131.5 -53t46.5 -152v-272h-103v260q0 55 -26.5 85.5t-71.5 30.5q-51 0 -85.5 -30.5t-34.5 -94.5zM232 540l-110 157h86l75 -87l76 87h87l-110 -157h-104z" />
    <glyph glyph-name="napostrophe" unicode="&#x149;" horiz-adv-x="563" 
d="M175 251v-251h-103v467h103v-70q20 38 61 59t83 21q85 0 131 -53t46 -152v-272h-103v260q0 55 -26 85.5t-71 30.5q-52 0 -86.5 -30.5t-34.5 -94.5zM2 469l-67 20q44 62 48 109q3 20 -4 63h101q1 -127 -78 -192z" />
    <glyph glyph-name="Eng" unicode="&#x14a;" horiz-adv-x="680" 
d="M474 31l-278 459v-490h-106v689h102l291 -489v489h107v-683q0 -239 -214 -239q-35 0 -83 13l11 106q74 -24 121 -4q60 20 60 105q0 23 -11 44z" />
    <glyph glyph-name="eng" unicode="&#x14b;" horiz-adv-x="562" 
d="M496 272l-1 -254q0 -103 -48.5 -166.5t-159.5 -63.5q-28 0 -70 10l9 100q33 -11 61 -11q55 0 80 33.5t26 86.5v253q0 55 -26.5 85.5t-71.5 30.5q-51 0 -85.5 -30.5t-34.5 -94.5v-251h-103v467h103v-70q19 38 60 59t83 21q85 0 132 -53.5t46 -151.5z" />
    <glyph glyph-name="Omacron" unicode="&#x14c;" horiz-adv-x="792" 
d="M153 343q0 -104 70 -176.5t172 -72.5t172.5 72.5t70.5 176.5t-70.5 177t-172.5 73t-172 -73t-70 -177zM47 343q0 148 101 251t247 103q147 0 248.5 -103t101.5 -251q0 -147 -101.5 -250t-248.5 -103q-146 0 -247 103t-101 250zM267 794v81h258v-81h-258z" />
    <glyph glyph-name="omacron" unicode="&#x14d;" horiz-adv-x="572" 
d="M285 90q60 0 101 40t41 105q0 63 -41 102t-101 39q-59 0 -100 -39t-41 -102q0 -64 41 -104.5t100 -40.5zM285 -10q-102 0 -172.5 68.5t-70.5 176.5t70.5 175t172.5 67q103 0 174 -67t71 -175t-71.5 -176.5t-173.5 -68.5zM157 572v81h258v-81h-258z" />
    <glyph glyph-name="Obreve" unicode="&#x14e;" horiz-adv-x="792" 
d="M153 343q0 104 70 177t172 73t172.5 -73t70.5 -177t-70.5 -176.5t-172.5 -72.5t-172 72.5t-70 176.5zM47 343q0 -147 101 -250t247 -103q147 0 248.5 103t101.5 250q0 148 -101.5 251t-248.5 103q-146 0 -247 -103t-101 -251zM264 896h77q0 -26 14 -41.5t40 -15.5
q25 0 39.5 17t14.5 40h78q0 -59 -36 -93.5t-96 -34.5q-65 0 -98 37t-33 91z" />
    <glyph glyph-name="obreve" unicode="&#x14f;" horiz-adv-x="572" 
d="M285 90q-59 0 -100 40.5t-41 104.5q0 63 41 102t100 39q60 0 101 -39t41 -102q0 -65 -41 -105t-101 -40zM285 -10q102 0 173.5 68.5t71.5 176.5t-71 175t-174 67q-102 0 -172.5 -67t-70.5 -175t70.5 -176.5t172.5 -68.5zM154 674h77q0 -26 14 -41.5t40 -15.5
q25 0 39.5 17t14.5 40h78q0 -59 -36 -93.5t-96 -34.5q-65 0 -98 37t-33 91z" />
    <glyph glyph-name="Ohungarumlaut" unicode="&#x150;" horiz-adv-x="792" 
d="M153 343q0 104 70 177t172 73t172.5 -73t70.5 -177t-70.5 -176.5t-172.5 -72.5t-172 72.5t-70 176.5zM47 343q0 -147 101 -250t247 -103q147 0 248.5 103t101.5 250q0 148 -101.5 251t-248.5 103q-146 0 -247 -103t-101 -251zM620 919l-110 -157h-87l98 157h99zM471 919
l-97 -157h-87l87 157h97z" />
    <glyph glyph-name="ohungarumlaut" unicode="&#x151;" horiz-adv-x="572" 
d="M285 90q-59 0 -100 40.5t-41 104.5q0 63 41 102t100 39q60 0 101 -39t41 -102q0 -65 -41 -105t-101 -40zM285 -10q102 0 173.5 68.5t71.5 176.5t-71 175t-174 67q-102 0 -172.5 -67t-70.5 -175t70.5 -176.5t172.5 -68.5zM497 697l-110 -157h-87l98 157h99zM348 697
l-97 -157h-87l87 157h97z" />
    <glyph glyph-name="OE" unicode="&#x152;" horiz-adv-x="1111" 
d="M636 588v101h413v-101h-307v-199h269v-101h-269v-187h318v-101h-424v98q-95 -108 -242 -108q-146 0 -246.5 103t-100.5 250q0 148 100.5 251t246.5 103q147 0 242 -109zM153 343q0 -103 69.5 -175t171.5 -72q105 0 173 74t68 181q-3 100 -72.5 170t-168.5 70
q-102 0 -171.5 -72.5t-69.5 -175.5z" />
    <glyph glyph-name="oe" unicode="&#x153;" horiz-adv-x="939" 
d="M530 272h271q-8 54 -43.5 84.5t-88.5 30.5q-55 0 -93 -31t-46 -84zM285 90q60 0 101 40t41 105q0 63 -41 102t-101 39q-59 0 -100 -39t-41 -102q0 -64 41 -104.5t100 -40.5zM478 81q-72 -91 -193 -91q-102 0 -172.5 68.5t-70.5 176.5t70.5 174.5t172.5 66.5
q123 0 193 -89q69 90 191 90q102 0 166 -64.5t66 -170.5q2 -23 0 -45h-370q7 -54 46 -85.5t96 -31.5q41 0 75.5 17.5t52.5 49.5l84 -37q-30 -59 -88 -89.5t-128 -30.5q-122 0 -191 91z" />
    <glyph glyph-name="Racute" unicode="&#x154;" horiz-adv-x="622" 
d="M355 591q52 0 78 -36t26 -85t-27 -84.5t-81 -35.5h-154v241h158zM391 257q89 10 133.5 70t44.5 143q0 91 -53 155t-157 64h-269v-689h107v253h74l172 -253h129zM331 920h116l-126 -158h-90z" />
    <glyph glyph-name="racute" unicode="&#x155;" horiz-adv-x="399" 
d="M175 168q0 98 31 155t94 57q37 0 69 -16l17 95q-27 18 -83 18q-94 0 -128 -117v107h-103v-467h103v168zM183 698h116l-126 -158h-90z" />
    <glyph glyph-name="Rcommaaccent" unicode="&#x156;" horiz-adv-x="622" 
d="M355 591h-158v-241h154q54 0 81 35.5t27 84.5t-26 85t-78 36zM391 257l181 -257h-129l-172 253h-74v-253h-107v689h269q104 0 157 -64t53 -155q0 -83 -44.5 -143t-133.5 -70zM296 -259l-60 23q31 42 42 79.5t7 99.5h97q-2 -136 -86 -202z" />
    <glyph glyph-name="rcommaaccent" unicode="&#x157;" horiz-adv-x="399" 
d="M175 168v-168h-103v467h103v-107q34 117 128 117q56 0 83 -18l-17 -95q-32 16 -69 16q-63 0 -94 -57t-31 -155zM89 -259l-60 23q31 42 42 79.5t7 99.5h97q-2 -136 -86 -202z" />
    <glyph glyph-name="Rcaron" unicode="&#x158;" horiz-adv-x="622" 
d="M355 591q52 0 78 -36t26 -85t-27 -84.5t-81 -35.5h-154v241h158zM391 257q89 10 133.5 70t44.5 143q0 91 -53 155t-157 64h-269v-689h107v253h74l172 -253h129zM257 762l-110 157h86l75 -87l76 87h87l-110 -157h-104z" />
    <glyph glyph-name="rcaron" unicode="&#x159;" horiz-adv-x="399" 
d="M175 168q0 98 31 155t94 57q37 0 69 -16l17 95q-27 18 -83 18q-94 0 -128 -117v107h-103v-467h103v168zM156 540l-110 157h86l75 -87l76 87h87l-110 -157h-104z" />
    <glyph glyph-name="Sacute" unicode="&#x15a;" horiz-adv-x="574" 
d="M156 200h-106q0 -86 69 -148t174 -62q98 0 162.5 51.5t72.5 133.5q8 76 -38 131.5t-148 82.5l-88 23q-92 24 -92 90q0 42 35 68.5t84 26.5q54 0 87 -28.5t33 -75.5h106q0 93 -63.5 148.5t-160.5 55.5q-93 0 -160 -55.5t-67 -141.5q0 -139 171 -185l87 -22
q114 -27 109 -112q-6 -40 -39 -67t-91 -27q-59 0 -97 34.5t-40 78.5zM325 920h116l-126 -158h-90z" />
    <glyph glyph-name="sacute" unicode="&#x15b;" horiz-adv-x="444" 
d="M181 202q-73 20 -103.5 57t-25.5 95q4 52 53 87.5t114 35.5q69 0 117.5 -34t52.5 -104h-98q-3 25 -22.5 37.5t-45.5 12.5q-20 0 -39.5 -7t-26.5 -19q-12 -20 -4 -42q7 -22 57 -36l72 -18q122 -30 122 -136q0 -66 -52 -103.5t-134 -37.5q-70 0 -124 41.5t-55 111.5h95
q4 -31 28 -49t64 -18q36 0 59.5 15t23.5 41q0 40 -65 55zM254 698h116l-126 -158h-90z" />
    <glyph glyph-name="Scircumflex" unicode="&#x15c;" horiz-adv-x="574" 
d="M50 200h106q2 -44 40 -78.5t97 -34.5q58 0 91 27t39 67q5 85 -109 112l-87 22q-171 46 -171 185q0 86 67 141.5t160 55.5q97 0 160.5 -55.5t63.5 -148.5h-106q0 47 -33 75.5t-87 28.5q-49 0 -84 -26.5t-35 -68.5q0 -66 92 -90l88 -23q102 -27 148 -82.5t38 -131.5
q-8 -82 -72.5 -133.5t-162.5 -51.5q-105 0 -174 62t-69 148zM238 921h104l110 -158h-87l-76 88l-75 -88h-86z" />
    <glyph glyph-name="scircumflex" unicode="&#x15d;" horiz-adv-x="444" 
d="M181 202q-73 20 -103.5 57t-25.5 95q4 52 53 87.5t114 35.5q69 0 117.5 -34t52.5 -104h-98q-3 25 -22.5 37.5t-45.5 12.5q-20 0 -39.5 -7t-26.5 -19q-12 -20 -4 -42q7 -22 57 -36l72 -18q122 -30 122 -136q0 -66 -52 -103.5t-134 -37.5q-70 0 -124 41.5t-55 111.5h95
q4 -31 28 -49t64 -18q36 0 59.5 15t23.5 41q0 40 -65 55zM170 699h104l110 -158h-87l-76 88l-75 -88h-86z" />
    <glyph glyph-name="Scedilla" unicode="&#x15e;" horiz-adv-x="574" 
d="M240 -111q6 -14 19 -20t28 -2q15 7 20 21t-1 29l-27 73q-100 4 -164.5 65.5t-64.5 144.5h106q2 -44 40 -78.5t97 -34.5q58 0 91 27t39 67q5 85 -109 112l-87 22q-171 46 -171 185q0 86 67 141.5t160 55.5q97 0 160.5 -55.5t63.5 -148.5h-106q0 47 -33 75.5t-87 28.5
q-49 0 -84 -26.5t-35 -68.5q0 -66 92 -90l88 -23q102 -27 148 -82.5t38 -131.5q-7 -71 -58 -120.5t-131 -60.5l27 -49q8 -17 8 -44q0 -39 -29.5 -70t-73.5 -31q-41 0 -71 32.5t-30 83.5l67 -4q-1 -14 3 -23z" />
    <glyph glyph-name="scedilla" unicode="&#x15f;" horiz-adv-x="446" 
d="M240 -83l-27 73q-69 2 -120.5 43.5t-52.5 109.5h95q4 -31 28 -49t64 -18q36 0 59.5 15t23.5 41q0 40 -65 55l-63 15q-73 20 -103.5 57t-25.5 95q4 52 53 87.5t114 35.5q69 0 117.5 -34t52.5 -104h-98q-3 25 -22.5 37.5t-45.5 12.5q-20 0 -39.5 -7t-26.5 -19
q-12 -20 -4 -42q7 -22 57 -36l72 -18q122 -30 122 -136q0 -54 -36 -89.5t-96 -46.5l27 -50q8 -17 8 -44q0 -39 -29.5 -70t-73.5 -31q-41 0 -71 32.5t-30 83.5l67 -4q-1 -14 3 -23q6 -14 19 -20t28 -2q15 7 20 21t-1 29z" />
    <glyph glyph-name="Scaron" unicode="&#x160;" horiz-adv-x="574" 
d="M156 200h-106q0 -86 69 -148t174 -62q98 0 162.5 51.5t72.5 133.5q8 76 -38 131.5t-148 82.5l-88 23q-92 24 -92 90q0 42 35 68.5t84 26.5q54 0 87 -28.5t33 -75.5h106q0 93 -63.5 148.5t-160.5 55.5q-93 0 -160 -55.5t-67 -141.5q0 -139 171 -185l87 -22
q114 -27 109 -112q-6 -40 -39 -67t-91 -27q-59 0 -97 34.5t-40 78.5zM238 762l-110 157h86l75 -87l76 87h87l-110 -157h-104z" />
    <glyph glyph-name="scaron" unicode="&#x161;" horiz-adv-x="444" 
d="M181 202q-73 20 -103.5 57t-25.5 95q4 52 53 87.5t114 35.5q69 0 117.5 -34t52.5 -104h-98q-3 25 -22.5 37.5t-45.5 12.5q-20 0 -39.5 -7t-26.5 -19q-12 -20 -4 -42q7 -22 57 -36l72 -18q122 -30 122 -136q0 -66 -52 -103.5t-134 -37.5q-70 0 -124 41.5t-55 111.5h95
q4 -31 28 -49t64 -18q36 0 59.5 15t23.5 41q0 40 -65 55zM170 540l-110 157h86l75 -87l76 87h87l-110 -157h-104z" />
    <glyph glyph-name="Tcommaaccent" unicode="&#x162;" horiz-adv-x="570" 
d="M28 590v99h514v-99h-203v-590h-108v590h-203zM242 -259l-60 23q31 42 42 79.5t7 99.5h97q-2 -136 -86 -202z" />
    <glyph glyph-name="tcommaaccent" unicode="&#x163;" horiz-adv-x="336" 
d="M212 644v-177h99v-85h-99v-382h-103v382h-84v85h84v177h103zM125 -259l-60 23q31 42 42 79.5t7 99.5h97q-2 -136 -86 -202z" />
    <glyph glyph-name="Tcaron" unicode="&#x164;" horiz-adv-x="570" 
d="M28 689v-99h203v-590h108v590h203v99h-514zM233 762l-110 157h86l75 -87l76 87h87l-110 -157h-104z" />
    <glyph glyph-name="tcaron" unicode="&#x165;" horiz-adv-x="336" 
d="M314 526l-61 23q31 43 42 80.5t7 99.5h97q-2 -134 -85 -203zM212 467v177h-103v-177h-84v-85h84v-382h103v382h99v85h-99z" />
    <glyph glyph-name="Tbar" unicode="&#x166;" horiz-adv-x="557" 
d="M325 410h133v-66h-133v-344h-93v344h-132v66h132v187h-211v92h515v-92h-211v-187z" />
    <glyph glyph-name="tbar" unicode="&#x167;" horiz-adv-x="338" 
d="M110 0v215h-65v65h65v102h-85v85h85v177h102v-177h99v-85h-99v-102h75v-65h-75v-215h-102z" />
    <glyph glyph-name="Utilde" unicode="&#x168;" horiz-adv-x="677" 
d="M339 92q61 0 104.5 41t43.5 106v450h107v-450q0 -110 -74.5 -179.5t-180.5 -69.5q-107 0 -181.5 69.5t-74.5 179.5v450h108v-450q0 -65 43.5 -106t104.5 -41zM294 821q-9 0 -17.5 -11t-9.5 -33h-65q3 63 30 91.5t62 28.5q26 0 52.5 -20.5t35.5 -20.5q10 0 18.5 10t9.5 31
h64q-3 -62 -30 -89.5t-62 -27.5q-25 0 -51.5 20.5t-36.5 20.5z" />
    <glyph glyph-name="utilde" unicode="&#x169;" horiz-adv-x="562" 
d="M387 216v251h103v-467h-103v68q-19 -37 -59 -57.5t-80 -20.5q-86 0 -134 53.5t-47 151.5v272h103v-260q0 -56 27 -86.5t70 -30.5q51 0 85.5 30.5t34.5 95.5zM234 599q-9 0 -17.5 -11t-9.5 -33h-65q3 63 30 91.5t62 28.5q26 0 52.5 -20.5t35.5 -20.5q10 0 18.5 10t9.5 31
h64q-3 -62 -30 -89.5t-62 -27.5q-24 0 -51 20.5t-37 20.5z" />
    <glyph glyph-name="Umacron" unicode="&#x16a;" horiz-adv-x="677" 
d="M339 92q61 0 104.5 41t43.5 106v450h107v-450q0 -110 -74.5 -179.5t-180.5 -69.5q-107 0 -181.5 69.5t-74.5 179.5v450h108v-450q0 -65 43.5 -106t104.5 -41zM209 794v81h258v-81h-258z" />
    <glyph glyph-name="umacron" unicode="&#x16b;" horiz-adv-x="562" 
d="M387 216v251h103v-467h-103v68q-19 -37 -59 -57.5t-80 -20.5q-86 0 -134 53.5t-47 151.5v272h103v-260q0 -56 27 -86.5t70 -30.5q51 0 85.5 30.5t34.5 95.5zM149 572v81h258v-81h-258z" />
    <glyph glyph-name="Ubreve" unicode="&#x16c;" horiz-adv-x="677" 
d="M339 92q61 0 104.5 41t43.5 106v450h107v-450q0 -110 -74.5 -179.5t-180.5 -69.5q-107 0 -181.5 69.5t-74.5 179.5v450h108v-450q0 -65 43.5 -106t104.5 -41zM207 896h77q0 -26 14 -41.5t40 -15.5q25 0 39.5 17t14.5 40h78q0 -59 -36 -93.5t-96 -34.5q-65 0 -98 37
t-33 91z" />
    <glyph glyph-name="ubreve" unicode="&#x16d;" horiz-adv-x="562" 
d="M387 216v251h103v-467h-103v68q-19 -37 -59 -57.5t-80 -20.5q-86 0 -134 53.5t-47 151.5v272h103v-260q0 -56 27 -86.5t70 -30.5q51 0 85.5 30.5t34.5 95.5zM146 674h77q0 -26 14 -41.5t40 -15.5q25 0 39.5 17t14.5 40h78q0 -59 -36 -93.5t-96 -34.5q-65 0 -98 37t-33 91
z" />
    <glyph glyph-name="Uring" unicode="&#x16e;" horiz-adv-x="677" 
d="M339 92q61 0 104.5 41t43.5 106v450h107v-450q0 -110 -74.5 -179.5t-180.5 -69.5q-107 0 -181.5 69.5t-74.5 179.5v450h108v-450q0 -65 43.5 -106t104.5 -41zM229 860q0 47 31.5 79t76.5 32q47 0 79 -32t32 -79q0 -45 -32.5 -76.5t-78.5 -31.5q-45 0 -76.5 31.5
t-31.5 76.5zM285 860q0 -21 15 -36.5t37 -15.5t38.5 15.5t16.5 36.5q0 23 -16 39t-39 16q-22 0 -37 -16t-15 -39z" />
    <glyph glyph-name="uring" unicode="&#x16f;" horiz-adv-x="562" 
d="M387 216v251h103v-467h-103v68q-19 -37 -59 -57.5t-80 -20.5q-86 0 -134 53.5t-47 151.5v272h103v-260q0 -56 27 -86.5t70 -30.5q51 0 85.5 30.5t34.5 95.5zM168 638q0 47 31.5 79t76.5 32q47 0 79 -32t32 -79q0 -45 -32.5 -76.5t-78.5 -31.5q-45 0 -76.5 31.5
t-31.5 76.5zM224 638q0 -21 15 -36.5t37 -15.5t38.5 15.5t16.5 36.5q0 23 -16 39t-39 16q-22 0 -37 -16t-15 -39z" />
    <glyph glyph-name="Uhungarumlaut" unicode="&#x170;" horiz-adv-x="677" 
d="M339 92q61 0 104.5 41t43.5 106v450h107v-450q0 -110 -74.5 -179.5t-180.5 -69.5q-107 0 -181.5 69.5t-74.5 179.5v450h108v-450q0 -65 43.5 -106t104.5 -41zM536 919l-110 -157h-87l98 157h99zM387 919l-97 -157h-87l87 157h97z" />
    <glyph glyph-name="uhungarumlaut" unicode="&#x171;" horiz-adv-x="562" 
d="M387 216v251h103v-467h-103v68q-19 -37 -59 -57.5t-80 -20.5q-86 0 -134 53.5t-47 151.5v272h103v-260q0 -56 27 -86.5t70 -30.5q51 0 85.5 30.5t34.5 95.5zM475 697l-110 -157h-87l98 157h99zM326 697l-97 -157h-87l87 157h97z" />
    <glyph glyph-name="Uogonek" unicode="&#x172;" horiz-adv-x="679" 
d="M409 -111l3 23l67 4q0 -51 -30 -83.5t-71 -32.5q-44 0 -73.5 31t-29.5 70q0 27 8 44l25 47q-96 10 -160 77.5t-64 169.5v450h108v-450q0 -65 43.5 -106t104.5 -41t104.5 41t43.5 106v450h107v-450q0 -102 -64.5 -170t-160.5 -77l-27 -75q-6 -15 -1 -29t20 -21q15 -4 28 2
t19 20z" />
    <glyph glyph-name="uogonek" unicode="&#x173;" horiz-adv-x="562" 
d="M484 -111l3 23l67 4q0 -51 -30 -83.5t-71 -32.5q-44 0 -73.5 31t-29.5 70q0 27 8 44l30 55h-1v68q-19 -37 -59 -57.5t-80 -20.5q-86 0 -134 53.5t-47 151.5v272h103v-260q0 -56 27 -86.5t70 -30.5q51 0 85.5 30.5t34.5 95.5v251h103v-467h-42l-30 -83q-6 -15 -1 -29
t20 -21q15 -4 28 2t19 20z" />
    <glyph glyph-name="Wcircumflex" unicode="&#x174;" horiz-adv-x="897" 
d="M608 176l164 513h114l-233 -689h-89l-116 413l-115 -413h-89l-233 689h114l164 -513l118 419h83zM396 921h104l110 -158h-87l-76 88l-75 -88h-86z" />
    <glyph glyph-name="wcircumflex" unicode="&#x175;" horiz-adv-x="782" 
d="M764 467l-171 -467h-85l-119 331l-114 -331h-84l-176 467h110l108 -315l108 315h96l108 -315l109 315h110zM337 699h104l110 -158h-87l-76 88l-75 -88h-86z" />
    <glyph glyph-name="Ycircumflex" unicode="&#x176;" horiz-adv-x="634" 
d="M371 0h-109v316l-262 373h127l190 -274l192 274h127l-265 -374v-315zM266 921h104l110 -158h-87l-76 88l-75 -88h-86z" />
    <glyph glyph-name="ycircumflex" unicode="&#x177;" horiz-adv-x="507" 
d="M494 467l-289 -695h-108l101 250l-185 445h110l130 -320l131 320h110zM204 699h104l110 -158h-87l-76 88l-75 -88h-86z" />
    <glyph glyph-name="Ydieresis" unicode="&#x178;" horiz-adv-x="634" 
d="M371 0h-109v316l-262 373h127l190 -274l192 274h127l-265 -374v-315zM168 844q0 26 19 43.5t46 17.5q26 0 44.5 -17.5t18.5 -43.5t-18.5 -44t-44.5 -18q-27 0 -46 18t-19 44zM339 844q0 26 19 43.5t46 17.5t45.5 -17.5t18.5 -43.5t-19 -44t-45 -18q-27 0 -46 18t-19 44z
" />
    <glyph glyph-name="Zacute" unicode="&#x179;" horiz-adv-x="577" 
d="M41 88l352 503h-338v98h474v-89l-354 -502h354v-98h-488v88zM327 920h116l-126 -158h-90z" />
    <glyph glyph-name="zacute" unicode="&#x17a;" horiz-adv-x="504" 
d="M455 467h-398v-97h248l-264 -288v-82h414v97h-268l268 288v82zM278 698h116l-126 -158h-90z" />
    <glyph glyph-name="Zdotaccent" unicode="&#x17b;" horiz-adv-x="577" 
d="M41 88l352 503h-338v98h474v-89l-354 -502h354v-98h-488v88zM218 852q0 27 19.5 45t46.5 18q28 0 47.5 -18t19.5 -45t-19.5 -45t-47.5 -18q-27 0 -46.5 18t-19.5 45z" />
    <glyph glyph-name="zdotaccent" unicode="&#x17c;" horiz-adv-x="504" 
d="M455 467h-398v-97h248l-264 -288v-82h414v97h-268l268 288v82zM182 630q0 27 19.5 45t46.5 18q28 0 47.5 -18t19.5 -45t-19.5 -45t-47.5 -18q-27 0 -46.5 18t-19.5 45z" />
    <glyph glyph-name="Zcaron" unicode="&#x17d;" horiz-adv-x="577" 
d="M41 88l352 503h-338v98h474v-89l-354 -502h354v-98h-488v88zM233 762l-110 157h86l75 -87l76 87h87l-110 -157h-104z" />
    <glyph glyph-name="zcaron" unicode="&#x17e;" horiz-adv-x="504" 
d="M455 467h-398v-97h248l-264 -288v-82h414v97h-268l268 288v82zM196 540l-110 157h86l75 -87l76 87h87l-110 -157h-104z" />
    <glyph glyph-name="longs" unicode="&#x17f;" horiz-adv-x="310" 
d="M352 721v-99h-51q-83 0 -83 -112v-510h-104v382h-89v85h89v43q0 99 47 155t140 56h51z" />
    <glyph glyph-name="florin" unicode="&#x192;" horiz-adv-x="620" 
d="M31 -185l20 94h57q45 0 67 30.5t33 79.5l76 357h-86l19 91h86l9 38q42 202 238 202h40l-19 -97h-56q-68 0 -93 -81q-5 -16 -15 -62h104l-18 -91h-105q-9 -41 -24 -119t-29 -141t-29 -118q-22 -88 -77 -138t-146 -48q-21 0 -52 3z" />
    <glyph glyph-name="Aringacute" unicode="&#x1fa;" horiz-adv-x="647" 
d="M368 1096h117l-107 -133q55 -31 55 -95q0 -45 -32.5 -76.5t-78.5 -31.5q-45 0 -76.5 31.5t-31.5 76.5q0 37 21 66t55 39zM270 867q0 -22 15.5 -37t36.5 -15q23 0 39 15t16 37q0 23 -16 38.5t-39 15.5q-21 0 -36.5 -15.5t-15.5 -38.5zM463 172l66 -172h112l-260 689h-115
l-260 -689h113l66 172h278zM221 267l103 289l103 -289h-206z" />
    <glyph glyph-name="aringacute" unicode="&#x1fb;" horiz-adv-x="610" 
d="M329 867h117l-107 -133q55 -31 55 -95q0 -45 -32.5 -76.5t-78.5 -31.5q-45 0 -76.5 31.5t-31.5 76.5q0 37 21 66t55 39zM231 638q0 -22 15.5 -37t36.5 -15q23 0 39 15t16 37q0 23 -16 38.5t-39 15.5q-21 0 -36.5 -15.5t-15.5 -38.5zM436 0v67q-22 -36 -66.5 -56.5
t-90.5 -20.5q-98 0 -167.5 68t-69.5 176t69.5 175.5t167.5 67.5q46 0 90 -19.5t67 -56.5v66h102v-467h-102zM148 235q0 -63 41.5 -104t101.5 -41t102 39.5t42 105.5q0 65 -43.5 103.5t-100.5 38.5q-60 0 -101.5 -39.5t-41.5 -102.5z" />
    <glyph glyph-name="AEacute" unicode="&#x1fc;" horiz-adv-x="931" 
d="M869 689h-441l-435 -689h125l108 169h230v-169v0h424v101h-318v187h269v101h-269v199h307v101zM288 271l168 272v-272h-168zM551 920h116l-126 -158h-90z" />
    <glyph glyph-name="aeacute" unicode="&#x1fd;" horiz-adv-x="969" 
d="M560 272q7 53 45 84t93 31q53 0 89 -31t43 -84h-270zM148 235q0 63 41.5 102.5t101.5 39.5q57 0 100.5 -38.5t43.5 -103.5q0 -66 -42 -105.5t-102 -39.5t-101.5 41t-41.5 104zM932 235q0 109 -66 175.5t-168 66.5q-98 0 -163 -62v52h-99v-66q-23 37 -67 56.5t-90 19.5
q-98 0 -167.5 -67.5t-69.5 -175.5t69.5 -176t167.5 -68q46 0 90.5 20.5t66.5 56.5v-67h99v53q65 -63 163 -63q70 0 128 30.5t88 89.5l-84 37q-18 -32 -52.5 -49.5t-74.5 -17.5q-57 0 -96.5 31.5t-46.5 85.5h370q2 20 2 38zM535 698h116l-126 -158h-90z" />
    <glyph glyph-name="Oslashacute" unicode="&#x1fe;" horiz-adv-x="790" 
d="M176 66q15 -12 35 -24q84 -52 183 -52q147 0 248.5 103t101.5 250q0 127 -80 226l80 82l-47 46l-79 -81q-97 81 -224 81q-146 0 -247 -103t-101 -251q0 -131 83 -230l-80 -82l47 -47zM152 343q0 104 70 177t172 73q86 0 150 -53l-342 -351q-50 68 -50 154zM394 94
q-83 0 -145 48l340 350q48 -66 48 -149q0 -104 -70.5 -176.5t-172.5 -72.5zM449 920h116l-126 -158h-90z" />
    <glyph glyph-name="oslashacute" unicode="&#x1ff;" horiz-adv-x="572" 
d="M285 -10q102 0 173.5 68.5t71.5 176.5q0 84 -48 148l51 52l-47 46l-51 -52q-67 48 -150 48q-102 0 -172.5 -67t-70.5 -175q0 -91 52 -156l-56 -57l47 -47l57 58q61 -43 143 -43zM285 376q43 0 78 -21l-197 -201q-22 32 -22 81q0 63 41 102t100 39zM285 90q-40 0 -70 18
l194 199q18 -33 18 -72q0 -65 -41 -105t-101 -40zM342 698h116l-126 -158h-90z" />
    <glyph glyph-name="Scommaaccent" unicode="&#x218;" horiz-adv-x="574" 
d="M50 200h106q2 -44 40 -78.5t97 -34.5q58 0 91 27t39 67q5 85 -109 112l-87 22q-171 46 -171 185q0 86 67 141.5t160 55.5q97 0 160.5 -55.5t63.5 -148.5h-106q0 47 -33 75.5t-87 28.5q-49 0 -84 -26.5t-35 -68.5q0 -66 92 -90l88 -23q102 -27 148 -82.5t38 -131.5
q-8 -82 -72.5 -133.5t-162.5 -51.5q-105 0 -174 62t-69 148zM254 -259l-60 23q31 42 42 79.5t7 99.5h97q-2 -136 -86 -202z" />
    <glyph glyph-name="scommaaccent" unicode="&#x219;" horiz-adv-x="444" 
d="M181 202q-73 20 -103.5 57t-25.5 95q4 52 53 87.5t114 35.5q69 0 117.5 -34t52.5 -104h-98q-3 25 -22.5 37.5t-45.5 12.5q-20 0 -39.5 -7t-26.5 -19q-12 -20 -4 -42q7 -22 57 -36l72 -18q122 -30 122 -136q0 -66 -52 -103.5t-134 -37.5q-70 0 -124 41.5t-55 111.5h95
q4 -31 28 -49t64 -18q36 0 59.5 15t23.5 41q0 40 -65 55zM193 -259l-60 23q31 42 42 79.5t7 99.5h97q-2 -136 -86 -202z" />
    <glyph glyph-name="circumflex" unicode="&#x2c6;" horiz-adv-x="534" 
d="M215 699h104l110 -158h-87l-76 88l-75 -88h-86z" />
    <glyph glyph-name="caron" unicode="&#x2c7;" horiz-adv-x="534" 
d="M215 540l-110 157h86l75 -87l76 87h87l-110 -157h-104z" />
    <glyph glyph-name="breve" unicode="&#x2d8;" horiz-adv-x="483" 
d="M110 674h77q0 -26 14 -41.5t40 -15.5q25 0 39.5 17t14.5 40h78q0 -59 -36 -93.5t-96 -34.5q-65 0 -98 37t-33 91z" />
    <glyph glyph-name="dotaccent" unicode="&#x2d9;" horiz-adv-x="533" 
d="M200 630q0 27 19.5 45t46.5 18q28 0 47.5 -18t19.5 -45t-19.5 -45t-47.5 -18q-27 0 -46.5 18t-19.5 45z" />
    <glyph glyph-name="ring" unicode="&#x2da;" horiz-adv-x="539" 
d="M160 638q0 47 31.5 79t76.5 32q47 0 79 -32t32 -79q0 -45 -32.5 -76.5t-78.5 -31.5q-45 0 -76.5 31.5t-31.5 76.5zM216 638q0 -21 15 -36.5t37 -15.5t38.5 15.5t16.5 36.5q0 23 -16 39t-39 16q-22 0 -37 -16t-15 -39z" />
    <glyph glyph-name="ogonek" unicode="&#x2db;" horiz-adv-x="524" 
d="M294 -111l3 23l67 4q0 -51 -30 -83.5t-71 -32.5q-44 0 -73.5 31t-29.5 70q0 27 8 44l51 94h53l-44 -122q-6 -15 -1 -29t20 -21q15 -4 28 2t19 20z" />
    <glyph glyph-name="tilde" unicode="&#x2dc;" horiz-adv-x="432" 
d="M172 599q-9 0 -17.5 -11t-9.5 -33h-65q3 63 30 91.5t62 28.5q26 0 52.5 -20.5t35.5 -20.5q10 0 18.5 10t9.5 31h64q-3 -62 -30 -89.5t-62 -27.5q-24 0 -51 20.5t-37 20.5z" />
    <glyph glyph-name="hungarumlaut" unicode="&#x2dd;" horiz-adv-x="493" 
d="M413 697l-110 -157h-87l98 157h99zM264 697l-97 -157h-87l87 157h97z" />
    <glyph glyph-name="Wgrave" unicode="&#x1e80;" horiz-adv-x="897" 
d="M608 176l164 513h114l-233 -689h-89l-116 413l-115 -413h-89l-233 689h114l164 -513l118 419h83zM256 920h116l100 -158h-90z" />
    <glyph glyph-name="wgrave" unicode="&#x1e81;" horiz-adv-x="782" 
d="M764 467l-171 -467h-85l-119 331l-114 -331h-84l-176 467h110l108 -315l108 315h96l108 -315l109 315h110zM212 698h116l100 -158h-90z" />
    <glyph glyph-name="Wacute" unicode="&#x1e82;" horiz-adv-x="897" 
d="M772 689l-164 -513l-118 419h-83l-118 -419l-164 513h-114l233 -689h89l115 413l116 -413h89l233 689h-114zM508 920h116l-126 -158h-90z" />
    <glyph glyph-name="wacute" unicode="&#x1e83;" horiz-adv-x="782" 
d="M593 0l171 467h-110l-109 -315l-108 315h-96l-108 -315l-108 315h-110l176 -467h84l114 331l119 -331h85zM445 698h116l-126 -158h-90z" />
    <glyph glyph-name="Wdieresis" unicode="&#x1e84;" horiz-adv-x="897" 
d="M772 689l-164 -513l-118 419h-83l-118 -419l-164 513h-114l233 -689h89l115 413l116 -413h89l233 689h-114zM298 844q0 26 19 43.5t46 17.5q26 0 44.5 -17.5t18.5 -43.5t-18.5 -44t-44.5 -18q-27 0 -46 18t-19 44zM469 844q0 26 19 43.5t46 17.5t45.5 -17.5t18.5 -43.5
t-19 -44t-45 -18q-27 0 -46 18t-19 44z" />
    <glyph glyph-name="wdieresis" unicode="&#x1e85;" horiz-adv-x="782" 
d="M593 0l171 467h-110l-109 -315l-108 315h-96l-108 -315l-108 315h-110l176 -467h84l114 331l119 -331h85zM239 622q0 26 19 43.5t46 17.5q26 0 44.5 -17.5t18.5 -43.5t-18.5 -44t-44.5 -18q-27 0 -46 18t-19 44zM410 622q0 26 19 43.5t46 17.5t45.5 -17.5t18.5 -43.5
t-19 -44t-45 -18q-27 0 -46 18t-19 44z" />
    <glyph glyph-name="Ygrave" unicode="&#x1ef2;" horiz-adv-x="634" 
d="M371 0h-109v316l-262 373h127l190 -274l192 274h127l-265 -374v-315zM161 920h116l100 -158h-90z" />
    <glyph glyph-name="ygrave" unicode="&#x1ef3;" horiz-adv-x="507" 
d="M494 467l-289 -695h-108l101 250l-185 445h110l130 -320l131 320h110zM113 698h116l100 -158h-90z" />
    <glyph glyph-name="thinspace" unicode="&#x2009;" horiz-adv-x="14" 
 />
    <glyph glyph-name="endash" unicode="&#x2013;" horiz-adv-x="601" 
d="M66 189v90h469v-90h-469z" />
    <glyph glyph-name="emdash" unicode="&#x2014;" horiz-adv-x="808" 
d="M66 189v90h676v-90h-676z" />
    <glyph glyph-name="quoteleft" unicode="&#x2018;" horiz-adv-x="254" 
d="M165 711l54 -22q-72 -101 -71 -223h-91q5 79 38.5 147t69.5 98z" />
    <glyph glyph-name="quoteright" unicode="&#x2019;" horiz-adv-x="249" 
d="M97 444l-53 22q72 101 71 223h91q-5 -80 -38.5 -147.5t-70.5 -97.5z" />
    <glyph glyph-name="quotesinglbase" unicode="&#x201a;" horiz-adv-x="245" 
d="M71 -80l-53 22q72 101 71 223h91q-5 -80 -38.5 -147.5t-70.5 -97.5z" />
    <glyph glyph-name="quotedblleft" unicode="&#x201c;" horiz-adv-x="408" 
d="M320 712l53 -22q-71 -102 -70 -223h-91q5 79 38.5 147t69.5 98zM166 712l53 -22q-72 -101 -71 -223h-91q5 80 38.5 147.5t70.5 97.5z" />
    <glyph glyph-name="quotedblright" unicode="&#x201d;" horiz-adv-x="403" 
d="M97 444l-53 22q71 102 71 223h90q-4 -80 -37.5 -147.5t-70.5 -97.5zM252 444l-54 22q72 101 71 223h91q-5 -80 -38.5 -147.5t-69.5 -97.5z" />
    <glyph glyph-name="quotedblbase" unicode="&#x201e;" horiz-adv-x="399" 
d="M71 -80l-53 22q71 102 71 223h90q-4 -80 -37.5 -147.5t-70.5 -97.5zM226 -80l-54 22q72 101 71 223h91q-5 -79 -38.5 -147t-69.5 -98z" />
    <glyph glyph-name="dagger" unicode="&#x2020;" horiz-adv-x="415" 
d="M256 679v-175h117v-77h-117v-541h-97v541h-117v77h117v175h97z" />
    <glyph glyph-name="daggerdbl" unicode="&#x2021;" horiz-adv-x="443" 
d="M270 679v-175h117v-77h-117v-241h117v-76h-117v-224h-97v224h-117v76h117v241h-117v77h117v175h97z" />
    <glyph glyph-name="bullet" unicode="&#x2022;" horiz-adv-x="462" 
d="M79 239q0 62 44.5 103.5t107.5 41.5t107.5 -41.5t44.5 -103.5q0 -63 -44.5 -104.5t-107.5 -41.5t-107.5 41.5t-44.5 104.5z" />
    <glyph glyph-name="ellipsis" unicode="&#x2026;" horiz-adv-x="752" 
d="M63 57q0 29 20.5 48.5t49.5 19.5q30 0 50.5 -19.5t20.5 -48.5t-20.5 -48t-50.5 -19q-29 0 -49.5 19t-20.5 48zM306 57q0 29 20.5 48.5t49.5 19.5q30 0 50.5 -19.5t20.5 -48.5t-20.5 -48t-50.5 -19t-50 19t-20 48zM548 57q0 29 20.5 48.5t50.5 19.5q29 0 50 -19.5
t21 -48.5t-21 -48t-50 -19q-30 0 -50.5 19t-20.5 48z" />
    <glyph glyph-name="perthousand" unicode="&#x2030;" horiz-adv-x="996" 
d="M535 668h-67l-327 -668h66zM39 536q0 56 38.5 95t94.5 39t95 -39t39 -95t-39 -94.5t-95 -38.5t-94.5 38.5t-38.5 94.5zM112 536q0 -26 17 -43t43 -17q25 0 43 17.5t18 42.5t-18 43t-43 18q-26 0 -43 -17.5t-17 -43.5zM382 123q0 56 38.5 95t94.5 39q55 0 94.5 -39.5
t39.5 -94.5q0 -56 -39 -94.5t-95 -38.5t-94.5 38.5t-38.5 94.5zM455 123q0 -26 17 -43t43 -17t44 17t18 43q0 25 -18.5 43t-43.5 18t-42.5 -18t-17.5 -43zM693 123q0 56 38.5 95t94.5 39t95 -39.5t39 -94.5q0 -56 -39 -94.5t-95 -38.5t-94.5 38.5t-38.5 94.5zM766 123
q0 -26 17 -43t43 -17t44 17t18 43q0 25 -18.5 43t-43.5 18t-42.5 -18t-17.5 -43z" />
    <glyph glyph-name="guilsinglleft" unicode="&#x2039;" horiz-adv-x="318" 
d="M45 233l138 207h87l-138 -207l138 -207h-87z" />
    <glyph glyph-name="guilsinglright" unicode="&#x203a;" horiz-adv-x="318" 
d="M135 440l138 -207l-138 -207h-87l138 207l-138 207h87z" />
    <glyph glyph-name="fraction" unicode="&#x2044;" horiz-adv-x="180" 
d="M348 668l-451 -678h-71l451 678h71z" />
    <glyph glyph-name="zerosuperior" unicode="&#x2070;" horiz-adv-x="361" 
d="M38 625q0 94 31.5 147.5t110.5 53.5q80 0 111.5 -53.5t31.5 -147.5q0 -93 -32 -146t-111 -53t-110.5 53t-31.5 146zM102 625q0 -136 78 -136q79 0 79 136q0 137 -79 137q-78 0 -78 -137z" />
    <glyph glyph-name="foursuperior" unicode="&#x2074;" horiz-adv-x="355" 
d="M275 511v-80h-65v80h-197l208 310h54v-251h54v-59h-54zM117 570h93v143z" />
    <glyph glyph-name="fivesuperior" unicode="&#x2075;" horiz-adv-x="340" 
d="M79 543q11 -26 33.5 -40.5t48.5 -14.5q38 0 61 21t23 51q0 32 -22 49t-52 17q-50 0 -104 -35l-25 23l34 206h207v-61h-154l-16 -87q28 14 65 14q55 0 92.5 -33t37.5 -93q0 -61 -40 -98t-107 -37q-41 0 -78.5 21.5t-57.5 59.5l27 18.5z" />
    <glyph glyph-name="sixsuperior" unicode="&#x2076;" horiz-adv-x="337" 
d="M301 746l-59 -24q-20 42 -59 42q-38 0 -60 -36t-20 -91q22 46 79 46q51 0 86.5 -39t34.5 -95q-2 -55 -40.5 -90.5t-93.5 -34.5q-54 2 -89.5 38t-40.5 96q-3 46 0.5 86.5t16 85t45.5 70.5t83 25q83 -4 117 -79zM107 556q0 -28 19 -47.5t46 -20.5t46 18t20 46
q1 28 -16.5 47.5t-44.5 20.5q-28 1 -48 -17.5t-22 -46.5z" />
    <glyph glyph-name="sevensuperior" unicode="&#x2077;" horiz-adv-x="325" 
d="M313 821l-204 -390h-74l171 327h-171v63h278z" />
    <glyph glyph-name="eightsuperior" unicode="&#x2078;" horiz-adv-x="342" 
d="M62 722q0 44 31.5 74t77.5 30t78 -30t32 -74q0 -37 -29 -66q57 -35 57 -102q0 -54 -40 -91t-98 -37t-98 37t-40 91q0 68 56 102q-27 29 -27 66zM97 555q0 -28 21.5 -47.5t52.5 -19.5t52.5 19.5t21.5 47.5q0 27 -21.5 48.5t-51.5 21.5h-6q-29 0 -49 -21t-20 -49zM126 722
q0 -19 13 -32t33 -13q20 1 32.5 14.5t12.5 30.5t-13.5 29.5t-32.5 12.5q-20 0 -32.5 -12t-12.5 -30z" />
    <glyph glyph-name="ninesuperior" unicode="&#x2079;" horiz-adv-x="337" 
d="M36 503l59 25q20 -42 59 -42q38 0 59.5 36t20.5 90q-23 -46 -79 -46q-51 0 -86.5 39t-34.5 96q2 55 40 90.5t94 33.5q53 -2 89 -37.5t41 -96.5q1 -31 1.5 -66t-9 -71.5t-24 -65.5t-44 -46.5t-69.5 -16.5q-83 4 -117 78zM230 693q0 28 -19 48t-46 20q-27 1 -46 -17.5
t-20 -45.5q-1 -28 17 -48t44 -20q28 -1 48 17t22 46z" />
    <glyph glyph-name="zeroinferior" unicode="&#x2080;" horiz-adv-x="360" 
d="M38 47q0 94 31.5 147.5t110.5 53.5q80 0 111.5 -53.5t31.5 -147.5q0 -93 -32 -146t-111 -53t-110.5 53t-31.5 146zM102 47q0 -136 78 -136q79 0 79 136q0 137 -79 137q-78 0 -78 -137z" />
    <glyph glyph-name="oneinferior" unicode="&#x2081;" horiz-adv-x="209" 
d="M91 -147v297l-67 -33v60l132 70v-394h-65z" />
    <glyph glyph-name="twoinferior" unicode="&#x2082;" horiz-adv-x="322" 
d="M36 -115l157 189q26 31 26 57q0 24 -18 39.5t-44 15.5q-25 0 -44 -17t-23 -45l-58 14q8 50 43 80t83 30q52 0 88 -33t36 -84q0 -52 -42 -101l-98 -114h139v-63h-245v32z" />
    <glyph glyph-name="threeinferior" unicode="&#x2083;" horiz-adv-x="319" 
d="M91 157l-22 16t-24 18q17 27 47.5 42.5t66.5 13.5q49 -2 80 -33.5t29 -73.5q0 -24 -12.5 -45t-34.5 -32q30 -11 48 -42t15 -63q-4 -49 -46.5 -81.5t-97.5 -28.5q-39 3 -70.5 25t-47.5 56q6 4 26.5 14.5t26.5 14.5q9 -20 28 -34.5t41 -15.5h-1q30 -2 53 15t25 43
q1 25 -18.5 45.5t-50.5 19.5h-44v57h44q25 0 39 19t11 40q-2 18 -15.5 29.5t-33.5 11.5q-39 4 -62 -31z" />
    <glyph glyph-name="fourinferior" unicode="&#x2084;" horiz-adv-x="355" 
d="M275 -67v-80h-65v80h-197l208 310h54v-251h54v-59h-54zM117 -8h93v143z" />
    <glyph glyph-name="fiveinferior" unicode="&#x2085;" horiz-adv-x="339" 
d="M80 -35q11 -26 33.5 -40.5t48.5 -14.5q38 0 61 21t23 51q0 32 -22 49t-52 17q-50 0 -104 -35l-25 23l34 206h207v-61h-154l-16 -87q28 14 65 14q55 0 92.5 -33t37.5 -93q0 -61 -40 -98t-107 -37q-41 0 -78.5 21.5t-57.5 59.5l27 18.5z" />
    <glyph glyph-name="sixinferior" unicode="&#x2086;" horiz-adv-x="337" 
d="M301 168l-59 -24q-20 42 -59 42q-38 0 -60 -36t-20 -91q22 46 79 46q51 0 86.5 -39t34.5 -95q-2 -55 -40.5 -90.5t-93.5 -34.5q-54 2 -89.5 38t-40.5 96q-3 46 0.5 86.5t16 85t45.5 70.5t83 25q83 -4 117 -79zM107 -22q0 -28 19 -47.5t46 -20.5t46 18t20 46
q1 28 -16.5 47.5t-44.5 20.5q-28 1 -48 -17.5t-22 -46.5z" />
    <glyph glyph-name="seveninferior" unicode="&#x2087;" horiz-adv-x="317" 
d="M312 243l-204 -390h-74l171 327h-171v63h278z" />
    <glyph glyph-name="eightinferior" unicode="&#x2088;" horiz-adv-x="342" 
d="M62 144q0 44 31.5 74t77.5 30t78 -30t32 -74q0 -37 -29 -66q57 -35 57 -102q0 -54 -40 -91t-98 -37t-98 37t-40 91q0 68 56 102q-27 29 -27 66zM97 -23q0 -28 21.5 -47.5t52.5 -19.5t52.5 19.5t21.5 47.5q0 27 -21.5 48.5t-51.5 21.5h-6q-29 0 -49 -21t-20 -49zM126 144
q0 -19 13 -32t33 -13q20 1 32.5 14.5t12.5 30.5t-13.5 29.5t-32.5 12.5q-20 0 -32.5 -12t-12.5 -30z" />
    <glyph glyph-name="nineinferior" unicode="&#x2089;" horiz-adv-x="337" 
d="M36 -75l59 25q20 -42 59 -42q38 0 59.5 36t20.5 90q-23 -46 -79 -46q-51 0 -86.5 39t-34.5 96q2 55 40 90.5t94 33.5q53 -2 89 -37.5t41 -96.5q1 -31 1.5 -66t-9 -71.5t-24 -65.5t-44 -46.5t-69.5 -16.5q-83 4 -117 78zM230 115q0 28 -19 48t-46 20q-27 1 -46 -17.5
t-20 -45.5q-1 -28 17 -48t44 -20q28 -1 48 17t22 46z" />
    <glyph glyph-name="colonmonetary" unicode="&#x20a1;" horiz-adv-x="702" 
d="M316 -2l-39 -108l-50 18l38 106q-39 15 -72 39l-45 -126l-50 17l51 145q-105 103 -105 254q0 140 92.5 241t229.5 111l39 110l50 -18l-33 -92q44 -3 81 -16l31 89l50 -17l-33 -92q61 -31 107 -86l-82 -64q-32 33 -61 50l-165 -463q19 -4 42 -4q116 0 186 90l82 -65
q-46 -60 -115.5 -93.5t-152.5 -33.5q-38 0 -76 8zM386 595l-157 -439q31 -30 70 -46l169 472q-33 11 -82 13zM150 343q0 -76 40 -140l137 382q-78 -21 -127.5 -88t-49.5 -154z" />
    <glyph glyph-name="lira" unicode="&#x20a4;" horiz-adv-x="646" 
d="M390 226h-143v-128h229q20 0 20 26v50h102v-51q0 -54 -27.5 -88.5t-76.5 -34.5h-445v98h96v128h-78v56h78v61h-78v56h78v69q0 105 55.5 167t151.5 62q86 0 145 -58t59 -156h-103q0 55 -31.5 84t-76.5 24q-40 -2 -69 -28.5t-29 -67.5v-96h143v-56h-143v-61h143v-56z" />
    <glyph glyph-name="uni20A6" unicode="&#x20a6;" horiz-adv-x="755" 
d="M621 0h-89l-151 250h-163v-250h-93v250h-69v55h69v74h-69v55h69v255h92l154 -255h157v255h93v-255h82v-55h-82v-74h82v-55h-82v-250zM218 379v-74h129l-44 74h-85zM404 379l45 -74h79v74h-124zM218 519v-85h51zM482 250l46 -76v76h-46z" />
    <glyph glyph-name="peseta" unicode="&#x20a7;" horiz-adv-x="742" 
d="M132 399h-80v55h80v49h-80v55h80v131h275q72 0 119.5 -36t68.5 -95h104v-55h-90q3 -21 3 -41v-8h87v-55h-95q-16 -64 -65 -102.5t-132 -38.5h-181v-258h-94v399zM519 454v8q0 18 -5 41h-288v-49h293zM226 345h175q76 0 104 54h-279v-54zM406 602h-180v-44h264
q-30 44 -84 44z" />
    <glyph glyph-name="rupee" unicode="&#x20a8;" horiz-adv-x="684" 
d="M375 462h-310v56h304q-23 73 -97 73h-207q0 11 -0.5 49t-0.5 49h573v-56h-214q47 -45 59 -115h155v-56h-151q-3 -83 -47.5 -144t-130.5 -61l181 -257h-129l-172 253h-123v97h203q52 0 78 32t29 80z" />
    <glyph glyph-name="uni20A9" unicode="&#x20a9;" horiz-adv-x="978" 
d="M193 274h-135v55h117l-34 100h-83v55h64l-69 205h100l66 -205h202l32 112h71l32 -112h202l66 205h100l-70 -205h66v-55h-84l-34 -100h118v-55h-136l-93 -274h-81l-78 274h-88l-77 -274h-81zM571 429l29 -100h108l32 100h-169zM236 429l32 -100h109l28 100h-169zM615 274
l36 -124l40 124h-76zM286 274l40 -124l35 124h-75zM487 429l-28 -100h58l-29 100h-1z" />
    <glyph glyph-name="afii57636" unicode="&#x20aa;" horiz-adv-x="803" 
d="M543 332v-155h-101v148q0 47 -32.5 79t-84.5 32h-128v-436h-103v538h220q41 0 72 -8q72 -15 114.5 -69.5t42.5 -128.5zM260 206v155h102v-149q0 -47 32 -78.5t85 -31.5h127v436h103v-538h-220q-40 0 -71 7q-73 16 -115.5 70.5t-42.5 128.5z" />
    <glyph glyph-name="Euro" unicode="&#x20ac;" horiz-adv-x="820" 
d="M522 366h-473v57h108q27 119 121 196.5t218 77.5q81 0 150 -33t116 -91l-82 -64q-76 86 -184 86q-81 0 -143.5 -48t-86.5 -124h256v-57zM49 307h473v-57h-252q27 -71 87.5 -114.5t138.5 -43.5q116 0 186 90l82 -65q-46 -60 -115.5 -93.5t-152.5 -33.5q-121 0 -213.5 73
t-122.5 187h-111v57z" />
    <glyph glyph-name="uni2113" unicode="&#x2113;" horiz-adv-x="393" 
d="M166 553v-274h43q39 0 39 66v208q0 72 -39 72q-43 0 -43 -72zM224 95l96 -2v-93h-111q-140 0 -140 161v398q0 162 140 162q137 0 137 -164v-213q0 -86 -39 -124t-141 -38v-21q0 -35 12.5 -50.5t45.5 -15.5z" />
    <glyph glyph-name="afii61352" unicode="&#x2116;" horiz-adv-x="972" 
d="M595 0v689h-107v-489l-292 489h-103v-689h107v493l295 -493h100zM659 559q0 55 38.5 93.5t93.5 38.5t93.5 -38.5t38.5 -93.5t-38.5 -93t-93.5 -38t-93.5 38t-38.5 93zM729 559q0 -25 18.5 -43.5t43.5 -18.5q26 0 44.5 18t18.5 44t-18.5 44.5t-44.5 18.5
q-25 0 -43.5 -18.5t-18.5 -44.5zM664 333v52h254v-52h-254z" />
    <glyph glyph-name="trademark" unicode="&#x2122;" horiz-adv-x="844" 
d="M321 311l37 315h-106v-315h-72v315h-117v63h365l120 -259l119 259h62l45 -378h-69l-31 256l-97 -215h-57l-99 215l-30 -256h-70z" />
    <glyph glyph-name="estimated" unicode="&#x212e;" horiz-adv-x="655" 
d="M609 279h-429v-193q66 -63 152 -63q76 0 123 33t87 94l31 -19q-44 -68 -99 -104.5t-142 -36.5q-119 0 -195 84.5t-76 205.5q0 123 75 206.5t200 83.5q124 0 198.5 -84.5t74.5 -206.5zM489 312v163q-68 62 -153 62q-96 0 -156 -62v-163h309z" />
    <glyph glyph-name="minus" unicode="&#x2212;" horiz-adv-x="560" 
d="M487 220h-414v87h414v-87z" />
    <glyph glyph-name="notequal" unicode="&#x2260;" horiz-adv-x="591" 
d="M265 120l-53 -109h-70l53 109h-130v89h173l52 106h-225v89h268l53 107h71l-53 -107h121v-89h-165l-51 -106h216v-89h-260z" />
    <glyph glyph-name="lessequal" unicode="&#x2264;" horiz-adv-x="654" 
d="M574 139l-505 194v93l505 193v-100l-375 -139l375 -141v-100zM575 0h-507v87h507v-87z" />
    <glyph glyph-name="greaterequal" unicode="&#x2265;" horiz-adv-x="654" 
d="M585 333l-505 -194v100l375 141l-375 139v100l505 -193v-93zM79 0h507v87h-507v-87z" />
    <glyph glyph-name="commaaccent" unicode="&#xf6c3;" horiz-adv-x="277" 
d="M130 -259l-60 23q31 42 42 79.5t7 99.5h97q-2 -136 -86 -202z" />
    <glyph glyph-name="rupiah" unicode="&#xf6dd;" horiz-adv-x="1155" 
d="M338 591h-158v-241h154q54 0 81 35.5t27 84.5t-26 85t-78 36zM374 257l181 -257h-129l-172 253h-74v-253h-107v689h269q104 0 157 -64t53 -155q0 -83 -44.5 -143t-133.5 -70zM732 467v-69q21 37 64.5 58t91.5 21q97 0 164.5 -68t67.5 -176q0 -109 -67.5 -176t-164.5 -67
q-50 0 -92.5 20t-63.5 57v-294h-103v694h103zM733 231q0 -65 42.5 -103.5t99.5 -38.5q60 0 100 39.5t40 102.5q0 64 -40.5 105t-99.5 41t-100.5 -40t-41.5 -106z" />
    <glyph glyph-name="apple" unicode="&#xf8ff;" horiz-adv-x="847" 
d="M767 687v-687h-687v687h687zM164 595v-377h81l-74 75v178l255 -253l256 253v-178l-74 -75h84v377l-266 -263zM179 132h-15v-53h9v37l13 -37h10l11 37v-37h9v53h-14l-9 -36zM248 132q-25 0 -25 -27q0 -11 6.5 -18.5t18.5 -7.5q11 0 17 8t6 18q0 11 -6 19t-17 8zM248 89
q-7 0 -12 5.5t-5 10.5q0 6 5 11.5t12 5.5q12 0 12 -17q0 -16 -12 -16zM284 99h-13q0 -20 22 -20t22 17q0 11 -15 14q-16 3 -16 6q0 6 9 6q10 0 10 -6h9q0 16 -19 16t-19 -16q0 -8 16 -15q13 0 13 -5q0 -7 -10 -7q-9 0 -9 10zM315 122h17v-43h8v43h15v10h-40v-10zM377 132h-9
l-22 -53h12l4 13h22l3 -13h11zM374 119l7 -18h-16l6 18h3zM426 132h-28v-53h9v22h13q9 0 9 -9v-13h13q-3 3 -3 13q0 9 -7 13q7 3 7 11q0 16 -13 16zM420 108h-13v14h13q9 0 9 -6q0 -8 -9 -8zM466 132h-20v-53h20q25 0 25 29q0 24 -25 24zM466 89h-8v33h4q17 0 17 -17
q0 -6 -4 -11t-9 -5zM531 132h-37v-53h40v10h-28v12h25v9h-25v12h25v10zM543 99h-9q0 -20 22 -20t22 17q0 11 -15 14q-17 3 -17 6q0 6 7 6q12 0 12 -6h10q0 16 -19 16q-8 0 -15 -4.5t-7 -11.5t19 -15q12 0 12 -5q0 -7 -9 -7q-13 0 -13 10zM589 132h-7v-53h7v53zM633 86l4 -7
h6v29h-22v-9h12q-4 -10 -12 -10q-7 0 -11.5 5.5t-4.5 10.5q0 6 4.5 11.5t11.5 5.5q9 0 9 -10h13q-4 20 -22 20q-11 0 -18 -8t-7 -19q0 -10 7 -18t18 -8q9 0 12 7zM657 132h-8v-53h8v33l22 -33h13v53h-13v-33z" />
    <glyph glyph-name="published" horiz-adv-x="807" 
d="M368 280h67q55 0 84.5 35.5t29.5 79.5q0 48 -29.5 82t-84.5 34h-136v-353h69v122zM368 443h67q21 0 32 -14t11 -34t-11.5 -33.5t-33.5 -13.5h-65v95zM54 343q0 147 101.5 250.5t247.5 103.5t248 -103.5t102 -250.5t-102 -250t-248 -103t-247.5 103t-101.5 250zM115 343
q0 -121 84 -206t204 -85t204 85t84 206t-84 206.5t-204 85.5t-204 -85.5t-84 -206.5z" />
    <glyph glyph-name="frenchfranc" horiz-adv-x="730" 
d="M381 0v332h-182v-332h-104v689h401v-100h-297v-158h284v-111q34 117 128 117q53 0 83 -18l-17 -96q-32 16 -69 16q-63 0 -94 -61t-31 -160v-118h-102z" />
    <glyph glyph-name="parenleft.case" horiz-adv-x="367" 
d="M46 342q0 212 78.5 339t206.5 127v-94q-84 0 -138 -104t-54 -268q0 -163 54 -266.5t138 -103.5v-94q-128 0 -206.5 126t-78.5 338z" />
    <glyph glyph-name="parenright.case" horiz-adv-x="367" 
d="M321 342q0 -211 -78.5 -337.5t-206.5 -126.5v94q83 0 137.5 103.5t54.5 266.5t-54.5 267.5t-137.5 104.5v94q128 0 206.5 -127t78.5 -339z" />
    <glyph glyph-name="hyphen.case" horiz-adv-x="481" 
d="M66 301v93h349v-93h-349z" />
    <glyph glyph-name="at.case" horiz-adv-x="969" 
d="M596 220v128q0 53 -37 89.5t-89 36.5t-89 -36.5t-37 -89.5q0 -52 37 -88.5t89 -36.5q48 0 94 43v-88q-48 -30 -94 -30q-83 0 -142 58.5t-59 141.5q0 84 59 142.5t142 58.5q81 0 139 -55q59 -56 62 -137v-144q0 -64 69 -64q33 0 57 21t35.5 55.5t16.5 67.5t5 67
q0 148 -110 247.5t-264 99.5q-150 0 -253.5 -106.5t-103.5 -257.5t103.5 -255.5t253.5 -104.5h25v-76h-25q-182 0 -307 126.5t-125 309.5q0 182 125.5 310.5t306.5 128.5q121 0 224 -54t165 -151.5t62 -216.5q0 -47 -10.5 -94.5t-31.5 -92t-59.5 -72t-89.5 -27.5
q-62 0 -103 34.5t-41 111.5z" />
    <glyph glyph-name="bracketleft.case" horiz-adv-x="328" 
d="M81 -116v916h208v-88h-111v-740h111v-88h-208z" />
    <glyph glyph-name="bracketright.case" horiz-adv-x="328" 
d="M247 800v-916h-208v88h111v740h-111v88h208z" />
    <glyph glyph-name="braceleft.case" horiz-adv-x="399" 
d="M36 381q24 0 42.5 17.5t18.5 39.5v174q-1 88 56.5 142t141.5 54h69v-77h-72q-42 0 -71.5 -31t-29.5 -77v-157q0 -97 -67 -122q35 -11 51 -45.5t16 -76.5v-149q0 -45 30 -78t71 -33h72v-78h-69q-84 0 -141 54.5t-57 142.5v170q0 21 -18.5 38.5t-42.5 17.5v74z" />
    <glyph glyph-name="braceright.case" horiz-adv-x="399" 
d="M363 381v-74q-24 0 -42.5 -17.5t-18.5 -38.5v-170q0 -88 -57 -142.5t-141 -54.5h-69v78h72q41 0 71 33t30 78v149q0 42 16 76.5t51 45.5q-67 25 -67 122v157q0 46 -29.5 77t-71.5 31h-72v77h69q84 0 141.5 -54t56.5 -142v-174q0 -22 18.5 -39.5t42.5 -17.5z" />
    <glyph glyph-name="exclamdown.case" horiz-adv-x="267" 
d="M174 503l14 -504h-111l15 504h82zM63 630q0 29 21 48t50 19q30 0 50.5 -19t20.5 -48t-20.5 -48.5t-50.5 -19.5q-29 0 -50 19.5t-21 48.5z" />
    <glyph glyph-name="guillemotleft.case" horiz-adv-x="517" 
d="M231 344l138 207h86l-138 -207l138 -207h-86zM54 344l138 207h87l-138 -207l138 -207h-87z" />
    <glyph glyph-name="periodcentered.case" horiz-adv-x="266" 
d="M62 386q0 29 20.5 48.5t49.5 19.5q30 0 51 -19.5t21 -48.5t-21 -48.5t-51 -19.5q-29 0 -49.5 19.5t-20.5 48.5z" />
    <glyph glyph-name="guillemotright.case" horiz-adv-x="517" 
d="M148 551l138 -207l-138 -207h-86l138 207l-138 207h86zM325 551l138 -207l-138 -207h-87l138 207l-138 207h87z" />
    <glyph glyph-name="questiondown.case" horiz-adv-x="486" 
d="M246 450l2 52h100v-52q0 -39 -7.5 -65t-25 -42.5t-34.5 -26.5t-48 -25.5t-53 -30.5q-40 -28 -40 -75q0 -41 31 -67t74 -26q42 0 71.5 29.5t29.5 77.5h99q0 -94 -57.5 -151.5t-142.5 -57.5q-87 0 -147 53.5t-60 141.5q0 70 40 120t102 69q34 10 50 26.5t16 49.5zM368 630
q0 -29 -21 -48.5t-50 -19.5q-30 0 -50.5 19.5t-20.5 48.5t20.5 48t50.5 19q29 0 50 -19t21 -48z" />
    <glyph glyph-name="endash.case" horiz-adv-x="597" 
d="M64 300v90h469v-90h-469z" />
    <glyph glyph-name="emdash.case" horiz-adv-x="804" 
d="M64 300v90h676v-90h-676z" />
    <glyph glyph-name="bullet.case" horiz-adv-x="464" 
d="M80 350q0 62 44.5 103.5t107.5 41.5t107.5 -41.5t44.5 -103.5q0 -63 -44.5 -104.5t-107.5 -41.5t-107.5 41.5t-44.5 104.5z" />
    <glyph glyph-name="guilsinglleft.case" horiz-adv-x="341" 
d="M54 344l138 207h87l-138 -207l138 -207h-87z" />
    <glyph glyph-name="guilsinglright.case" horiz-adv-x="341" 
d="M149 551l138 -207l-138 -207h-87l138 207l-138 207h87z" />
    <glyph glyph-name="cent.case" horiz-adv-x="533" 
d="M314 697v-103q104 -6 167 -80l-80 -64q-39 45 -105 45q-61 0 -104 -39.5t-43 -102.5q0 -64 43.5 -105t103.5 -41q65 0 105 46l81 -63q-62 -73 -168 -81v-110h-65v113q-87 15 -144.5 80t-57.5 161q0 95 57 159t145 79v106h65z" />
    <glyph glyph-name="zero.tnum" 
d="M51 325q0 59 6.5 107t23.5 92t43.5 73.5t68.5 47t97 17.5t97 -17.5t68.5 -47t43 -73.5t23 -92t6.5 -107t-6.5 -106.5t-23 -91t-43 -73t-68.5 -47t-97 -17.5q-69 0 -117 25.5t-74 73.5t-37 105t-11 131zM153 325q0 -235 137 -235q136 0 136 235t-136 235q-137 0 -137 -235
z" />
    <glyph glyph-name="one.tnum" 
d="M159 577l210 83v-660h-102v521l-108 -39v95z" />
    <glyph glyph-name="two.tnum" 
d="M491 0h-409v49l266 320q45 53 45 99q0 41 -31 67.5t-77 26.5q-43 0 -74 -27.5t-37 -72.5l-98 21q13 82 71.5 131t139.5 49q88 0 148 -54.5t60 -140.5q0 -89 -71 -168l-170 -200h237v-100z" />
    <glyph glyph-name="three.tnum" 
d="M278 300h-73v95h73q36 -1 57.5 22t26.5 52q9 62 -48 85q-16 7 -45 7q-57 1 -92 -51l-78 57q27 47 79 73.5t113 22.5q80 -4 132 -57t52 -124q0 -38 -21.5 -73t-57.5 -56q48 -18 76.5 -67t28.5 -104q0 -89 -64 -140.5t-164 -51.5q-74 0 -130 36.5t-83 95.5l90 48
q13 -31 51 -55.5t72 -24.5h-1q60 0 91.5 28t31.5 72q0 42 -31.5 76.5t-85.5 33.5z" />
    <glyph glyph-name="four.tnum" 
d="M178 230h171v255zM542 137h-91v-137h-102v137h-334l348 516h88v-423h91v-93z" />
    <glyph glyph-name="five.tnum" 
d="M422 215q0 58 -37.5 89.5t-93.5 31.5q-79 0 -158 -59l-61 45l56 331h357v-97h-274l-31 -165q21 16 56 26.5t66 10.5q95 0 158 -56.5t63 -156.5q0 -101 -69 -163t-182 -62q-68 0 -128.5 39.5t-92.5 105.5q11 5 45 25.5t42 24.5q20 -44 55.5 -69.5t78.5 -25.5
q72 0 111 35.5t39 89.5z" />
    <glyph glyph-name="six.tnum" 
d="M410 203q0 49 -30.5 83.5t-77.5 35.5q-48 2 -84.5 -31.5t-36.5 -79.5q0 -50 33 -84t80 -35q48 -2 82 30.5t34 80.5zM312 421q85 0 143 -63.5t58 -159.5q-3 -90 -66.5 -149t-156.5 -59q-88 0 -147.5 61.5t-67.5 163.5q-6 51 -3 104.5t9 103.5t24.5 94.5t44.5 77t69 51
t98 16.5q64 -3 112 -30.5t79 -95.5l-93 -40q-34 70 -102 70t-108 -63t-32 -156q41 74 139 74z" />
    <glyph glyph-name="seven.tnum" 
d="M79 653h462l-341 -653h-119l291 554h-293v99z" />
    <glyph glyph-name="eight.tnum" 
d="M209 491q0 -33 23 -54.5t60 -21.5q35 1 57 23t22 53q0 30 -23 51.5t-58 21.5t-58 -21.5t-23 -51.5zM161 208q0 -50 37.5 -84.5t91.5 -34.5t91 34.5t37 84.5q0 48 -36 83t-89 35h-11q-51 -1 -86 -36t-35 -82zM109 492q0 71 52 121t129 50t130 -50t53 -121q0 -68 -51 -114
q46 -28 72.5 -73t26.5 -98q0 -91 -67 -154t-164 -63t-164 63t-67 154q0 54 26 99t72 72q-48 46 -48 114z" />
    <glyph glyph-name="nine.tnum" 
d="M168 449q0 -49 30.5 -83.5t77.5 -35.5q48 -2 84.5 31.5t36.5 79.5q0 50 -33 84t-80 35q-48 2 -82 -30.5t-34 -80.5zM266 231q-85 0 -143 63.5t-58 159.5q3 90 66.5 149t156.5 59q88 0 147.5 -61.5t67.5 -163.5q6 -51 3 -104.5t-9 -103.5t-24.5 -94.5t-44.5 -77t-69 -51
t-98 -16.5q-64 3 -112 30.5t-79 95.5l93 40q34 -70 102 -70t108 63t32 156q-38 -74 -139 -74z" />
    <glyph glyph-name="zero.taboldstyle" 
d="M289 -10q-101 0 -173 72.5t-72 187.5q0 116 72 187.5t173 71.5q103 0 175 -71.5t72 -187.5q0 -115 -72 -187.5t-175 -72.5zM289 90q60 0 103.5 44.5t43.5 115.5t-43 114.5t-104 43.5q-60 0 -103 -44t-43 -114q0 -71 43 -115.5t103 -44.5z" />
    <glyph glyph-name="one.taboldstyle" 
d="M392 516v-516h-103v356l-143 -71v105z" />
    <glyph glyph-name="two.taboldstyle" 
d="M473 0h-379v51l235 248q35 33 35 61q0 25 -21 41.5t-55 16.5q-32 0 -54.5 -19t-25.5 -52l-100 16q7 70 58 112t125 42q79 0 130 -44.5t51 -110.5q0 -29 -12 -56t-26 -44t-41 -45l-119 -119h199v-98z" />
    <glyph glyph-name="six.taboldstyle" 
d="M410 203q0 49 -30.5 83.5t-77.5 35.5q-48 2 -84.5 -31.5t-36.5 -79.5q0 -50 33 -84t80 -35q48 -2 82 30.5t34 80.5zM312 421q85 0 143 -63.5t58 -159.5q-3 -90 -66.5 -149t-156.5 -59q-88 0 -147.5 61.5t-67.5 163.5q-6 51 -3 104.5t9 103.5t24.5 94.5t44.5 77t69 51
t98 16.5q64 -3 112 -30.5t79 -95.5l-93 -40q-34 70 -102 70t-108 -63t-32 -156q41 74 139 74z" />
    <glyph glyph-name="eight.taboldstyle" 
d="M209 491q0 -33 23 -54.5t60 -21.5q35 1 57 23t22 53q0 30 -23 51.5t-58 21.5t-58 -21.5t-23 -51.5zM161 208q0 -50 37.5 -84.5t91.5 -34.5t91 34.5t37 84.5q0 48 -36 83t-89 35h-11q-51 -1 -86 -36t-35 -82zM109 492q0 71 52 121t129 50t130 -50t53 -121q0 -68 -51 -114
q46 -28 72.5 -73t26.5 -98q0 -91 -67 -154t-164 -63t-164 63t-67 154q0 54 26 99t72 72q-48 46 -48 114z" />
    <glyph glyph-name="three.taboldstyle" 
d="M280 114h-73v95h73q36 -1 57.5 22t26.5 52q9 62 -48 85q-16 7 -45 7q-57 1 -92 -51l-78 57q27 47 79 73.5t113 22.5q80 -4 132 -57t52 -124q0 -38 -21.5 -73t-57.5 -56q48 -18 76.5 -67t28.5 -104q0 -89 -64 -140.5t-164 -51.5q-74 0 -130 36.5t-83 95.5l90 48
q13 -31 51 -55.5t72 -24.5h-1q60 0 91.5 28t31.5 72q0 42 -31.5 76.5t-85.5 33.5z" />
    <glyph glyph-name="four.taboldstyle" 
d="M180 43h170v255zM544 -50h-92v-138h-102v138h-333l348 516h87v-423h92v-93z" />
    <glyph glyph-name="five.taboldstyle" 
d="M423 29q0 58 -37.5 89.5t-93.5 31.5q-79 0 -158 -59l-61 45l56 331h357v-97h-274l-31 -165q21 16 56 26.5t66 10.5q95 0 158 -56.5t63 -156.5q0 -101 -69 -163t-182 -62q-68 0 -128.5 39.5t-92.5 105.5q11 5 45 25.5t42 24.5q20 -44 55.5 -69.5t78.5 -25.5q72 0 111 35.5
t39 89.5z" />
    <glyph glyph-name="seven.taboldstyle" 
d="M79 466h462l-341 -653h-119l291 554h-293v99z" />
    <glyph glyph-name="nine.taboldstyle" 
d="M172 264q0 -49 30.5 -83.5t77.5 -35.5q48 -2 84.5 31.5t36.5 79.5q0 50 -33 84t-80 35q-48 2 -82 -30.5t-34 -80.5zM270 46q-85 0 -143 63.5t-58 159.5q3 90 66.5 149t156.5 59q88 0 147.5 -61.5t67.5 -163.5q6 -51 3 -104.5t-9 -103.5t-24.5 -94.5t-44.5 -77t-69 -51
t-98 -16.5q-64 3 -112 30.5t-79 95.5l93 40q34 -70 102 -70t108 63t32 156q-38 -74 -139 -74z" />
    <glyph glyph-name="zero.oldstyle" horiz-adv-x="594" 
d="M296 -10q-101 0 -173 72.5t-72 187.5q0 116 72 187.5t173 71.5q103 0 175 -71.5t72 -187.5q0 -115 -72 -187.5t-175 -72.5zM296 90q60 0 103.5 44.5t43.5 115.5t-43 114.5t-104 43.5q-60 0 -103 -44t-43 -114q0 -71 43 -115.5t103 -44.5z" />
    <glyph glyph-name="one.oldstyle" horiz-adv-x="370" 
d="M287 516v-516h-102v356l-144 -71v105z" />
    <glyph glyph-name="two.oldstyle" horiz-adv-x="486" 
d="M426 0h-378v51l235 248q35 35 35 61q0 25 -21 41.5t-55 16.5q-33 0 -55 -19t-26 -52l-100 16q7 70 58.5 112t125.5 42q78 0 129.5 -44.5t51.5 -110.5q0 -29 -12 -56t-26 -44t-41 -45l-119 -119h198v-98z" />
    <glyph glyph-name="three.oldstyle" horiz-adv-x="516" 
d="M248 114h-73v95h73q36 -1 57.5 22t26.5 52q9 62 -48 85q-16 7 -45 7q-57 1 -92 -51l-78 57q27 47 79 73.5t113 22.5q80 -4 132 -57t52 -124q0 -38 -21.5 -73t-57.5 -56q48 -18 76.5 -67t28.5 -104q0 -89 -64 -140.5t-164 -51.5q-74 0 -130 36.5t-83 95.5l90 48
q13 -31 51 -55.5t72 -24.5h-1q60 0 91.5 28t31.5 72q0 42 -31.5 76.5t-85.5 33.5z" />
    <glyph glyph-name="four.oldstyle" horiz-adv-x="579" 
d="M180 43h171v255zM544 -50h-91v-138h-102v138h-334l348 516h88v-423h91v-93z" />
    <glyph glyph-name="five.oldstyle" horiz-adv-x="554" 
d="M410 29q0 58 -37.5 89.5t-93.5 31.5q-79 0 -158 -59l-61 45l56 331h357v-97h-274l-31 -165q21 16 56 26.5t66 10.5q95 0 158 -56.5t63 -156.5q0 -101 -69 -163t-182 -62q-68 0 -128.5 39.5t-92.5 105.5q11 5 45 25.5t42 24.5q20 -44 55.5 -69.5t78.5 -25.5q72 0 111 35.5
t39 89.5z" />
    <glyph glyph-name="six.oldstyle" horiz-adv-x="561" 
d="M401 203q0 49 -30.5 83.5t-77.5 35.5q-48 2 -84.5 -31.5t-36.5 -79.5q0 -50 33 -84t80 -35q48 -2 82 30.5t34 80.5zM303 421q85 0 143 -63.5t58 -159.5q-3 -90 -66.5 -149t-156.5 -59q-88 0 -147.5 61.5t-67.5 163.5q-6 51 -3 104.5t9 103.5t24.5 94.5t44.5 77t69 51
t98 16.5q64 -3 112 -30.5t79 -95.5l-93 -40q-34 70 -102 70t-108 -63t-32 -156q41 74 139 74z" />
    <glyph glyph-name="seven.oldstyle" horiz-adv-x="511" 
d="M45 467h462l-341 -653h-119l291 554h-293v99z" />
    <glyph glyph-name="eight.oldstyle" horiz-adv-x="570" 
d="M204 491q0 -33 23 -54.5t60 -21.5q35 1 57 23t22 53q0 30 -23 51.5t-58 21.5t-58 -21.5t-23 -51.5zM156 208q0 -50 37.5 -84.5t91.5 -34.5t91 34.5t37 84.5q0 48 -36 83t-89 35h-11q-51 -1 -86 -36t-35 -82zM104 492q0 71 52 121t129 50t130 -50t53 -121q0 -68 -51 -114
q46 -28 72.5 -73t26.5 -98q0 -91 -67 -154t-164 -63t-164 63t-67 154q0 54 26 99t72 72q-48 46 -48 114z" />
    <glyph glyph-name="nine.oldstyle" horiz-adv-x="540" 
d="M152 264q0 -49 30.5 -83.5t77.5 -35.5q48 -2 84.5 31.5t36.5 79.5q0 50 -33 84t-80 35q-48 2 -82 -30.5t-34 -80.5zM250 46q-85 0 -143 63.5t-58 159.5q3 90 66.5 149t156.5 59q88 0 147.5 -61.5t67.5 -163.5q6 -51 3 -104.5t-9 -103.5t-24.5 -94.5t-44.5 -77t-69 -51
t-98 -16.5q-64 3 -112 30.5t-79 95.5l93 40q34 -70 102 -70t108 63t32 156q-38 -74 -139 -74z" />
    <glyph glyph-name="Lslash.sc" horiz-adv-x="433" 
d="M185 390l84 53v-67l-84 -53v-233h229v-90h-324v264l-55 -35v67l55 36v247h95v-189z" />
    <glyph glyph-name="Zcaron.sc" horiz-adv-x="509" 
d="M252 709l63 70h79l-96 -136h-90l-96 136h79zM46 78l290 414h-279v87h401v-77l-292 -414h292v-88h-412v78z" />
    <glyph glyph-name="exclam.sc" horiz-adv-x="275" 
d="M81 45q0 24 16.5 40t40.5 16q25 0 41.5 -16t16.5 -40t-16.5 -39.5t-41.5 -15.5q-24 0 -40.5 15.5t-16.5 39.5zM98 152l-13 429h105l-14 -429h-78z" />
    <glyph glyph-name="ampersand.sc" horiz-adv-x="579" 
d="M358 355v71h87v-72h71v-74h-71v-104q0 -51 17 -76t68 -25v-84q-107 0 -144 60q-21 -28 -59.5 -44.5t-79.5 -16.5q-84 0 -138.5 52.5t-54.5 130.5q0 101 84 152q-44 35 -44 104q0 61 45.5 106t110.5 45q96 0 149 -83l-76 -48q-29 43 -68 43q-31 0 -50.5 -18.5t-19.5 -46.5
q0 -26 18 -49t51 -23h104zM358 280h-100q-50 0 -80.5 -29.5t-32.5 -70.5q-1 -42 29.5 -71.5t76.5 -29.5q107 0 107 146v55z" />
    <glyph glyph-name="question.sc" horiz-adv-x="427" 
d="M130 407h-88q0 81 48.5 129t121.5 48q74 0 124.5 -45t50.5 -119q0 -59 -34 -102t-86 -59q-36 -11 -44.5 -28.5t-10.5 -73.5h-89v42q0 60 27.5 93t82.5 51q29 9 46.5 29.5t17.5 47.5q0 32 -25.5 53t-59.5 21t-58 -24t-24 -63zM106 49q0 26 18.5 43.5t43.5 17.5
q27 0 44.5 -17t17.5 -44q0 -25 -18 -42t-44 -17q-25 0 -43.5 17t-18.5 42z" />
    <glyph glyph-name="A.sc" horiz-adv-x="570" 
d="M203 228h164l-82 228zM454 0l-55 143h-228l-54 -143h-101l219 579h100l219 -579h-100z" />
    <glyph glyph-name="B.sc" horiz-adv-x="552" 
d="M471 425q0 -83 -67 -115q45 -13 71.5 -54t26.5 -85q0 -72 -47.5 -121.5t-127.5 -49.5h-241v579h223q75 0 118.5 -41.5t43.5 -112.5zM182 345h124q32 0 50 22t18 55t-20 52t-55 19h-117v-148zM321 262h-139v-175h141q36 0 58.5 25.5t22.5 60.5q0 33 -23.5 61t-59.5 28z
" />
    <glyph glyph-name="C.sc" horiz-adv-x="596" 
d="M497 157l73 -58q-40 -51 -99.5 -80t-127.5 -29q-123 0 -208.5 87t-85.5 210q0 124 85.5 210.5t208.5 86.5q137 0 225 -106l-72 -57q-65 73 -153 73q-84 0 -142 -60t-58 -147q0 -86 58 -146t142 -60q93 0 154 76z" />
    <glyph glyph-name="D.sc" horiz-adv-x="625" 
d="M311 0h-225v579h225q122 0 192 -81.5t70 -209.5q0 -127 -70 -207.5t-192 -80.5zM180 88h131q80 0 123.5 56t43.5 144q0 89 -43.5 146.5t-123.5 57.5h-131v-404z" />
    <glyph glyph-name="E.sc" horiz-adv-x="499" 
d="M86 579h352v-86h-257v-164h225v-87h-225v-155h264v-87h-359v579z" />
    <glyph glyph-name="F.sc" horiz-adv-x="465" 
d="M86 579h347v-86h-252v-164h199v-87h-199v-242h-95v579z" />
    <glyph glyph-name="G.sc" horiz-adv-x="651" 
d="M544 501l-67 -62h-1q-56 56 -135 56q-84 0 -141.5 -60.5t-57.5 -147.5q0 -86 58 -147t141 -61q70 0 118 37t51 98h-161v81h268q0 -152 -73.5 -228.5t-202.5 -76.5q-124 0 -208.5 86.5t-84.5 210.5t84.5 210.5t208.5 86.5q122 0 203 -83z" />
    <glyph glyph-name="H.sc" horiz-adv-x="615" 
d="M529 579v-579h-96v245h-252v-245h-95v579h95v-248h252v248h96z" />
    <glyph glyph-name="I.sc" horiz-adv-x="267" 
d="M86 579h95v-579h-95v579z" />
    <glyph glyph-name="J.sc" horiz-adv-x="266" 
d="M-73 -195l8 89q24 -8 63 -8q46 0 67 27.5t21 71.5v594h94v-594q0 -84 -44 -137.5t-138 -53.5q-20 0 -71 11z" />
    <glyph glyph-name="K.sc" horiz-adv-x="516" 
d="M242 290l274 -290h-125l-210 228v-228h-95v579h95v-226l172 226h111z" />
    <glyph glyph-name="L.sc" horiz-adv-x="429" 
d="M86 579h95v-492h229v-87h-324v579z" />
    <glyph glyph-name="M.sc" horiz-adv-x="799" 
d="M398 176l194 403h83l71 -579h-95l-48 402l-164 -338h-79l-165 338l-49 -402h-93l70 579h83z" />
    <glyph glyph-name="N.sc" horiz-adv-x="596" 
d="M510 0h-88l-241 403v-403h-95v579h90l240 -398v398h94v-579z" />
    <glyph glyph-name="O.sc" horiz-adv-x="683" 
d="M48 287q0 124 84.5 210.5t207.5 86.5q124 0 209.5 -86.5t85.5 -210.5t-85.5 -210.5t-209.5 -86.5q-123 0 -207.5 86.5t-84.5 210.5zM142 287q0 -85 57.5 -145t140.5 -60q84 0 142 60t58 145q0 86 -58 145.5t-142 59.5q-83 0 -140.5 -59.5t-57.5 -145.5z" />
    <glyph glyph-name="P.sc" horiz-adv-x="532" 
d="M86 579h234q88 0 133.5 -54t45.5 -130q0 -78 -45 -131.5t-134 -53.5h-138v-210h-96v579zM319 493h-137v-196h133q43 0 66 29t23 69q0 39 -22 68.5t-63 29.5z" />
    <glyph glyph-name="Q.sc" horiz-adv-x="685" 
d="M505 39l58 -94l-72 -45l-64 102q-46 -12 -86 -12q-124 0 -208.5 86.5t-84.5 210.5t84.5 210.5t208.5 86.5q125 0 210.5 -86.5t85.5 -210.5q0 -76 -35.5 -141.5t-96.5 -106.5zM392 220l62 -101q40 27 63.5 71.5t23.5 96.5q0 86 -58 146.5t-142 60.5t-141.5 -60t-57.5 -147
q0 -80 52.5 -136t131.5 -67q27 0 49 2q-4 8 -36 58l-19 31z" />
    <glyph glyph-name="R.sc" horiz-adv-x="547" 
d="M346 215l151 -215h-115l-143 210h-57v-210h-96v579h227q88 0 133.5 -54t45.5 -130q0 -69 -36.5 -120t-109.5 -60zM310 493h-128v-196h124q44 0 66 29t22 69t-21 69t-63 29z" />
    <glyph glyph-name="S.sc" horiz-adv-x="503" 
d="M51 171h95q0 -38 31 -66t79 -28q47 0 74 21.5t31 53.5q5 36 -20.5 58.5t-67.5 32.5l-73 19q-143 37 -143 157q0 72 56 118.5t135 46.5q83 0 136.5 -47.5t53.5 -127.5h-94q0 39 -27 63t-70 24q-39 0 -67.5 -21.5t-28.5 -54.5q0 -53 74 -72l73 -19q84 -22 123.5 -70
t33.5 -112q-8 -68 -63 -112.5t-136 -44.5q-89 0 -147 53.5t-58 127.5z" />
    <glyph glyph-name="T.sc" horiz-adv-x="480" 
d="M23 579h434v-87h-169v-492h-96v492h-169v87z" />
    <glyph glyph-name="U.sc" horiz-adv-x="592" 
d="M296 81q50 0 86 33t36 86v378h94v-378q0 -94 -63 -152t-153 -58q-89 0 -152.5 58.5t-63.5 151.5v378h96v-378q0 -53 35 -86t85 -33z" />
    <glyph glyph-name="V.sc" horiz-adv-x="498" 
d="M128 579l121 -417l121 417h98l-175 -579h-87l-176 579h98z" />
    <glyph glyph-name="W.sc" horiz-adv-x="778" 
d="M656 579h102l-197 -579h-78l-94 335l-93 -335h-79l-196 579h101l134 -420l97 342h73l96 -342z" />
    <glyph glyph-name="X.sc" horiz-adv-x="552" 
d="M333 310l202 -310h-114l-145 231l-145 -231h-113l201 311l-180 268h113l124 -191l125 191h112z" />
    <glyph glyph-name="Y.sc" horiz-adv-x="564" 
d="M330 0h-97v265l-221 314h112l157 -226l158 226h115l-224 -314v-265z" />
    <glyph glyph-name="Z.sc" horiz-adv-x="509" 
d="M46 78l290 414h-279v87h401v-77l-292 -414h292v-88h-412v78z" />
    <glyph glyph-name="Scaron.sc" horiz-adv-x="503" 
d="M251 709l62 70h79l-96 -136h-89l-97 136h79zM146 171h-95q0 -74 58 -127.5t147 -53.5q81 0 136 44.5t63 112.5q6 64 -33.5 112t-123.5 70l-73 19q-74 19 -74 72q0 33 28.5 54.5t67.5 21.5q43 0 70 -24t27 -63h94q0 80 -53.5 127.5t-136.5 47.5q-79 0 -135 -46.5
t-56 -118.5q0 -120 143 -157l73 -19q42 -10 67.5 -32.5t20.5 -58.5q-4 -32 -31 -53.5t-74 -21.5q-48 0 -79 28t-31 66z" />
    <glyph glyph-name="OE.sc" horiz-adv-x="952" 
d="M539 579h351v-90h-256v-160h224v-89h-224v-150h264v-90h-359v75q-82 -85 -198 -85q-123 0 -207.5 86.5t-84.5 210.5t84.5 210.5t207.5 86.5q118 0 198 -85v80zM143 287q0 -84 57 -143t141 -59q83 0 140.5 62t57.5 147q-5 80 -62 138t-136 58q-84 0 -141 -59.5t-57 -143.5
z" />
    <glyph glyph-name="Ydieresis.sc" horiz-adv-x="564" 
d="M154 714q0 23 16.5 38.5t40.5 15.5q23 0 39.5 -15.5t16.5 -38.5q0 -24 -16 -39t-40 -15t-40.5 15t-16.5 39zM297 714q0 23 16.5 38.5t40.5 15.5q23 0 39.5 -15.5t16.5 -38.5q0 -24 -16 -39t-40 -15t-40.5 15t-16.5 39zM330 0h-97v265l-221 314h112l157 -226l158 226h115
l-224 -314v-265z" />
    <glyph glyph-name="exclamdown.sc" horiz-adv-x="275" 
d="M81 536q0 24 16.5 39.5t40.5 15.5q25 0 41.5 -15.5t16.5 -39.5t-16.5 -40t-41.5 -16q-24 0 -40.5 16t-16.5 40zM85 0l13 429h78l14 -429h-105z" />
    <glyph glyph-name="questiondown.sc" horiz-adv-x="425" 
d="M296 167h88q0 -81 -48.5 -129t-121.5 -48q-74 0 -124.5 45t-50.5 119q0 59 34 102t86 59q36 11 44.5 28.5t10.5 73.5h89v-42q0 -60 -27.5 -93t-82.5 -51q-29 -9 -46.5 -29.5t-17.5 -47.5q0 -32 25.5 -53t59.5 -21t58 24t24 63zM320 525q0 -26 -18.5 -43.5t-43.5 -17.5
q-27 0 -44.5 17t-17.5 44q0 25 18 42t44 17q25 0 43.5 -17t18.5 -42z" />
    <glyph glyph-name="Agrave.sc" horiz-adv-x="570" 
d="M241 644l-110 136h105l87 -136h-82zM203 228h164l-82 228zM454 0l-55 143h-228l-54 -143h-101l219 579h100l219 -579h-100z" />
    <glyph glyph-name="Aacute.sc" horiz-adv-x="570" 
d="M436 775l-109 -136h-82l87 136h104zM367 228h-164l82 228zM399 143l55 -143h100l-219 579h-100l-219 -579h101l54 143h228z" />
    <glyph glyph-name="Acircumflex.sc" horiz-adv-x="570" 
d="M342 644l-62 72l-62 -72h-78l96 137h89l97 -137h-80zM203 228h164l-82 228zM454 0l-55 143h-228l-54 -143h-101l219 579h100l219 -579h-100z" />
    <glyph glyph-name="Atilde.sc" horiz-adv-x="570" 
d="M243 692q-7 0 -12.5 -9t-6.5 -27h-60q3 52 25 77.5t50 27.5q17 0 41.5 -17t36.5 -17q7 0 13 8.5t7 25.5h59q-2 -55 -25.5 -79.5t-53.5 -24.5q-18 0 -42 17.5t-32 17.5zM203 228h164l-82 228zM454 0l-55 143h-228l-54 -143h-101l219 579h100l219 -579h-100z" />
    <glyph glyph-name="Adieresis.sc" horiz-adv-x="570" 
d="M150 714q0 23 16.5 38.5t40.5 15.5q23 0 39.5 -15.5t16.5 -38.5q0 -24 -16 -39t-40 -15t-40.5 15t-16.5 39zM293 714q0 23 16.5 38.5t39.5 15.5q24 0 40.5 -15.5t16.5 -38.5q0 -24 -16.5 -39t-40.5 -15t-40 15t-16 39zM367 228h-164l82 228zM399 143l55 -143h100
l-219 579h-100l-219 -579h101l54 143h228z" />
    <glyph glyph-name="Aring.sc" horiz-adv-x="570" 
d="M186 728q0 40 27 67t66 27q41 0 68 -27t27 -67q0 -39 -27.5 -66t-67.5 -27q-39 0 -66 27t-27 66zM239 728q0 -16 12 -28t28 -12q18 0 30.5 11.5t12.5 28.5t-12.5 29.5t-30.5 12.5q-16 0 -28 -12.5t-12 -29.5zM367 228h-164l82 228zM399 143l55 -143h100l-219 579h-100
l-219 -579h101l54 143h228z" />
    <glyph glyph-name="AE.sc" horiz-adv-x="809" 
d="M210 141l-90 -141h-113l367 579h373v-90h-256v-160h223v-89h-223v-150h264v-90h-359v141h-186zM265 232h131v211z" />
    <glyph glyph-name="Ccedilla.sc" horiz-adv-x="597" 
d="M282 -96q5 -11 15.5 -16t20.5 -1q23 11 14 39l-24 66q-112 13 -185.5 96.5t-73.5 198.5q0 124 85.5 211t208.5 87q137 0 225 -106l-72 -58q-63 73 -153 73q-84 0 -142 -60t-58 -147q0 -86 58 -146t142 -60q92 0 154 76l73 -57q-80 -99 -205 -109q2 -4 10 -18.5
t10.5 -20.5t6 -17.5t3.5 -21.5q0 -35 -26.5 -61t-63.5 -26q-36 0 -61.5 29t-25.5 74l62 -4q0 -14 2 -21z" />
    <glyph glyph-name="Egrave.sc" horiz-adv-x="499" 
d="M86 579h352v-86h-257v-164h225v-87h-225v-155h264v-87h-359v579zM238 644l-110 136h105l87 -136h-82z" />
    <glyph glyph-name="Eacute.sc" horiz-adv-x="499" 
d="M378 780l-110 -136h-82l87 136h105zM438 579h-352v-579h359v87h-264v155h225v87h-225v164h257v86z" />
    <glyph glyph-name="Ecircumflex.sc" horiz-adv-x="499" 
d="M86 579h352v-86h-257v-164h225v-87h-225v-155h264v-87h-359v579zM311 644l-62 72l-62 -72h-79l96 137h90l96 -137h-79z" />
    <glyph glyph-name="Edieresis.sc" horiz-adv-x="499" 
d="M123 714q0 23 17 38.5t41 15.5q23 0 39.5 -15.5t16.5 -38.5t-16.5 -38.5t-39.5 -15.5q-24 0 -41 15t-17 39zM266 714q0 23 16.5 38.5t40.5 15.5q23 0 39.5 -15.5t16.5 -38.5q0 -24 -16 -39t-40 -15t-40.5 15t-16.5 39zM438 579h-352v-579h359v87h-264v155h225v87h-225
v164h257v86z" />
    <glyph glyph-name="Igrave.sc" horiz-adv-x="267" 
d="M86 579h95v-579h-95v579zM-14 781h105l89 -134h-83z" />
    <glyph glyph-name="Iacute.sc" horiz-adv-x="267" 
d="M175 781h105l-111 -134h-83zM181 579h-95v-579h95v579z" />
    <glyph glyph-name="Icircumflex.sc" horiz-adv-x="267" 
d="M86 579h95v-579h-95v579zM195 644l-62 72l-62 -72h-79l96 137h90l96 -137h-79z" />
    <glyph glyph-name="Idieresis.sc" horiz-adv-x="267" 
d="M181 579h-95v-579h95v579zM6 714q0 23 17 38.5t41 15.5q23 0 39.5 -15.5t16.5 -38.5t-16.5 -38.5t-39.5 -15.5q-24 0 -41 15t-17 39zM149 714q0 23 16.5 38.5t40.5 15.5q23 0 39.5 -15.5t16.5 -38.5q0 -24 -16 -39t-40 -15t-40.5 15t-16.5 39z" />
    <glyph glyph-name="Eth.sc" horiz-adv-x="626" 
d="M315 0h-223v255h-78v65h78v259h223q121 0 190 -81.5t69 -209.5q0 -127 -69 -207.5t-190 -80.5zM186 320h129v-65h-129v-164h129q79 0 122 55t43 142q0 88 -43 144t-122 56h-129v-168z" />
    <glyph glyph-name="Ntilde.sc" horiz-adv-x="596" 
d="M261 692q-7 0 -12.5 -9t-6.5 -27h-60q3 52 25 77.5t50 27.5q17 0 41.5 -17t36.5 -17q7 0 13 8.5t7 25.5h59q-2 -55 -25.5 -79.5t-53.5 -24.5q-18 0 -42 17.5t-32 17.5zM510 0h-88l-241 403v-403h-95v579h90l240 -398v398h94v-579z" />
    <glyph glyph-name="Ograve.sc" horiz-adv-x="683" 
d="M300 644l-110 136h104l88 -136h-82zM48 287q0 124 84.5 210.5t207.5 86.5q124 0 209.5 -86.5t85.5 -210.5t-85.5 -210.5t-209.5 -86.5q-123 0 -207.5 86.5t-84.5 210.5zM142 287q0 -85 57.5 -145t140.5 -60q84 0 142 60t58 145q0 86 -58 145.5t-142 59.5
q-83 0 -140.5 -59.5t-57.5 -145.5z" />
    <glyph glyph-name="Oacute.sc" horiz-adv-x="683" 
d="M489 780l-109 -136h-82l87 136h104zM48 287q0 -124 84.5 -210.5t207.5 -86.5q124 0 209.5 86.5t85.5 210.5t-85.5 210.5t-209.5 86.5q-123 0 -207.5 -86.5t-84.5 -210.5zM142 287q0 86 57.5 145.5t140.5 59.5q84 0 142 -59.5t58 -145.5q0 -85 -58 -145t-142 -60
q-83 0 -140.5 60t-57.5 145z" />
    <glyph glyph-name="Ocircumflex.sc" horiz-adv-x="683" 
d="M403 644l-63 72l-61 -72h-79l96 137h89l96 -137h-78zM48 287q0 124 84.5 210.5t207.5 86.5q124 0 209.5 -86.5t85.5 -210.5t-85.5 -210.5t-209.5 -86.5q-123 0 -207.5 86.5t-84.5 210.5zM142 287q0 -85 57.5 -145t140.5 -60q84 0 142 60t58 145q0 86 -58 145.5t-142 59.5
q-83 0 -140.5 -59.5t-57.5 -145.5z" />
    <glyph glyph-name="Otilde.sc" horiz-adv-x="683" 
d="M48 287q0 124 84.5 210.5t207.5 86.5q124 0 209.5 -86.5t85.5 -210.5t-85.5 -210.5t-209.5 -86.5q-123 0 -207.5 86.5t-84.5 210.5zM142 287q0 -85 57.5 -145t140.5 -60q84 0 142 60t58 145q0 86 -58 145.5t-142 59.5q-83 0 -140.5 -59.5t-57.5 -145.5zM302 692
q-6 0 -12 -9t-7 -27h-60q3 52 25 77.5t50 27.5q17 0 41.5 -17t36.5 -17q7 0 13 8.5t7 25.5h59q-2 -55 -25.5 -79.5t-53.5 -24.5q-18 0 -42 17.5t-32 17.5z" />
    <glyph glyph-name="Odieresis.sc" horiz-adv-x="683" 
d="M213 714q0 23 16.5 38.5t40.5 15.5q23 0 39 -15.5t16 -38.5q0 -24 -16 -39t-39 -15q-24 0 -40.5 15t-16.5 39zM356 714q0 23 16 38.5t40 15.5t40 -15.5t16 -38.5q0 -24 -16 -39t-40 -15t-40 15t-16 39zM48 287q0 -124 84.5 -210.5t207.5 -86.5q124 0 209.5 86.5
t85.5 210.5t-85.5 210.5t-209.5 86.5q-123 0 -207.5 -86.5t-84.5 -210.5zM142 287q0 86 57.5 145.5t140.5 59.5q84 0 142 -59.5t58 -145.5q0 -85 -58 -145t-142 -60q-83 0 -140.5 60t-57.5 145z" />
    <glyph glyph-name="Oslash.sc" horiz-adv-x="683" 
d="M159 52l-67 -68l-43 43l67 69q-68 82 -68 191q0 124 84.5 210.5t207.5 86.5q104 0 186 -66l67 67l43 -42l-67 -67q66 -85 66 -189q0 -124 -85.5 -210.5t-209.5 -86.5q-102 0 -181 62zM142 287q0 -70 39 -125l280 289q-52 41 -121 41q-83 0 -140.5 -59.5t-57.5 -145.5z
M340 82q84 0 142 60t58 145q0 65 -37 121l-280 -288q52 -38 117 -38z" />
    <glyph glyph-name="Ugrave.sc" horiz-adv-x="592" 
d="M276 644l-110 136h105l87 -136h-82zM296 81q50 0 86 33t36 86v379h94v-379q0 -94 -63 -152t-153 -58q-89 0 -152.5 58.5t-63.5 151.5v379h96v-379q0 -53 35 -86t85 -33z" />
    <glyph glyph-name="Uacute.sc" horiz-adv-x="592" 
d="M421 780l-110 -136h-82l88 136h104zM296 81q50 0 86 33t36 86v379h94v-379q0 -94 -63 -152t-153 -58q-89 0 -152.5 58.5t-63.5 151.5v379h96v-379q0 -53 35 -86t85 -33z" />
    <glyph glyph-name="Ucircumflex.sc" horiz-adv-x="592" 
d="M357 644l-61 72l-62 -72h-79l96 137h89l96 -137h-79zM296 81q50 0 86 33t36 86v379h94v-379q0 -94 -63 -152t-153 -58q-89 0 -152.5 58.5t-63.5 151.5v379h96v-379q0 -53 35 -86t85 -33z" />
    <glyph glyph-name="Udieresis.sc" horiz-adv-x="592" 
d="M168 714q0 23 16.5 38.5t40.5 15.5q23 0 39 -15.5t16 -38.5q0 -24 -15.5 -39t-39.5 -15t-40.5 15t-16.5 39zM310 714q0 23 16.5 38.5t40.5 15.5t40.5 -15.5t16.5 -38.5q0 -24 -16.5 -39t-40.5 -15t-40.5 15t-16.5 39zM296 81q50 0 86 33t36 86v379h94v-379
q0 -94 -63 -152t-153 -58q-89 0 -152.5 58.5t-63.5 151.5v379h96v-379q0 -53 35 -86t85 -33z" />
    <glyph glyph-name="Yacute.sc" horiz-adv-x="564" 
d="M414 780l-110 -136h-82l87 136h105zM330 0h-97v265l-221 314h112l157 -226l158 226h115l-224 -314v-265z" />
    <glyph glyph-name="Thorn.sc" horiz-adv-x="501" 
d="M284 113h-104v-113h-94v579h94v-100h104q78 0 130 -50t52 -132t-52 -133t-130 -51zM180 200h103q37 0 63 27t26 69q0 44 -27 69.5t-67 27.5h-98v-193z" />
    <glyph glyph-name="Amacron.sc" horiz-adv-x="570" 
d="M170 743h221v-74h-221v74zM203 228h164l-82 228zM454 0l-55 143h-228l-54 -143h-101l219 579h100l219 -579h-100z" />
    <glyph glyph-name="Abreve.sc" horiz-adv-x="570" 
d="M169 760h69q0 -21 11 -34t31 -13t31 14t11 33h71q0 -51 -31 -81.5t-82 -30.5q-55 0 -83 32.5t-28 79.5zM367 228h-164l82 228zM399 143l55 -143h100l-219 579h-100l-219 -579h101l54 143h228z" />
    <glyph glyph-name="Cacute.sc" horiz-adv-x="596" 
d="M473 780l-110 -136h-82l88 136h104zM570 99l-73 58q-61 -76 -154 -76q-84 0 -142 60t-58 146q0 87 58 147t142 60q88 0 153 -73l72 57q-88 106 -225 106q-123 0 -208.5 -86.5t-85.5 -210.5q0 -123 85.5 -210t208.5 -87q68 0 127.5 29t99.5 80z" />
    <glyph glyph-name="Ccircumflex.sc" horiz-adv-x="596" 
d="M403 644l-63 72l-62 -72h-78l96 137h89l97 -137h-79zM497 157l73 -58q-40 -51 -99.5 -80t-127.5 -29q-123 0 -208.5 87t-85.5 210q0 124 85.5 210.5t208.5 86.5q137 0 225 -106l-72 -57q-65 73 -153 73q-84 0 -142 -60t-58 -147q0 -86 58 -146t142 -60q93 0 154 76z" />
    <glyph glyph-name="Cdotaccent.sc" horiz-adv-x="596" 
d="M273 721q0 24 17 39.5t41 15.5t41 -15.5t17 -39.5t-17 -39.5t-41 -15.5t-41 15.5t-17 39.5zM570 99l-73 58q-61 -76 -154 -76q-84 0 -142 60t-58 146q0 87 58 147t142 60q88 0 153 -73l72 57q-88 106 -225 106q-123 0 -208.5 -86.5t-85.5 -210.5q0 -123 85.5 -210
t208.5 -87q68 0 127.5 29t99.5 80z" />
    <glyph glyph-name="Ccaron.sc" horiz-adv-x="596" 
d="M570 99l-73 58q-61 -76 -154 -76q-84 0 -142 60t-58 146q0 87 58 147t142 60q88 0 153 -73l72 57q-88 106 -225 106q-123 0 -208.5 -86.5t-85.5 -210.5q0 -123 85.5 -210t208.5 -87q68 0 127.5 29t99.5 80zM327 709l62 70h79l-96 -136h-89l-97 136h79z" />
    <glyph glyph-name="Dcaron.sc" horiz-adv-x="625" 
d="M318 709l62 70h79l-96 -136h-89l-97 136h79zM86 0h225q122 0 192 80.5t70 207.5q0 128 -70 209.5t-192 81.5h-225v-579zM311 88h-131v404h131q80 0 123.5 -57.5t43.5 -146.5q0 -88 -43.5 -144t-123.5 -56z" />
    <glyph glyph-name="Aogonek.sc" horiz-adv-x="570" 
d="M505 0l-25 -73q-9 -28 14 -39q16 -6 28 7.5t10 30.5l61 4q0 -46 -25.5 -74.5t-61.5 -28.5q-38 0 -63.5 26.5t-25.5 60.5q0 11 4 24.5t7.5 20.5l12.5 24l11 21l-53 139h-228l-54 -143h-101l219 579h100l219 -579h-49zM285 456l-82 -228h165z" />
    <glyph glyph-name="Emacron.sc" horiz-adv-x="499" 
d="M86 579h352v-86h-257v-164h225v-87h-225v-155h264v-87h-359v579zM150 743h221v-74h-221v74z" />
    <glyph glyph-name="Ebreve.sc" horiz-adv-x="499" 
d="M136 760h70q0 -21 11 -34t32 -13q19 0 30 14t11 33h71q0 -52 -30.5 -82t-81.5 -30q-55 0 -84 32.5t-29 79.5zM438 579h-352v-579h359v87h-264v155h225v87h-225v164h257v86z" />
    <glyph glyph-name="Edotaccent.sc" horiz-adv-x="499" 
d="M207 721q0 24 17 39.5t41 15.5q25 0 42 -15.5t17 -39.5t-17 -39.5t-42 -15.5q-24 0 -41 15.5t-17 39.5zM438 579h-352v-579h359v87h-264v155h225v87h-225v164h257v86z" />
    <glyph glyph-name="Ecaron.sc" horiz-adv-x="499" 
d="M438 579h-352v-579h359v87h-264v155h225v87h-225v164h257v86zM260 709l62 70h79l-96 -136h-89l-97 136h79z" />
    <glyph glyph-name="Gcircumflex.sc" horiz-adv-x="651" 
d="M544 501l-67 -62h-1q-56 56 -135 56q-84 0 -141.5 -60.5t-57.5 -147.5q0 -86 58 -147t141 -61q70 0 118 37t51 98h-161v81h268q0 -152 -73.5 -228.5t-202.5 -76.5q-124 0 -208.5 86.5t-84.5 210.5t84.5 210.5t208.5 86.5q122 0 203 -83zM400 644l-62 72l-62 -72h-78
l96 137h89l97 -137h-80z" />
    <glyph glyph-name="Gbreve.sc" horiz-adv-x="651" 
d="M477 439l67 62q-81 83 -203 83q-124 0 -208.5 -86.5t-84.5 -210.5t84.5 -210.5t208.5 -86.5q129 0 202.5 76.5t73.5 228.5h-268v-81h161q-3 -61 -51 -98t-118 -37q-83 0 -141 61t-58 147q0 87 57.5 147.5t141.5 60.5q79 0 135 -56h1zM227 760h69q0 -21 11 -34t31 -13
t31 14t11 33h71q0 -51 -31 -81.5t-82 -30.5q-55 0 -83 32.5t-28 79.5z" />
    <glyph glyph-name="Eogonek.sc" horiz-adv-x="499" 
d="M388 0h-302v579h352v-86h-257v-164h225v-87h-225v-155h264v-86l-27 -68q-5 -10 -1 -22t15 -16q16 -6 29 8.5t8 29.5l62 3q1 -44 -24.5 -73t-62.5 -29q-38 0 -63 26.5t-25 60.5q0 25 6 37z" />
    <glyph glyph-name="Dcroat.sc" horiz-adv-x="626" 
d="M315 0h-223v253h-78v70h78v256h223q121 0 190 -81.5t69 -209.5q0 -127 -69 -207.5t-190 -80.5zM186 323h129v-70h-129v-162h129q79 0 122 55t43 142q0 88 -43 144t-122 56h-129v-165z" />
    <glyph glyph-name="Gdotaccent.sc" horiz-adv-x="651" 
d="M477 439l67 62q-81 83 -203 83q-124 0 -208.5 -86.5t-84.5 -210.5t84.5 -210.5t208.5 -86.5q129 0 202.5 76.5t73.5 228.5h-268v-81h161q-3 -61 -51 -98t-118 -37q-83 0 -141 61t-58 147q0 87 57.5 147.5t141.5 60.5q79 0 135 -56h1zM273 721q0 24 17.5 39.5t41.5 15.5
q25 0 41.5 -15.5t16.5 -39.5t-16.5 -39.5t-41.5 -15.5q-24 0 -41.5 15.5t-17.5 39.5z" />
    <glyph glyph-name="Hcircumflex.sc" horiz-adv-x="615" 
d="M529 579v-579h-96v245h-252v-245h-95v579h95v-248h252v248h96zM369 644l-62 72l-62 -72h-78l96 137h89l96 -137h-79z" />
    <glyph glyph-name="Hbar.sc" horiz-adv-x="622" 
d="M532 481h59v-56h-59v-425h-94v244h-253v-244h-95v425h-57v56h57v98h95v-98h253v98h94v-98zM185 332h253v93h-253v-93z" />
    <glyph glyph-name="Itilde.sc" horiz-adv-x="267" 
d="M86 579h95v-579h-95v579zM96 692q-6 0 -12 -9t-7 -27h-60q3 52 25 77.5t50 27.5q17 0 41.5 -17t36.5 -17q7 0 13 8.5t7 25.5h59q-2 -55 -25.5 -79.5t-53.5 -24.5q-18 0 -42 17.5t-32 17.5z" />
    <glyph glyph-name="Imacron.sc" horiz-adv-x="267" 
d="M86 579h95v-579h-95v579zM23 743h221v-74h-221v74z" />
    <glyph glyph-name="Iogonek.sc" horiz-adv-x="267" 
d="M86 5v574h95v-579h-42l-25 -73q-9 -28 13 -39q16 -6 28 7.5t10 30.5l61 4q0 -45 -25.5 -74t-61.5 -29q-37 0 -63 26.5t-26 60.5q0 23 7 37z" />
    <glyph glyph-name="IJ.sc" horiz-adv-x="533" 
d="M86 579h95v-579h-95v579zM194 -195l8 89q24 -8 63 -8q46 0 67 27.5t21 71.5v594h94v-594q0 -84 -44 -137.5t-138 -53.5q-20 0 -71 11z" />
    <glyph glyph-name="Jcircumflex.sc" horiz-adv-x="263" 
d="M189 644l-63 72l-61 -72h-79l96 137h90l95 -137h-78zM-73 -194l9 86q21 -8 61 -8q46 0 67.5 28.5t21.5 72.5v593h91v-593q0 -84 -43.5 -136.5t-136.5 -52.5q-26 0 -70 10z" />
    <glyph glyph-name="Lacute.sc" horiz-adv-x="429" 
d="M279 773l-109 -137h-82l86 137h105zM181 579h-95v-579h324v87h-229v492z" />
    <glyph glyph-name="Lcaron.sc" horiz-adv-x="431" 
d="M295 404l-60 16q41 58 43 117q2 18 0 39h87q-3 -118 -70 -172zM86 579h95v-492h229v-87h-324v579z" />
    <glyph glyph-name="Ldot.sc" horiz-adv-x="429" 
d="M86 579h95v-492h229v-87h-324v579zM245 230q0 22 15.5 37t37.5 15q23 0 39 -15t16 -37t-16 -37t-39 -15q-22 0 -37.5 15t-15.5 37z" />
    <glyph glyph-name="Nacute.sc" horiz-adv-x="596" 
d="M426 780l-110 -136h-82l87 136h105zM422 0h88v579h-94v-398l-240 398h-90v-579h95v403z" />
    <glyph glyph-name="Ncaron.sc" horiz-adv-x="596" 
d="M296 709l62 70h78l-95 -136h-90l-96 136h79zM422 0h88v579h-94v-398l-240 398h-90v-579h95v403z" />
    <glyph glyph-name="Omacron.sc" horiz-adv-x="683" 
d="M230 743h221v-74h-221v74zM48 287q0 124 84.5 210.5t207.5 86.5q124 0 209.5 -86.5t85.5 -210.5t-85.5 -210.5t-209.5 -86.5q-123 0 -207.5 86.5t-84.5 210.5zM142 287q0 -85 57.5 -145t140.5 -60q84 0 142 60t58 145q0 86 -58 145.5t-142 59.5q-83 0 -140.5 -59.5
t-57.5 -145.5z" />
    <glyph glyph-name="Obreve.sc" horiz-adv-x="683" 
d="M228 760h69q0 -21 11.5 -34t31.5 -13t31 14t11 33h71q0 -51 -31 -81.5t-82 -30.5q-55 0 -83.5 32.5t-28.5 79.5zM48 287q0 -124 84.5 -210.5t207.5 -86.5q124 0 209.5 86.5t85.5 210.5t-85.5 210.5t-209.5 86.5q-123 0 -207.5 -86.5t-84.5 -210.5zM142 287
q0 86 57.5 145.5t140.5 59.5q84 0 142 -59.5t58 -145.5q0 -85 -58 -145t-142 -60q-83 0 -140.5 60t-57.5 145z" />
    <glyph glyph-name="Ohungarumlaut.sc" horiz-adv-x="683" 
d="M402 779l-85 -136h-80l76 136h89zM525 779l-95 -136h-80l86 136h89zM48 287q0 -124 84.5 -210.5t207.5 -86.5q124 0 209.5 86.5t85.5 210.5t-85.5 210.5t-209.5 86.5q-123 0 -207.5 -86.5t-84.5 -210.5zM142 287q0 86 57.5 145.5t140.5 59.5q84 0 142 -59.5t58 -145.5
q0 -85 -58 -145t-142 -60q-83 0 -140.5 60t-57.5 145z" />
    <glyph glyph-name="Racute.sc" horiz-adv-x="547" 
d="M375 780l-109 -136h-82l88 136h103zM497 0l-151 215q73 9 109.5 60t36.5 120q0 76 -45.5 130t-133.5 54h-227v-579h96v210h57l143 -210h115zM182 493h128q42 0 63 -29t21 -69t-22 -69t-66 -29h-124v196z" />
    <glyph glyph-name="Rcaron.sc" horiz-adv-x="547" 
d="M272 709l62 70h79l-96 -136h-90l-97 136h80zM497 0l-151 215q73 9 109.5 60t36.5 120q0 76 -45.5 130t-133.5 54h-227v-579h96v210h57l143 -210h115zM182 493h128q42 0 63 -29t21 -69t-22 -69t-66 -29h-124v196z" />
    <glyph glyph-name="Sacute.sc" horiz-adv-x="503" 
d="M377 780l-110 -136h-82l87 136h105zM146 171h-95q0 -74 58 -127.5t147 -53.5q81 0 136 44.5t63 112.5q6 64 -33.5 112t-123.5 70l-73 19q-74 19 -74 72q0 33 28.5 54.5t67.5 21.5q43 0 70 -24t27 -63h94q0 80 -53.5 127.5t-136.5 47.5q-79 0 -135 -46.5t-56 -118.5
q0 -120 143 -157l73 -19q42 -10 67.5 -32.5t20.5 -58.5q-4 -32 -31 -53.5t-74 -21.5q-48 0 -79 28t-31 66z" />
    <glyph glyph-name="Scircumflex.sc" horiz-adv-x="503" 
d="M309 644l-62 72l-62 -72h-79l96 137h90l95 -137h-78zM51 171h95q0 -38 31 -66t79 -28q47 0 74 21.5t31 53.5q5 36 -20.5 58.5t-67.5 32.5l-73 19q-143 37 -143 157q0 72 56 118.5t135 46.5q83 0 136.5 -47.5t53.5 -127.5h-94q0 39 -27 63t-70 24q-39 0 -67.5 -21.5
t-28.5 -54.5q0 -53 74 -72l73 -19q84 -22 123.5 -70t33.5 -112q-8 -68 -63 -112.5t-136 -44.5q-89 0 -147 53.5t-58 127.5z" />
    <glyph glyph-name="Scedilla.sc" horiz-adv-x="502" 
d="M305 -4l7 -13.5l7.5 -14t6 -13t5.5 -14.5t3.5 -13.5t1.5 -14.5q0 -34 -25.5 -60.5t-63.5 -26.5q-36 0 -61.5 29t-25.5 74l62 -4q-3 -16 9.5 -30t28.5 -8q23 12 14 39l-27 64q-85 2 -140.5 55t-55.5 126h95q0 -37 31 -65.5t79 -28.5q47 0 73 21t32 54q9 67 -88 91l-73 19
q-143 37 -143 157q0 72 56 118.5t135 46.5q82 0 135.5 -48t53.5 -127h-94q0 39 -26.5 62.5t-69.5 23.5q-40 0 -68.5 -20.5t-28.5 -55.5q0 -53 75 -71l73 -19q74 -21 113 -61t43 -92q5 -66 -37 -116.5t-112 -63.5z" />
    <glyph glyph-name="Utilde.sc" horiz-adv-x="592" 
d="M296 81q50 0 86 33t36 86v378h94v-378q0 -94 -63 -152t-153 -58q-89 0 -152.5 58.5t-63.5 151.5v378h96v-378q0 -53 35 -86t85 -33zM257 692q-7 0 -12.5 -9t-6.5 -27h-60q3 52 25 77.5t50 27.5q17 0 41.5 -17t36.5 -17q7 0 13 8.5t7 25.5h59q-2 -55 -25.5 -79.5
t-53.5 -24.5q-18 0 -42 17.5t-32 17.5z" />
    <glyph glyph-name="Umacron.sc" horiz-adv-x="592" 
d="M186 743h221v-74h-221v74zM296 81q50 0 86 33t36 86v378h94v-378q0 -94 -63 -152t-153 -58q-89 0 -152.5 58.5t-63.5 151.5v378h96v-378q0 -53 35 -86t85 -33z" />
    <glyph glyph-name="Ubreve.sc" horiz-adv-x="592" 
d="M184 760h70q0 -21 11 -34t31 -13q19 0 30 14t11 33h72q0 -51 -31 -81.5t-82 -30.5q-56 0 -84 32.5t-28 79.5zM296 81q50 0 86 33t36 86v378h94v-378q0 -94 -63 -152t-153 -58q-89 0 -152.5 58.5t-63.5 151.5v378h96v-378q0 -53 35 -86t85 -33z" />
    <glyph glyph-name="Uring.sc" horiz-adv-x="592" 
d="M202 728q0 40 27 67t66 27q41 0 68 -27t27 -67q0 -39 -27.5 -66t-67.5 -27q-39 0 -66 27t-27 66zM255 728q0 -16 12 -28t28 -12q17 0 30 12t13 28q0 17 -13 29.5t-30 12.5q-16 0 -28 -12.5t-12 -29.5zM296 81q50 0 86 33t36 86v378h94v-378q0 -94 -63 -152t-153 -58
q-89 0 -152.5 58.5t-63.5 151.5v378h96v-378q0 -53 35 -86t85 -33z" />
    <glyph glyph-name="Uhungarumlaut.sc" horiz-adv-x="592" 
d="M296 81q50 0 86 33t36 86v378h94v-378q0 -94 -63 -152t-153 -58q-89 0 -152.5 58.5t-63.5 151.5v378h96v-378q0 -53 35 -86t85 -33z" />
    <glyph glyph-name="Uogonek.sc" horiz-adv-x="592" 
d="M240 -78q1 15 8 33l20 37q-80 8 -134 65t-54 142v378h96v-378q0 -52 35.5 -85.5t84.5 -33.5q50 0 86 33.5t36 85.5v378h94v-378q0 -85 -53.5 -142t-133.5 -66q-3 -10 -7 -21l-9 -24.5t-8 -20.5q-9 -28 14 -39q16 -6 28 7.5t10 30.5l62 4q0 -47 -25.5 -75t-61.5 -28
q-38 0 -64 26.5t-26 60.5q0 4 2 10z" />
    <glyph glyph-name="Wcircumflex.sc" horiz-adv-x="778" 
d="M451 644l-62 72l-62 -72h-79l96 137h89l97 -137h-79zM656 579h102l-197 -579h-78l-94 335l-93 -335h-79l-196 579h101l134 -420l97 342h73l96 -342z" />
    <glyph glyph-name="Ycircumflex.sc" horiz-adv-x="564" 
d="M344 644l-63 72l-61 -72h-78l95 137h90l96 -137h-79zM330 0h-97v265l-221 314h112l157 -226l158 226h115l-224 -314v-265z" />
    <glyph glyph-name="Tcaron.sc" horiz-adv-x="481" 
d="M241 709l62 70h79l-97 -136h-89l-96 136h79zM282 0v501h178v83h-439v-83h177v-501h84z" />
    <glyph glyph-name="Tbar.sc" horiz-adv-x="470" 
d="M277 350h112v-57h-112v-293h-84v293h-110v57h110v151h-177v83h439v-83h-178v-151z" />
    <glyph glyph-name="Zacute.sc" horiz-adv-x="509" 
d="M46 78l290 414h-279v87h401v-77l-292 -414h292v-88h-412v78zM384 780l-111 -136h-82l88 136h105z" />
    <glyph glyph-name="Zdotaccent.sc" horiz-adv-x="509" 
d="M46 78l290 414h-279v87h401v-77l-292 -414h292v-88h-412v78zM196 721q0 24 17.5 39.5t41.5 15.5q25 0 41.5 -15.5t16.5 -39.5t-16.5 -39.5t-41.5 -15.5q-24 0 -41.5 15.5t-17.5 39.5z" />
    <glyph glyph-name="Wgrave.sc" horiz-adv-x="778" 
d="M326 644l-111 136h105l88 -136h-82zM656 579h102l-197 -579h-78l-94 335l-93 -335h-79l-196 579h101l134 -420l97 342h73l96 -342z" />
    <glyph glyph-name="Wacute.sc" horiz-adv-x="778" 
d="M563 780l-111 -136h-82l88 136h105zM758 579h-102l-134 -420l-96 342h-73l-97 -342l-134 420h-101l196 -579h79l93 335l94 -335h78z" />
    <glyph glyph-name="Wdieresis.sc" horiz-adv-x="778" 
d="M261 714q0 23 16.5 38.5t40.5 15.5q23 0 39.5 -15.5t16.5 -38.5q0 -24 -16 -39t-40 -15t-40.5 15t-16.5 39zM403 714q0 23 17 38.5t41 15.5q23 0 39.5 -15.5t16.5 -38.5q0 -24 -16 -39t-40 -15t-41 15t-17 39zM758 579h-102l-134 -420l-96 342h-73l-97 -342l-134 420
h-101l196 -579h79l93 335l94 -335h78z" />
    <glyph glyph-name="Aringacute.sc" horiz-adv-x="570" 
d="M421 918l-90 -112q44 -27 44 -80q0 -39 -28 -66t-68 -27q-39 0 -65.5 27t-26.5 66q0 32 18 56.5t46 33.5q18 31 65 102h105zM240 726q0 -16 11.5 -28t27.5 -12q19 0 31.5 11.5t12.5 28.5t-12.5 29.5t-31.5 12.5q-16 0 -27.5 -12.5t-11.5 -29.5zM367 228h-164l82 228z
M399 143l55 -143h100l-219 579h-100l-219 -579h101l54 143h228z" />
    <glyph glyph-name="AEacute.sc" horiz-adv-x="809" 
d="M584 780l-110 -136h-82l88 136h104zM120 0l90 141h186v-141h359v90h-264v150h223v89h-223v160h256v90h-373l-367 -579h113zM396 232h-131l131 211v-211z" />
    <glyph glyph-name="Oslashacute.sc" horiz-adv-x="683" 
d="M486 780l-111 -136h-81l87 136h105zM92 -16l67 68q79 -62 181 -62q124 0 209.5 86.5t85.5 210.5q0 104 -66 189l67 67l-43 42l-67 -67q-82 66 -186 66q-123 0 -207.5 -86.5t-84.5 -210.5q0 -109 68 -191l-67 -69zM142 287q0 86 57.5 145.5t140.5 59.5q69 0 121 -41
l-280 -289q-39 55 -39 125zM340 82q-65 0 -117 38l280 288q37 -56 37 -121q0 -85 -58 -145t-142 -60z" />
    <glyph glyph-name="Ibreve.sc" horiz-adv-x="267" 
d="M181 579h-95v-579h95v579zM21 760h70q0 -21 11 -34t31 -13q19 0 30 14t11 33h72q0 -51 -31 -81.5t-82 -30.5q-56 0 -84 32.5t-28 79.5z" />
    <glyph glyph-name="Eng.sc" horiz-adv-x="594" 
d="M179 400v-400h-93v579h89l238 -400v400h95v-571q0 -209 -182 -209q-29 0 -71 11l8 93q34 -6 49 -8q30 -2 47 6q54 17 54 90q0 19 -9 35z" />
    <glyph glyph-name="Ygrave.sc" horiz-adv-x="564" 
d="M252 644l-110 136h104l88 -136h-82zM330 0h-97v265l-221 314h112l157 -226l158 226h115l-224 -314v-265z" />
    <glyph glyph-name="Gcommaaccent.sc" horiz-adv-x="651" 
d="M544 501l-67 -62h-1q-56 56 -135 56q-84 0 -141.5 -60.5t-57.5 -147.5q0 -86 58 -147t141 -61q70 0 118 37t51 98h-161v81h268q0 -152 -73.5 -228.5t-202.5 -76.5q-124 0 -208.5 86.5t-84.5 210.5t84.5 210.5t208.5 86.5q122 0 203 -83zM307 -220l-53 20q26 37 35.5 71
t3.5 81h83q1 -114 -69 -172z" />
    <glyph glyph-name="Kcommaaccent.sc" horiz-adv-x="516" 
d="M242 290l274 -290h-125l-210 228v-228h-95v579h95v-226l172 226h111zM244 -220l-53 20q26 37 35.5 71t3.5 81h83q1 -114 -69 -172z" />
    <glyph glyph-name="Lcommaaccent.sc" horiz-adv-x="429" 
d="M86 579h95v-492h229v-87h-324v579zM216 -220l-53 20q26 37 35.5 71t3.5 81h83q1 -114 -69 -172z" />
    <glyph glyph-name="Ncommaaccent.sc" horiz-adv-x="596" 
d="M510 0h-88l-241 402v-402h-95v579h90l240 -397v397h94v-579zM267 -220l-53 20q26 37 35.5 71t3.5 81h83q1 -114 -69 -172z" />
    <glyph glyph-name="Rcommaaccent.sc" horiz-adv-x="547" 
d="M346 215l151 -215h-115l-143 210h-57v-210h-96v579h227q88 0 133.5 -54t45.5 -130q0 -69 -36.5 -120t-109.5 -60zM310 493h-128v-196h124q44 0 66 29t22 69t-21 69t-63 29zM242 -220l-53 20q26 37 35.5 71t3.5 81h83q1 -114 -69 -172z" />
    <glyph glyph-name="Tcommaaccent.sc" horiz-adv-x="480" 
d="M23 579h434v-87h-169v-492h-96v492h-169v87zM213 -220l-53 20q26 37 35.5 71t3.5 81h83q1 -114 -69 -172z" />
    <glyph glyph-name="Scommaaccent.sc" horiz-adv-x="503" 
d="M51 171h95q0 -38 31 -66t79 -28q47 0 74 21.5t31 53.5q5 36 -20.5 58.5t-67.5 32.5l-73 19q-143 37 -143 157q0 72 56 118.5t135 46.5q83 0 136.5 -47.5t53.5 -127.5h-94q0 39 -27 63t-70 24q-39 0 -67.5 -21.5t-28.5 -54.5q0 -53 74 -72l73 -19q84 -22 123.5 -70
t33.5 -112q-8 -68 -63 -112.5t-136 -44.5q-89 0 -147 53.5t-58 127.5zM229 -220l-53 20q26 37 35.5 71t3.5 81h83q1 -114 -69 -172z" />
    <glyph glyph-name="Idotaccent.sc" horiz-adv-x="267" 
d="M181 579h-95v-579h95v579zM76 721q0 24 17.5 39.5t41.5 15.5q25 0 41.5 -15.5t16.5 -39.5t-16.5 -39.5t-41.5 -15.5q-24 0 -41.5 15.5t-17.5 39.5z" />
    <glyph glyph-name="zero.numr" horiz-adv-x="361" 
d="M38 457q0 95 31.5 148.5t110.5 53.5q41 0 70 -15t44.5 -44t22 -63.5t6.5 -79.5q0 -199 -143 -199q-142 0 -142 199zM102 457q0 -136 78 -136q79 0 79 136q0 138 -79 138q-78 0 -78 -138z" />
    <glyph glyph-name="one.numr" horiz-adv-x="209" 
d="M91 264v297l-67 -33v60l132 70v-394h-65z" />
    <glyph glyph-name="two.numr" horiz-adv-x="318" 
d="M34 295l157 190q26 31 26 57q0 24 -18 39.5t-44 15.5q-25 0 -44 -17t-23 -45l-58 14q8 50 43 80t83 30q52 0 88 -33t36 -84q0 -54 -42 -101l-98 -114h139v-63h-245v31z" />
    <glyph glyph-name="three.numr" horiz-adv-x="319" 
d="M91 564q-6 5 -24.5 19t-24.5 18q17 28 48.5 44t67.5 14q49 -2 80.5 -34t30.5 -75q0 -45 -43 -76q59 -27 58 -98q-1 -54 -42 -86t-97 -31q-37 1 -73 23t-51 56l55 30q9 -18 30.5 -31t42.5 -14q28 -1 47.5 14.5t20.5 40.5t-14.5 44t-45.5 19h-52v60h46q37 0 47 41
q2 22 -11.5 38t-40.5 16q-32 0 -55 -32z" />
    <glyph glyph-name="four.numr" horiz-adv-x="357" 
d="M277 344v-80h-65v80h-197l208 309h54v-250h54v-59h-54zM119 403h93v142z" />
    <glyph glyph-name="five.numr" horiz-adv-x="338" 
d="M79 376q11 -26 33.5 -40.5t48.5 -14.5q38 0 61 20.5t23 50.5q0 32 -22 49.5t-52 17.5q-50 0 -104 -35l-25 23l34 206h207v-61h-154l-16 -88q27 15 65 15q55 0 92.5 -33.5t37.5 -93.5q0 -61 -40 -97.5t-107 -36.5q-41 0 -78.5 21.5t-57.5 59.5q6 5 27 19z" />
    <glyph glyph-name="six.numr" horiz-adv-x="338" 
d="M301 579l-59 -24q-20 42 -59 42q-38 0 -60 -36t-20 -91q23 46 79 46q51 0 86.5 -39t34.5 -96q-2 -54 -40.5 -89.5t-93.5 -34.5q-54 2 -89.5 37.5t-40.5 96.5q0 31 -0.5 67t8.5 72t23 64.5t43.5 46t70.5 16.5q83 -4 117 -78zM107 389q0 -28 19 -47.5t46 -20.5t46 17.5
t20 46.5t-17 47.5t-44 20.5q-28 1 -48 -17.5t-22 -46.5z" />
    <glyph glyph-name="seven.numr" horiz-adv-x="317" 
d="M310 653l-204 -389h-74l171 327h-171v62h278z" />
    <glyph glyph-name="eight.numr" horiz-adv-x="342" 
d="M62 555q0 44 31.5 74t77.5 30t78 -30t32 -74q0 -39 -29 -66q57 -35 57 -102q0 -54 -40 -91.5t-98 -37.5t-98 37.5t-40 91.5q0 68 56 102q-27 29 -27 66zM97 388q0 -28 21.5 -47.5t52.5 -19.5t52.5 19.5t21.5 47.5q0 27 -21.5 48.5t-51.5 21.5h-6q-28 0 -48.5 -21.5
t-20.5 -48.5zM126 555q0 -19 13 -32t33 -13q20 1 32.5 14.5t12.5 30.5t-13.5 29.5t-32.5 12.5q-20 0 -32.5 -12.5t-12.5 -29.5z" />
    <glyph glyph-name="nine.numr" horiz-adv-x="338" 
d="M36 336l59 25q19 -43 59 -43q38 0 59.5 36t20.5 91q-23 -46 -79 -46q-51 0 -86.5 39t-34.5 96q2 54 40 89.5t94 34.5q53 -2 89 -37.5t41 -96.5q1 -31 1.5 -66.5t-9 -71.5t-24 -65t-44 -46.5t-69.5 -16.5q-83 4 -117 78zM230 526q0 28 -19 47.5t-46 20.5t-46 -17.5
t-20 -46.5t17 -47.5t44 -20.5q29 0 49 18t21 46z" />
    <glyph glyph-name="zero.dnom" horiz-adv-x="361" 
d="M38 194q0 94 31.5 147.5t110.5 53.5q80 0 111.5 -53.5t31.5 -147.5q0 -93 -32 -146t-111 -53t-110.5 53t-31.5 146zM102 194q0 -136 78 -136q79 0 79 136q0 137 -79 137q-78 0 -78 -137z" />
    <glyph glyph-name="one.dnom" horiz-adv-x="209" 
d="M91 0v297l-67 -33v60l132 70v-394h-65z" />
    <glyph glyph-name="two.dnom" horiz-adv-x="319" 
d="M35 32l157 189q26 31 26 57q0 24 -18 39.5t-44 15.5q-25 0 -44 -17t-23 -45l-58 14q8 50 43 80t83 30q52 0 88 -33t36 -84q0 -52 -42 -101l-98 -114h139v-63h-245v32z" />
    <glyph glyph-name="three.dnom" horiz-adv-x="319" 
d="M91 300q-6 4 -24.5 18t-24.5 19q17 28 48.5 44t67.5 14q49 -2 80.5 -34t30.5 -75q0 -45 -43 -76q59 -27 58 -97q-1 -55 -42 -87t-97 -30q-37 1 -72.5 23t-51.5 55q6 3 27 15l28 16q9 -19 30 -32t43 -14q28 0 47.5 15.5t20.5 39.5q1 25 -14.5 44t-45.5 19h-52v60h46
q37 0 47 41q2 22 -11.5 38t-40.5 16q-33 0 -55 -32z" />
    <glyph glyph-name="four.dnom" horiz-adv-x="357" 
d="M277 80v-80h-65v80h-197l208 310h54v-251h54v-59h-54zM119 139h93v143z" />
    <glyph glyph-name="five.dnom" horiz-adv-x="338" 
d="M79 112q11 -26 33.5 -40.5t48.5 -14.5q38 0 61 21t23 51q0 32 -22 49t-52 17q-50 0 -104 -35l-25 23l34 206h207v-61h-154l-16 -87q28 14 65 14q55 0 92.5 -33t37.5 -93q0 -61 -40 -98t-107 -37q-41 0 -78.5 21.5t-57.5 59.5q6 5 27 18.5t27 18.5z" />
    <glyph glyph-name="six.dnom" horiz-adv-x="338" 
d="M301 315l-59 -24q-20 42 -59 42q-38 0 -60 -36t-20 -91q22 46 79 46q51 0 86.5 -39t34.5 -95q-2 -55 -40.5 -90.5t-93.5 -34.5q-54 2 -89.5 38t-40.5 96q-3 46 0.5 86.5t16 85t45.5 70.5t83 25q83 -4 117 -79zM107 125q0 -28 19 -47.5t46 -20.5t46 18t20 46
q1 28 -16.5 47.5t-44.5 20.5q-28 1 -48 -17.5t-22 -46.5z" />
    <glyph glyph-name="seven.dnom" horiz-adv-x="316" 
d="M310 390l-204 -390h-74l171 327h-171v63h278z" />
    <glyph glyph-name="eight.dnom" horiz-adv-x="342" 
d="M62 291q0 44 31.5 74t77.5 30t78 -30t32 -74q0 -37 -29 -66q57 -35 57 -102q0 -54 -40 -91t-98 -37t-98 37t-40 91q0 68 56 102q-27 29 -27 66zM97 124q0 -28 21.5 -47.5t52.5 -19.5t52.5 19.5t21.5 47.5q0 27 -21.5 48.5t-51.5 21.5h-6q-29 0 -49 -21t-20 -49zM126 291
q0 -19 13 -32t33 -13q20 1 32.5 14.5t12.5 30.5t-13.5 29.5t-32.5 12.5q-20 0 -32.5 -12t-12.5 -30z" />
    <glyph glyph-name="nine.dnom" horiz-adv-x="337" 
d="M36 72l59 25q20 -42 59 -42q38 0 59.5 36t20.5 90q-23 -46 -79 -46q-51 0 -86.5 39t-34.5 96q2 55 40 90.5t94 33.5q53 -2 89 -37.5t41 -96.5q1 -31 1.5 -66t-9 -71.5t-24 -65.5t-44 -46.5t-69.5 -16.5q-83 4 -117 78zM230 262q0 28 -19 48t-46 20q-27 1 -46 -17.5
t-20 -45.5q-1 -28 17 -48t44 -20q28 -1 48 17t22 46z" />
    <glyph glyph-name="l.alt1" horiz-adv-x="288" 
d="M287 96v-96h-50q-170 0 -170 201v520h104v-520q-2 -105 78 -105h38z" />
    <glyph glyph-name="a.alt1" horiz-adv-x="537" 
d="M221 84q40 0 83 14t63 47v35q-66 27 -125 27q-57 0 -79.5 -21.5t-22.5 -47.5q0 -24 20.5 -39t60.5 -15zM118 320l-59 63q66 94 198 94q101 0 157 -51t56 -147v-279h-102v51q-48 -61 -151 -61q-81 0 -129.5 39.5t-48.5 108.5q0 66 48.5 108t152.5 42q64 0 128 -30v21
q0 47 -31.5 76t-86.5 29q-37 0 -73.5 -17.5t-58.5 -46.5z" />
    <glyph glyph-name="y.alt1" horiz-adv-x="507" 
d="M170 -44l29 65l-185 446h110l130 -322l130 322h111l-231 -550q-37 -82 -77.5 -116t-112.5 -34q-26 0 -60 8v89q23 -4 59 -4t55.5 22.5t41.5 73.5z" />
    <glyph glyph-name="lslash.alt1" horiz-adv-x="301" 
d="M298 96v-96h-50q-170 0 -170 201v104l-64 -41v72l64 40v345h104v-279l86 55v-71l-86 -55v-170q-2 -105 78 -105h38z" />
    <glyph glyph-name="lacute.alt1" horiz-adv-x="288" 
d="M174 928h116l-126 -158h-90zM287 0v96h-38q-80 0 -78 105v520h-104v-520q0 -201 170 -201h50z" />
    <glyph glyph-name="lcommaaccent.alt1" horiz-adv-x="288" 
d="M171 -259l-60 23q31 42 42 79.5t7 99.5h97q-2 -136 -86 -202zM287 96v-96h-50q-170 0 -170 201v520h104v-520q-2 -105 78 -105h38z" />
    <glyph glyph-name="lcaron.alt1" horiz-adv-x="288" 
d="M273 511l-64 21q31 43 44 85.5t9 103.5h97q-3 -144 -86 -210zM287 0v96h-38q-80 0 -78 105v520h-104v-520q0 -201 170 -201h50z" />
    <glyph glyph-name="aacute.alt1" horiz-adv-x="537" 
d="M307 698h116l-126 -158h-90zM221 84q40 0 83 14t63 47v35q-66 27 -125 27q-57 0 -79.5 -21.5t-22.5 -47.5q0 -24 20.5 -39t60.5 -15zM118 320l-59 63q66 94 198 94q101 0 157 -51t56 -147v-279h-102v51q-48 -61 -151 -61q-81 0 -129.5 39.5t-48.5 108.5q0 66 48.5 108
t152.5 42q64 0 128 -30v21q0 47 -31.5 76t-86.5 29q-37 0 -73.5 -17.5t-58.5 -46.5z" />
    <glyph glyph-name="agrave.alt1" horiz-adv-x="537" 
d="M93 698h116l100 -158h-90zM221 84q40 0 83 14t63 47v35q-66 27 -125 27q-57 0 -79.5 -21.5t-22.5 -47.5q0 -24 20.5 -39t60.5 -15zM118 320l-59 63q66 94 198 94q101 0 157 -51t56 -147v-279h-102v51q-48 -61 -151 -61q-81 0 -129.5 39.5t-48.5 108.5q0 66 48.5 108
t152.5 42q64 0 128 -30v21q0 47 -31.5 76t-86.5 29q-37 0 -73.5 -17.5t-58.5 -46.5z" />
    <glyph glyph-name="acircumflex.alt1" horiz-adv-x="537" 
d="M208 699h104l110 -158h-87l-76 88l-75 -88h-86zM221 84q40 0 83 14t63 47v35q-66 27 -125 27q-57 0 -79.5 -21.5t-22.5 -47.5q0 -24 20.5 -39t60.5 -15zM118 320l-59 63q66 94 198 94q101 0 157 -51t56 -147v-279h-102v51q-48 -61 -151 -61q-81 0 -129.5 39.5
t-48.5 108.5q0 66 48.5 108t152.5 42q64 0 128 -30v21q0 47 -31.5 76t-86.5 29q-37 0 -73.5 -17.5t-58.5 -46.5z" />
    <glyph glyph-name="adieresis.alt1" horiz-adv-x="537" 
d="M108 622q0 26 19 43.5t46 17.5q26 0 44.5 -17.5t18.5 -43.5t-18.5 -44t-44.5 -18q-27 0 -46 18t-19 44zM279 622q0 26 19 43.5t46 17.5t45.5 -17.5t18.5 -43.5t-19 -44t-45 -18q-27 0 -46 18t-19 44zM221 84q40 0 83 14t63 47v35q-66 27 -125 27q-57 0 -79.5 -21.5
t-22.5 -47.5q0 -24 20.5 -39t60.5 -15zM118 320l-59 63q66 94 198 94q101 0 157 -51t56 -147v-279h-102v51q-48 -61 -151 -61q-81 0 -129.5 39.5t-48.5 108.5q0 66 48.5 108t152.5 42q64 0 128 -30v21q0 47 -31.5 76t-86.5 29q-37 0 -73.5 -17.5t-58.5 -46.5z" />
    <glyph glyph-name="atilde.alt1" horiz-adv-x="537" 
d="M216 599q-9 0 -17.5 -11t-9.5 -33h-65q3 63 30 91.5t62 28.5q26 0 52.5 -20.5t35.5 -20.5q10 0 18.5 10t9.5 31h64q-3 -62 -30 -89.5t-62 -27.5q-24 0 -51 20.5t-37 20.5zM221 84q40 0 83 14t63 47v35q-66 27 -125 27q-57 0 -79.5 -21.5t-22.5 -47.5q0 -24 20.5 -39
t60.5 -15zM118 320l-59 63q66 94 198 94q101 0 157 -51t56 -147v-279h-102v51q-48 -61 -151 -61q-81 0 -129.5 39.5t-48.5 108.5q0 66 48.5 108t152.5 42q64 0 128 -30v21q0 47 -31.5 76t-86.5 29q-37 0 -73.5 -17.5t-58.5 -46.5z" />
    <glyph glyph-name="aring.alt1" horiz-adv-x="537" 
d="M154 638q0 47 31.5 79t76.5 32q47 0 79 -32t32 -79q0 -45 -32.5 -76.5t-78.5 -31.5q-45 0 -76.5 31.5t-31.5 76.5zM210 638q0 -21 15 -36.5t37 -15.5t38.5 15.5t16.5 36.5q0 23 -16 39t-39 16q-22 0 -37 -16t-15 -39zM221 84q40 0 83 14t63 47v35q-66 27 -125 27
q-57 0 -79.5 -21.5t-22.5 -47.5q0 -24 20.5 -39t60.5 -15zM118 320l-59 63q66 94 198 94q101 0 157 -51t56 -147v-279h-102v51q-48 -61 -151 -61q-81 0 -129.5 39.5t-48.5 108.5q0 66 48.5 108t152.5 42q64 0 128 -30v21q0 47 -31.5 76t-86.5 29q-37 0 -73.5 -17.5
t-58.5 -46.5z" />
    <glyph glyph-name="amacron.alt1" horiz-adv-x="537" 
d="M129 572v81h258v-81h-258zM221 84q40 0 83 14t63 47v35q-66 27 -125 27q-57 0 -79.5 -21.5t-22.5 -47.5q0 -24 20.5 -39t60.5 -15zM118 320l-59 63q66 94 198 94q101 0 157 -51t56 -147v-279h-102v51q-48 -61 -151 -61q-81 0 -129.5 39.5t-48.5 108.5q0 66 48.5 108
t152.5 42q64 0 128 -30v21q0 47 -31.5 76t-86.5 29q-37 0 -73.5 -17.5t-58.5 -46.5z" />
    <glyph glyph-name="abreve.alt1" horiz-adv-x="537" 
d="M128 674h77q0 -26 14 -41.5t40 -15.5q25 0 39.5 17t14.5 40h78q0 -59 -36 -93.5t-96 -34.5q-65 0 -98 37t-33 91zM221 84q40 0 83 14t63 47v35q-66 27 -125 27q-57 0 -79.5 -21.5t-22.5 -47.5q0 -24 20.5 -39t60.5 -15zM118 320l-59 63q66 94 198 94q101 0 157 -51
t56 -147v-279h-102v51q-48 -61 -151 -61q-81 0 -129.5 39.5t-48.5 108.5q0 66 48.5 108t152.5 42q64 0 128 -30v21q0 47 -31.5 76t-86.5 29q-37 0 -73.5 -17.5t-58.5 -46.5z" />
    <glyph glyph-name="aogonek.alt1" horiz-adv-x="537" 
d="M118 320l-59 63q66 94 198 94q101 0 157 -51t56 -147v-279h-41l-30 -83q-6 -15 -1 -29t20 -21q15 -4 28 2t19 20l3 23l67 4q0 -51 -30 -83.5t-71 -32.5q-44 0 -73.5 31t-29.5 70q0 27 8 44l30 55h-1v51q-48 -61 -151 -61q-81 0 -129.5 39.5t-48.5 108.5q0 66 48.5 108
t152.5 42q64 0 128 -30v21q0 47 -31.5 76t-86.5 29q-37 0 -73.5 -17.5t-58.5 -46.5zM221 84q40 0 83 14t63 47v35q-66 27 -125 27q-57 0 -79.5 -21.5t-22.5 -47.5q0 -24 20.5 -39t60.5 -15z" />
    <glyph glyph-name="yacute.alt1" horiz-adv-x="507" 
d="M301 698h116l-126 -158h-90zM199 21l-29 -65q-22 -51 -41.5 -73.5t-55.5 -22.5t-59 4v-89q34 -8 60 -8q72 0 112.5 34t77.5 116l231 550h-111l-130 -322l-130 322h-110z" />
    <glyph glyph-name="ydieresis.alt1" horiz-adv-x="507" 
d="M105 632q0 26 19 43.5t46 17.5q26 0 44.5 -17.5t18.5 -43.5t-18.5 -44t-44.5 -18q-27 0 -46 18t-19 44zM276 632q0 26 19 43.5t46 17.5t45.5 -17.5t18.5 -43.5t-19 -44t-45 -18q-27 0 -46 18t-19 44zM199 21l-29 -65q-22 -51 -41.5 -73.5t-55.5 -22.5t-59 4v-89
q34 -8 60 -8q72 0 112.5 34t77.5 116l231 550h-111l-130 -322l-130 322h-110z" />
    <glyph glyph-name="ae.alt1" horiz-adv-x="879" 
d="M470 31v-31h-102v51q-48 -61 -151 -61q-81 0 -129.5 39.5t-48.5 108.5q0 66 48.5 108t152.5 42q64 0 128 -30v21q0 47 -31.5 76t-86.5 29q-35 0 -72.5 -17.5t-59.5 -46.5l-59 63q66 94 198 94q121 0 175 -71q69 71 176 71q102 0 168 -66.5t66 -175.5q0 -28 -1 -38h-371
q7 -54 46.5 -85.5t96.5 -31.5q40 0 74.5 17.5t52.5 49.5l84 -37q-30 -59 -88 -89.5t-128 -30.5q-79 0 -138 41zM470 272h271q-7 54 -43.5 84.5t-89.5 30.5q-55 0 -93 -31t-45 -84zM221 84q40 0 83 14t63 47v35q-55 18 -125 18q-102 0 -102 -60q0 -24 20.5 -39t60.5 -15z" />
    <glyph glyph-name="aeacute.alt1" horiz-adv-x="879" 
d="M488 698h116l-126 -158h-90zM470 0v31q59 -41 138 -41q70 0 128 30.5t88 89.5l-84 37q-18 -32 -52.5 -49.5t-74.5 -17.5q-57 0 -96.5 31.5t-46.5 85.5h371q1 10 1 38q0 109 -66 175.5t-168 66.5q-107 0 -176 -71q-54 71 -175 71q-132 0 -198 -94l59 -63q22 29 59.5 46.5
t72.5 17.5q55 0 86.5 -29t31.5 -76v-21q-64 30 -128 30q-104 0 -152.5 -42t-48.5 -108q0 -69 48.5 -108.5t129.5 -39.5q103 0 151 61v-51h102zM470 272q7 53 45 84t93 31q53 0 89.5 -30.5t43.5 -84.5h-271zM221 84q-40 0 -60.5 15t-20.5 39q0 60 102 60q70 0 125 -18v-35
q-20 -33 -63 -47t-83 -14z" />
    <glyph glyph-name="ycircumflex.alt1" horiz-adv-x="507" 
d="M200 699h104l110 -158h-87l-76 88l-75 -88h-86zM170 -44l29 65l-185 446h110l130 -322l130 322h111l-231 -550q-37 -82 -77.5 -116t-112.5 -34q-26 0 -60 8v89q23 -4 59 -4t55.5 22.5t41.5 73.5z" />
    <glyph glyph-name="ldot.alt1" horiz-adv-x="368" 
d="M231 275q0 29 20.5 48.5t49.5 19.5q30 0 51 -19.5t21 -48.5t-21 -48.5t-51 -19.5q-29 0 -49.5 19.5t-20.5 48.5zM287 96v-96h-50q-170 0 -170 201v520h104v-520q-2 -105 78 -105h38z" />
    <glyph glyph-name="t.alt1" horiz-adv-x="361" 
d="M324 96v-96h-45q-92 0 -131 46t-39 138v198h-84v85h84v112l104 36v-148h98v-85h-98v-198q-1 -42 15 -65t63 -23h33z" />
    <glyph glyph-name="tcaron.alt1" horiz-adv-x="361" 
d="M314 526l-61 23q31 43 42 80.5t7 99.5h97q-2 -134 -85 -203zM324 0v96h-33q-47 0 -63 23t-15 65v198h98v85h-98v148l-104 -36v-112h-84v-85h84v-198q0 -92 39 -138t131 -46h45z" />
    <glyph glyph-name="tbar.alt1" horiz-adv-x="363" 
d="M326 96v-96h-45q-92 0 -131 46t-39 138v31h-67v65h67v102h-84v85h84v112l104 36v-148h98v-85h-98v-102h71v-65h-71v-31q-1 -42 15 -65t63 -23h33z" />
    <glyph glyph-name="tcommaaccent.alt1" horiz-adv-x="361" 
d="M223 -259l-60 23q31 42 42 79.5t7 99.5h97q-2 -136 -86 -202zM324 96v-96h-45q-92 0 -131 46t-39 138v198h-84v85h84v112l104 36v-148h98v-85h-98v-198q-1 -42 15 -65t63 -23h33z" />
    <glyph glyph-name="T.sc.alt1" horiz-adv-x="480" 
d="M23 579h434v-87h-169v-492h-96v492h-169v87z" />
    <glyph glyph-name="Tcaron.sc.alt1" horiz-adv-x="481" 
d="M241 709l62 70h79l-97 -136h-89l-96 136h79zM282 0v501h178v83h-439v-83h177v-501h84z" />
    <glyph glyph-name="Tbar.sc.alt1" horiz-adv-x="470" 
d="M277 350h112v-57h-112v-293h-84v293h-110v57h110v151h-177v83h439v-83h-178v-151z" />
    <glyph glyph-name="Tcommaaccent.sc.alt1" horiz-adv-x="480" 
d="M23 579h434v-87h-169v-492h-96v492h-169v87zM213 -220l-53 20q26 37 35.5 71t3.5 81h83q1 -114 -69 -172z" />
    <glyph glyph-name="aringacute.alt1" horiz-adv-x="537" 
d="M316 867h117l-107 -133q55 -31 55 -95q0 -45 -32.5 -76.5t-78.5 -31.5q-45 0 -76.5 31.5t-31.5 76.5q0 37 21 66t55 39zM218 638q0 -22 15.5 -37t36.5 -15q23 0 39 15t16 37q0 23 -16 38.5t-39 15.5q-21 0 -36.5 -15.5t-15.5 -38.5zM221 84q40 0 83 14t63 47v35
q-66 27 -125 27q-57 0 -79.5 -21.5t-22.5 -47.5q0 -24 20.5 -39t60.5 -15zM118 320l-59 63q66 94 198 94q101 0 157 -51t56 -147v-279h-102v51q-48 -61 -151 -61q-81 0 -129.5 39.5t-48.5 108.5q0 66 48.5 108t152.5 42q64 0 128 -30v21q0 47 -31.5 76t-86.5 29
q-37 0 -73.5 -17.5t-58.5 -46.5z" />
    </font>
</defs>
</svg>
