<svg xmlns="http://www.w3.org/2000/svg" width="19.77" height="15.375" viewBox="0 0 19.77 15.375"><defs><style>.a{fill:#fff;}</style></defs><g transform="translate(15.387 9.999)"><g transform="translate(0 0)"><path class="a" d="M400.023,273.32h-1.529a2.04,2.04,0,0,1,.241.952V278.3a.871.871,0,0,1-.1.4h2.528c.944,0,1.712-.535,1.712-1.193v-2.195C402.877,274.212,401.6,273.32,400.023,273.32Z" transform="translate(-398.494 -273.32)"/></g></g><g transform="translate(0 9.999)"><path class="a" d="M4.142,274.273a2.039,2.039,0,0,1,.241-.953H2.854c-1.574,0-2.854.892-2.854,1.988V277.5c0,.658.768,1.193,1.712,1.193H4.24a.871.871,0,0,1-.1-.4Z" transform="translate(0 -273.321)"/></g><g transform="translate(5.283 8.963)"><g transform="translate(0 0)"><path class="a" d="M143.178,234.815h-3.5c-1.574,0-2.854.892-2.854,1.988v4.026c0,.22.256.4.571.4h8.062c.315,0,.571-.178.571-.4V236.8C146.032,235.707,144.752,234.815,143.178,234.815Z" transform="translate(-136.829 -234.815)"/></g></g><g transform="translate(6.453 0)"><g transform="translate(0 0)"><path class="a" d="M170.546,38.84a3.432,3.432,0,1,0,3.432,3.432A3.436,3.436,0,0,0,170.546,38.84Z" transform="translate(-167.114 -38.84)"/></g></g><g transform="translate(1.291 3.199)"><g transform="translate(0 0)"><path class="a" d="M36.01,121.689a2.566,2.566,0,1,0,2.567,2.567A2.57,2.57,0,0,0,36.01,121.689Z" transform="translate(-33.443 -121.689)"/></g></g><g transform="translate(13.345 3.199)"><g transform="translate(0 0)"><path class="a" d="M348.174,121.689a2.567,2.567,0,1,0,2.567,2.567A2.57,2.57,0,0,0,348.174,121.689Z" transform="translate(-345.607 -121.689)"/></g></g></svg>