<svg xmlns="http://www.w3.org/2000/svg" width="9.619" height="17.753" viewBox="0 0 9.619 17.753">
  <g id="bluetooth" transform="translate(-117.297)">
    <path id="Path_9976" data-name="Path 9976" d="M122.107,17.753a.365.365,0,0,1-.141-.028.37.37,0,0,1-.229-.342V9.718l-3.818,3.5a.37.37,0,0,1-.5-.545l4.141-3.8-4.142-3.8a.37.37,0,0,1,.5-.545l3.82,3.5V.37a.37.37,0,0,1,.632-.262l4.438,4.438a.37.37,0,0,1,0,.523l-.012.011-4.141,3.8,4.142,3.8a.37.37,0,0,1,.023.523l-.011.012-4.438,4.438A.37.37,0,0,1,122.107,17.753Zm.37-8.035v6.773l3.533-3.533Zm0-8.455V8.036L126.01,4.8Z" transform="translate(0 0)" fill="#333"/>
    <path id="Path_9977" data-name="Path 9977" d="M122.107,17.753a.37.37,0,0,1-.37-.37V9.718l-3.818,3.5a.37.37,0,0,1-.5-.545l4.141-3.8-4.142-3.8a.37.37,0,0,1,.5-.545l3.82,3.5V.37a.37.37,0,0,1,.632-.262l4.438,4.438a.37.37,0,0,1,0,.523l-.012.011-4.141,3.8,4.142,3.8a.37.37,0,0,1,.023.523l-.011.012-4.438,4.438A.37.37,0,0,1,122.107,17.753Zm.37-8.035v6.773l3.533-3.533Zm0-8.455V8.036L126.01,4.8Z" transform="translate(0 0)" fill="#333"/>
  </g>
</svg>
