<svg xmlns="http://www.w3.org/2000/svg" width="20.371" height="19" viewBox="0 0 20.371 19">
  <path id="Video_Disabled" data-name="Video Disabled" d="M.228,18.823a.7.7,0,0,1-.052-.984l1.831-2.065A1.58,1.58,0,0,1,.5,14.2V4.743A1.584,1.584,0,0,1,2.091,3.167H13.2L15.8.231a.681.681,0,0,1,.971-.053.7.7,0,0,1,.053.983L15.032,3.182l.031,0-.679.768h-.038L4.554,14.989h.038l-.7.788H3.855L1.2,18.77a.684.684,0,0,1-.971.053ZM1.3,4.743V14.2a.792.792,0,0,0,.795.788H2.7L12.5,3.955H2.091A.792.792,0,0,0,1.3,4.743ZM5.742,15.777l.7-.788h8.367A.792.792,0,0,0,15.6,14.2V11.837h0V7.107h0V4.743a.7.7,0,0,0,0-.075l.6-.68a1.568,1.568,0,0,1,.194.755V6.45l2.67-2.206a.794.794,0,0,1,1.3.606v9.245a.794.794,0,0,1-1.3.6L16.4,12.493V14.2a1.585,1.585,0,0,1-1.589,1.577ZM16.4,7.476v3.991l3.179,2.627V4.85Z" transform="translate(0)" fill="#333"/>
</svg>
