<svg xmlns="http://www.w3.org/2000/svg" width="19.871" height="12.61" viewBox="0 0 19.871 12.61">
  <path id="Video" d="M1.59,12.61A1.583,1.583,0,0,1,0,11.033V1.576A1.583,1.583,0,0,1,1.59,0H14.307A1.583,1.583,0,0,1,15.9,1.576V3.283l2.67-2.206a.795.795,0,0,1,1.3.606v9.244a.795.795,0,0,1-1.3.606L15.9,9.327v1.707a1.583,1.583,0,0,1-1.59,1.576ZM.8,1.576v9.457a.793.793,0,0,0,.794.788H14.307a.792.792,0,0,0,.794-.788V1.576a.792.792,0,0,0-.794-.788H1.59A.793.793,0,0,0,.8,1.576ZM15.9,4.311V8.3l3.179,2.627V1.684Z" fill="#333"/>
</svg>
