<svg xmlns="http://www.w3.org/2000/svg" width="24.038" height="24.037" viewBox="0 0 24.038 24.037"><defs><style>.a{fill:#fff;}</style></defs><path class="a" d="M.837,7.267a.837.837,0,0,0,.837-.837V2.86L7.066,8.251A.837.837,0,1,0,8.25,7.067L2.858,1.676h3.57A.837.837,0,1,0,6.428,0H.837A.837.837,0,0,0,0,.839V6.43A.837.837,0,0,0,.837,7.267Z" transform="translate(0 -0.002)"/><path class="a" d="M145.578,139.149a.837.837,0,0,0-.837.837v3.57L139.183,138A.837.837,0,0,0,138,139.181l5.558,5.558h-3.569a.837.837,0,1,0,0,1.674h5.591a.837.837,0,0,0,.837-.837v-5.59A.837.837,0,0,0,145.578,139.149Z" transform="translate(-122.378 -122.376)"/><path class="a" d="M7.237,138l-5.557,5.558v-3.569a.837.837,0,1,0-1.674,0v5.591a.837.837,0,0,0,.837.837h5.59a.837.837,0,1,0,0-1.674H2.863l5.557-5.558A.837.837,0,1,0,7.237,138Z" transform="translate(-0.004 -122.376)"/><path class="a" d="M146.906,0h-5.591a.837.837,0,1,0,0,1.674h3.57l-5.391,5.391a.837.837,0,0,0,1.184,1.184l5.391-5.391V6.43a.837.837,0,1,0,1.674,0V.839A.837.837,0,0,0,146.906,0Z" transform="translate(-123.705 -0.002)"/></svg>