<svg xmlns="http://www.w3.org/2000/svg" width="30.669" height="12.324" viewBox="0 0 30.669 12.324">
  <path id="Shape_1" data-name="Shape 1" d="M174.3,607.493a1.927,1.927,0,0,0,2.1-2.114c0-1-.01-1.982-.015-2.977a.437.437,0,0,1,.323-.5c.488-.109.981-.329,1.474-.432a21.719,21.719,0,0,1,7.053-.3,12.767,12.767,0,0,1,3.45.844.441.441,0,0,1,.3.473c-.048,1-.017,1.955-.012,2.951a2,2,0,0,0,2.169,2.188l2.353.012c.819,0,1.613.035,2.406.012a1.979,1.979,0,0,0,2.1-2.114c0-1-.01-1.982-.015-2.977a3.724,3.724,0,0,0-.884-2.431,9.78,9.78,0,0,0-3.484-2.47,25.83,25.83,0,0,0-8.541-2.193,27.387,27.387,0,0,0-11.7,1.378,13.84,13.84,0,0,0-4.636,2.515,3.816,3.816,0,0,0-1.4,3.193c.089.912.009,1.822.04,2.729a2.053,2.053,0,0,0,2.169,2.188Z" transform="translate(-167.331 -595.336)" fill="#fff"/>
</svg>
