<svg xmlns="http://www.w3.org/2000/svg" width="20.649" height="20.649" viewBox="0 0 20.649 20.649">
  <g id="Headphone" transform="translate(-437 -865)">
    <path id="Path_9981" data-name="Path 9981" d="M10.325,0C4.632,0,0,5.053,0,11.263v4.693a.469.469,0,1,0,.939,0V11.263C.939,5.57,5.149.939,10.325.939S19.71,5.57,19.71,11.263v4.693a.469.469,0,1,0,.939,0V11.263C20.649,5.053,16.017,0,10.325,0Z" transform="translate(437 865)" fill="#333"/>
    <path id="Path_9982" data-name="Path 9982" d="M45.951,256H44.543a1.879,1.879,0,0,0-1.877,1.877v5.632a1.879,1.879,0,0,0,1.877,1.877h1.408a.469.469,0,0,0,.469-.469v-8.447A.469.469,0,0,0,45.951,256Zm-.469,8.447h-.939a.94.94,0,0,1-.939-.939v-5.632a.94.94,0,0,1,.939-.939h.939v7.509Z" transform="translate(394.334 620.263)" fill="#333"/>
    <path id="Path_9983" data-name="Path 9983" d="M343.21,256H341.8a.469.469,0,0,0-.469.469v8.447a.469.469,0,0,0,.469.469h1.408a1.879,1.879,0,0,0,1.877-1.877v-5.632A1.879,1.879,0,0,0,343.21,256Zm.939,7.509a.94.94,0,0,1-.939.939h-.939v-7.509h.939a.94.94,0,0,1,.939.939Z" transform="translate(112.482 620.263)" fill="#333"/>
  </g>
</svg>
