<svg xmlns="http://www.w3.org/2000/svg" width="18" height="18" viewBox="0 0 18 18"><defs><style>.a{fill:#fff;}</style></defs><path class="a" d="M13.956,17.3V15.363H12.023a.7.7,0,1,1,0-1.407h1.934V12.023a.7.7,0,0,1,1.407,0v1.933H17.3a.7.7,0,0,1,0,1.407H15.363V17.3a.7.7,0,0,1-1.407,0ZM2.134,18A2.136,2.136,0,0,1,.046,15.423,9.144,9.144,0,0,1,6.139,8.61a4.782,4.782,0,1,1,5.725,0,9.165,9.165,0,0,1,1.059.425.7.7,0,0,1-.6,1.27,7.661,7.661,0,0,0-3.131-.743c-.062,0-.125,0-.188,0s-.125,0-.187,0A7.768,7.768,0,0,0,1.422,15.71a.733.733,0,0,0,.149.616.717.717,0,0,0,.563.268h8.659a.7.7,0,1,1,0,1.407ZM9.172,8.151a3.376,3.376,0,1,0-.342,0h.342Z"/></svg>