<svg xmlns="http://www.w3.org/2000/svg" width="19.953" height="20.82" viewBox="0 0 19.953 20.82"><defs><style>.a{fill:#fff;}</style></defs><g transform="translate(6.073 0)"><path class="a" d="M164.779.008h-1.735a3.04,3.04,0,0,0-3.036,3.036v8.674a3,3,0,0,0,.114.778l7.694-8.044V3.044A3.04,3.04,0,0,0,164.779.008Z" transform="translate(-160.008 -0.008)"/></g><g transform="translate(0 0)"><path class="a" d="M19.769,14.747H21.5a3.04,3.04,0,0,0,3.036-3.036V6.956L30.492.733a.434.434,0,1,0-.627-.6L10.779,20.087a.434.434,0,0,0,.627.6L16.364,15.5a3.845,3.845,0,0,0,2.538.979h1.3v3.47H17.166a.434.434,0,0,0,0,.868h6.94a.434.434,0,1,0,0-.868H21.07v-3.47h1.3a3.909,3.909,0,0,0,3.9-3.9V8.241a.434.434,0,0,0-.868,0v4.338a3.04,3.04,0,0,1-3.036,3.036H18.9a2.977,2.977,0,0,1-1.941-.735l.848-.886A2.976,2.976,0,0,0,19.769,14.747Z" transform="translate(-10.659 0)"/></g><g transform="translate(4.338 7.807)"><path class="a" d="M118.209,196.758v-4.338a.434.434,0,0,0-.868,0v4.338a3.878,3.878,0,0,0,.309,1.521l.682-.713A2.993,2.993,0,0,1,118.209,196.758Z" transform="translate(-117.341 -191.987)"/></g></svg>