<svg xmlns="http://www.w3.org/2000/svg" viewBox="0 0 8 15" width="8" height="15">
	<style>
		tspan { white-space:pre }
		.shp0 { fill: #ffffff } 
	</style>
	<g id="Group_8685">
		<path id="Path_9901" class="shp0" d="M3.67 11.89L3.67 14.38L1.51 14.38C1.43 14.38 1.35 14.41 1.29 14.47C1.23 14.53 1.2 14.61 1.2 14.69C1.2 14.77 1.23 14.85 1.29 14.91C1.35 14.97 1.43 15 1.51 15L6.45 15C6.54 15 6.61 14.97 6.67 14.91C6.73 14.85 6.76 14.77 6.76 14.69C6.76 14.61 6.73 14.53 6.67 14.47C6.61 14.41 6.54 14.38 6.45 14.38L4.29 14.38L4.29 11.89L5.22 11.89C5.58 11.88 5.94 11.81 6.28 11.67C6.62 11.53 6.93 11.32 7.18 11.06C7.44 10.8 7.65 10.49 7.79 10.15C7.93 9.81 8 9.45 8 9.08L8 5.97C8 5.89 7.97 5.81 7.91 5.75C7.85 5.69 7.77 5.66 7.69 5.66C7.61 5.66 7.53 5.69 7.47 5.75C7.41 5.81 7.38 5.89 7.38 5.97L7.38 9.08C7.38 9.37 7.33 9.65 7.22 9.92C7.11 10.18 6.95 10.42 6.75 10.62C6.55 10.83 6.31 10.99 6.05 11.1C5.78 11.21 5.5 11.26 5.22 11.26C5.1 11.26 4.98 11.26 4.87 11.26C4.75 11.26 4.63 11.27 4.51 11.27C4.4 11.28 4.28 11.29 4.16 11.3C4.04 11.31 3.93 11.32 3.81 11.34C3.6 11.38 3.68 11.91 3.67 11.89Z" />
		<path id="Path_10147" class="shp0" d="M4.33 11.89L4.33 14.38L6.49 14.38C6.57 14.38 6.65 14.41 6.71 14.47C6.77 14.53 6.8 14.61 6.8 14.69C6.8 14.77 6.77 14.85 6.71 14.91C6.65 14.97 6.57 15 6.49 15L1.55 15C1.46 15 1.38 14.97 1.33 14.91C1.27 14.85 1.24 14.77 1.24 14.69C1.24 14.61 1.27 14.53 1.33 14.47C1.38 14.41 1.46 14.38 1.55 14.38L3.71 14.38L3.71 11.89L2.78 11.89C2.42 11.88 2.06 11.81 1.72 11.67C1.38 11.53 1.07 11.32 0.82 11.06C0.56 10.8 0.35 10.49 0.21 10.15C0.07 9.81 0 9.45 0 9.08L0 5.97C0 5.89 0.03 5.81 0.09 5.75C0.15 5.69 0.23 5.66 0.31 5.66C0.39 5.66 0.47 5.69 0.53 5.75C0.59 5.81 0.62 5.89 0.62 5.97L0.62 9.08C0.62 9.37 0.67 9.65 0.78 9.92C0.89 10.18 1.05 10.42 1.25 10.62C1.45 10.83 1.69 10.99 1.95 11.1C2.22 11.21 2.5 11.26 2.78 11.26C2.9 11.26 3.02 11.26 3.13 11.26C3.25 11.26 3.37 11.27 3.49 11.27C3.6 11.28 3.72 11.29 3.84 11.3C3.96 11.31 4.07 11.32 4.19 11.34C4.4 11.38 4.32 11.91 4.33 11.89Z" />
	</g>
	<path id="Rectangle_4088" class="shp0" d="M3.02 0L4.96 0C5.96 0 6.77 0.82 6.77 1.83L6.77 8.94C6.77 9.95 5.96 10.77 4.96 10.77L3.02 10.77C2.02 10.77 1.21 9.95 1.21 8.94L1.21 1.83C1.21 0.82 2.02 0 3.02 0Z" />
</svg>