<svg xmlns="http://www.w3.org/2000/svg" width="16" height="24.333" viewBox="0 0 16 24.333">
  <path id="Mic" d="M81.615,538.711v3.072h4.308a.608.608,0,1,1,0,1.217H76.077a.608.608,0,1,1,0-1.217h4.308v-3.072A7.96,7.96,0,0,1,73,530.833a.615.615,0,0,1,1.231,0,6.77,6.77,0,0,0,13.538,0,.615.615,0,0,1,1.231,0A7.938,7.938,0,0,1,81.615,538.711Zm4-15.482v7.6a4.616,4.616,0,0,1-9.231,0v-7.6a4.616,4.616,0,0,1,9.231,0Zm-1.231,0a3.385,3.385,0,0,0-6.769,0v7.6a3.385,3.385,0,0,0,6.769,0Z" transform="translate(-73 -518.667)" fill="#333"/>
</svg>
