<svg xmlns="http://www.w3.org/2000/svg" width="19.226" height="16.929" viewBox="0 0 19.226 16.929"><defs><style>.a{fill:#fff;}</style></defs><g transform="translate(0 0)"><path class="a" d="M77.943,35.74a1.152,1.152,0,0,0-1.111-.05l-2.893,1.441v-1.56a1.1,1.1,0,0,0-1.114-1.114H66.054l-2.528-2.994A1.127,1.127,0,1,0,61.8,32.916L74.221,47.591a1.126,1.126,0,1,0,1.716-1.459l-2-2.352v-.736l2.889,1.441a1.145,1.145,0,0,0,.509.119,1.165,1.165,0,0,0,.6-.169,1.139,1.139,0,0,0,.546-.96V36.7A1.138,1.138,0,0,0,77.943,35.74Z" transform="translate(-59.26 -31.061)"/><path class="a" d="M0,123.771V132.8a1.146,1.146,0,0,0,1.146,1.131h9.641L1.1,122.647A1.134,1.134,0,0,0,0,123.771Z" transform="translate(0 -119.261)"/></g></svg>