<svg xmlns="http://www.w3.org/2000/svg" width="17.708" height="17.797" viewBox="0 0 17.708 17.797">
  <g id="Group_8641" data-name="Group 8641" transform="translate(-459.5 -840.956)">
    <path id="Call" d="M328.073,251.507a17.889,17.889,0,0,0,5.954,4.646,9.291,9.291,0,0,0,3.332.982c.08,0,.157.007.238.007a2.764,2.764,0,0,0,2.14-.916.075.075,0,0,0,.014-.017,9,9,0,0,1,.675-.7c.164-.157.332-.32.493-.488a1.678,1.678,0,0,0-.007-2.5l-2.1-2.093a1.7,1.7,0,0,0-1.231-.564,1.761,1.761,0,0,0-1.245.561l-1.252,1.247c-.115-.066-.234-.125-.346-.181a4.271,4.271,0,0,1-.384-.209,13.226,13.226,0,0,1-3.164-2.87,7.6,7.6,0,0,1-1.07-1.7c.329-.3.636-.606.933-.909.105-.108.213-.216.322-.324a1.645,1.645,0,0,0,0-2.508l-1.042-1.038c-.122-.122-.238-.24-.357-.362-.231-.237-.472-.481-.71-.7a1.746,1.746,0,0,0-1.231-.536,1.8,1.8,0,0,0-1.245.54l-1.308,1.3a2.672,2.672,0,0,0-.8,1.714,6.423,6.423,0,0,0,.486,2.786A16.2,16.2,0,0,0,328.073,251.507Zm-2.538-7.544a1.84,1.84,0,0,1,.556-1.184l1.3-1.3a.943.943,0,0,1,.643-.3.9.9,0,0,1,.629.3c.234.216.454.442.692.683.119.122.241.244.364.369l1.042,1.038a.81.81,0,0,1,0,1.3c-.108.108-.217.22-.325.327-.325.327-.629.637-.965.933l-.017.017a.679.679,0,0,0-.175.773c0,.01.007.017.01.028a8.187,8.187,0,0,0,1.227,1.989,13.962,13.962,0,0,0,3.37,3.058,5,5,0,0,0,.461.251,4.343,4.343,0,0,1,.385.209l.039.021a.733.733,0,0,0,.339.087.743.743,0,0,0,.521-.237l1.307-1.3a.927.927,0,0,1,.64-.31.879.879,0,0,1,.619.31l2.108,2.1a.838.838,0,0,1-.011,1.313c-.147.157-.3.307-.465.463a10.012,10.012,0,0,0-.731.756,1.923,1.923,0,0,1-1.5.634c-.059,0-.122,0-.182-.007a8.443,8.443,0,0,1-3.014-.9,16.994,16.994,0,0,1-5.667-4.423,15.505,15.505,0,0,1-2.762-4.58A5.6,5.6,0,0,1,325.535,243.963Z" transform="translate(134.833 601.611)" fill="#333"/>
    <path id="Path_9972" data-name="Path 9972" d="M.7,5.914A.41.41,0,0,1,.122,5.33a3.225,3.225,0,0,0,.961-2.315A3.225,3.225,0,0,0,.122.7.409.409,0,1,1,.7.119a4.031,4.031,0,0,1,1.2,2.9A4.037,4.037,0,0,1,.7,5.914Z" transform="translate(468.407 845.492) rotate(-45)" fill="#333"/>
    <path id="Path_9973" data-name="Path 9973" d="M.882,10.378a.517.517,0,0,1-.729-.734,6.123,6.123,0,0,0,1.823-4.38A6.121,6.121,0,0,0,.152.884.517.517,0,0,1,.882.15,7.143,7.143,0,0,1,3.01,5.264,7.148,7.148,0,0,1,.882,10.378Z" transform="translate(467.634 843.085) rotate(-45)" fill="#333"/>
  </g>
</svg>
