<svg xmlns="http://www.w3.org/2000/svg" width="14.19" height="18.247" viewBox="0 0 14.19 18.247">
  <g id="hand" transform="translate(-17 -2)">
    <path id="Path_10206" data-name="Path 10206" d="M30.71,11.576l-.506-.337a1.788,1.788,0,0,0-2.371.344L26.325,13.2V5.228A1.435,1.435,0,0,0,24.89,3.793a1.4,1.4,0,0,0-.717.2V3.435a1.435,1.435,0,1,0-2.869,0v.559a1.4,1.4,0,0,0-.717-.2,1.435,1.435,0,0,0-1.435,1.435v.559a1.4,1.4,0,0,0-.717-.2A1.435,1.435,0,0,0,17,7.021v8.855a3.252,3.252,0,0,0,.642,1.79c.075.126.158.265.251.427l.542.868v.972h-.359a.359.359,0,0,0-.355.316h9.317a.359.359,0,0,0-.355-.316h-.359v-.954l4.683-5.914a.2.2,0,0,0,.022-.029A1.073,1.073,0,0,0,30.71,11.576Zm-.283,1.069-4.744,5.993a.345.345,0,0,0-.075.219v1.076H19.152V18.856a.354.354,0,0,0-.054-.19l-.588-.94c-.09-.158-.176-.3-.255-.43a2.622,2.622,0,0,1-.538-1.42V7.021a.717.717,0,1,1,1.435,0v5.021h.717V5.228a.717.717,0,0,1,1.435,0V12.4h.717V3.435a.717.717,0,0,1,1.435,0V12.4h.717V5.228a.717.717,0,0,1,1.435,0v8.966a.356.356,0,0,0,.237.337.364.364,0,0,0,.4-.108l2.144-2.381a1.071,1.071,0,0,1,1.424-.2l.5.334A.359.359,0,0,1,30.427,12.644Z"/>
  </g>
</svg>
