<svg xmlns="http://www.w3.org/2000/svg" width="26.909" height="26.909" viewBox="0 0 26.909 26.909"><defs><style>.a{fill:none;stroke:#fff;}</style></defs><path class="a" d="M25.3,10l-1.991-.433a10.837,10.837,0,0,0-.641-1.545l1.1-1.715a.774.774,0,0,0-.1-.966l-3.1-3.1a.774.774,0,0,0-.966-.1l-1.715,1.1A10.838,10.838,0,0,0,16.338,2.6L15.9.609A.774.774,0,0,0,15.148,0H10.761A.774.774,0,0,0,10,.609L9.572,2.6a10.837,10.837,0,0,0-1.545.641l-1.715-1.1a.774.774,0,0,0-.966.1l-3.1,3.1a.774.774,0,0,0-.1.966l1.1,1.715A10.838,10.838,0,0,0,2.6,9.572L.61,10a.774.774,0,0,0-.61.756v4.387a.774.774,0,0,0,.61.756l1.991.433a10.837,10.837,0,0,0,.641,1.545L2.139,19.6a.774.774,0,0,0,.1.966l3.1,3.1a.774.774,0,0,0,.966.1l1.715-1.1a10.838,10.838,0,0,0,1.545.641L10,25.3a.774.774,0,0,0,.756.61h4.387a.774.774,0,0,0,.756-.61l.433-1.991a10.838,10.838,0,0,0,1.545-.641l1.715,1.1a.774.774,0,0,0,.966-.1l3.1-3.1a.774.774,0,0,0,.1-.966l-1.1-1.715a10.838,10.838,0,0,0,.641-1.545L25.3,15.9a.774.774,0,0,0,.61-.756V10.761A.774.774,0,0,0,25.3,10Zm-7.7,2.95a4.645,4.645,0,1,1-4.645-4.645A4.65,4.65,0,0,1,17.6,12.955Zm0,0" transform="translate(0.5 0.5)"/></svg>