<svg xmlns="http://www.w3.org/2000/svg" width="19.005" height="15.068" viewBox="0 0 19.005 15.068"><defs><style>.a{fill:#fff;}</style></defs><path class="a" d="M17.816,42.7H1.188A1.189,1.189,0,0,0,0,43.887V54.972A1.189,1.189,0,0,0,1.188,56.16h6.73v.852L3.5,56.98a.4.4,0,0,0,.065.786.377.377,0,0,0,.066-.006l4.718-.019h2.311l4.718.019a.367.367,0,0,0,.066.006.4.4,0,0,0,.065-.786l-4.42.031V56.16h6.73A1.189,1.189,0,0,0,19,54.972V43.887A1.191,1.191,0,0,0,17.816,42.7Zm0,12.273H1.188l0-11.085H17.817l0,11.085Z" transform="translate(0 -42.699)"/></svg>