<svg id="Camera_Rotate" data-name="Camera Rotate" xmlns="http://www.w3.org/2000/svg" width="23.664" height="19.206" viewBox="0 0 23.664 19.206">
  <g id="photo-camera">
    <g id="Group_1" data-name="Group 1" transform="translate(0 0)">
      <path id="Path_1" data-name="Path 1" d="M0,52.027V62.468a2.89,2.89,0,0,0,2.888,2.888H20.776a2.89,2.89,0,0,0,2.888-2.888V52.027a2.749,2.749,0,0,0-2.748-2.748H17.072l-.092-.4a3.51,3.51,0,0,0-3.438-2.729H10.117a3.518,3.518,0,0,0-3.438,2.729l-.092.4H2.748A2.753,2.753,0,0,0,0,52.027Zm7.06-1.565A.589.589,0,0,0,7.635,50l.2-.86a2.336,2.336,0,0,1,2.284-1.811h3.424a2.336,2.336,0,0,1,2.284,1.811l.2.86a.594.594,0,0,0,.575.459h4.313a1.564,1.564,0,0,1,1.565,1.565V62.468a1.7,1.7,0,0,1-1.7,1.7H2.888a1.7,1.7,0,0,1-1.7-1.7V52.027a1.564,1.564,0,0,1,1.565-1.565H7.06Z" transform="translate(0 -46.15)" fill="#333"/>
      <ellipse id="Ellipse_1" data-name="Ellipse 1" cx="0.792" cy="0.792" rx="0.792" ry="0.792" transform="translate(3.211 6.046)" fill="#333"/>
    </g>
  </g>
  <g id="update-arrows" transform="translate(7.256 6.36)">
    <g id="Group_24" data-name="Group 24" transform="translate(0 0)">
      <path id="Path_10" data-name="Path 10" d="M16.928,9.94a.347.347,0,0,0-.412.266l-.252,1.176a4.508,4.508,0,0,0-8.4,2.28.347.347,0,0,0,.693,0,3.814,3.814,0,0,1,7.113-1.916L14.518,11.5a.347.347,0,0,0-.145.678l1.984.425a.347.347,0,0,0,.412-.266l.425-1.984A.347.347,0,0,0,16.928,9.94Z" transform="translate(-7.65 -9.155)" fill="#333" stroke="#333" stroke-width="0.3"/>
      <path id="Path_11" data-name="Path 11" d="M8.929,155.263a.347.347,0,0,0-.335.358,3.814,3.814,0,0,1-3.686,3.938l-.127,0a3.814,3.814,0,0,1-3.244-1.808l1.205.323a.347.347,0,0,0,.18-.67l-1.96-.526a.347.347,0,0,0-.425.245l-.526,1.96a.347.347,0,1,0,.67.18l.3-1.1a4.506,4.506,0,0,0,3.8,2.09l.15,0A4.507,4.507,0,0,0,9.287,155.6.346.346,0,0,0,8.929,155.263Z" transform="translate(0 -151.21)" fill="#333" stroke="#333" stroke-width="0.3"/>
    </g>
  </g>
</svg>
