<svg xmlns="http://www.w3.org/2000/svg" xmlns:xlink="http://www.w3.org/1999/xlink" width="106" height="30.294" viewBox="0 0 106 30.294"><defs><style>.a,.j{opacity:0.06;}.b{font-size:9.333px;font-family:SFUIDisplay-Medium, SF UI Display;font-weight:500;opacity:0.502;}.c{opacity:0.5;}.d{opacity:0.7;}.e{opacity:0.1;}.f{opacity:0.15;}.g,.h,.i{fill:none;stroke-miterlimit:10;}.g{stroke:#454545;stroke-width:0.2px;}.h{stroke:#707070;stroke-width:3px;}.i{stroke:#ddd;stroke-width:0.5px;}.k{clip-path:url(#a);}.l{clip-path:url(#b);}</style><clipPath id="a"><path class="a" d="M564.6,1383.7l-3.9,3.7c0,.033,1.9-.754,3.9-3.7Z" transform="translate(-560.7 -1383.7)"/></clipPath><clipPath id="b"><path class="a" d="M568.335,1388.9l-1.835,1.737a4.074,4.074,0,0,0,1.835-1.737Z" transform="translate(-566.5 -1388.9)"/></clipPath></defs><g transform="translate(-127 -40.536)"><g transform="translate(0 -13)"><g transform="translate(0.104 9)"><text class="b" transform="translate(179.896 72.83)"><tspan x="-52.438" y="0">MIRROR FLY VIDEO CALL</tspan></text></g></g><g class="c" transform="translate(87 -220.463)"><g class="d" transform="translate(66 261)"><g transform="translate(28.79)"><path d="M606.473,1408.751c-1.573-.852-2-.2-1.9.262a4.576,4.576,0,0,0,2.294,2.392c.59.3,1.934.557,2.261.3C609.259,1411.537,608.505,1409.833,606.473,1408.751Z" transform="translate(-599.897 -1398.293)"/><path class="e" d="M609.828,1411.561c.131-.131-.655-1.835-2.655-2.949a2.136,2.136,0,0,0-1.573-.393,7.879,7.879,0,0,0,1.54,1.835A9.016,9.016,0,0,0,609.828,1411.561Z" transform="translate(-600.596 -1398.186)"/><path d="M614.031,1408.709a5.086,5.086,0,0,0-1.7-.918c-2.294-.754-2.884-.393-2.95-.033-.066.262.1,1.081,2.327,2.425a4.48,4.48,0,0,0,3.113.393C615.277,1410.348,614.785,1409.233,614.031,1408.709Z" transform="translate(-603.129 -1397.628)"/><path class="e" d="M615.711,1409.934a2.53,2.53,0,0,0-.918-1.245,5.085,5.085,0,0,0-1.7-.918,4.861,4.861,0,0,0-2.589-.393A13.6,13.6,0,0,0,615.711,1409.934Z" transform="translate(-603.891 -1397.608)"/><path d="M618.016,1403.533c1.18.524,3.507,2.786,2.458,3.31-1.606.754-4.949-1.54-5.506-2.36C613.854,1402.911,616.607,1402.943,618.016,1403.533Z" transform="translate(-606.72 -1394.812)"/><path class="e" d="M622.545,1406.189a5.925,5.925,0,0,0-2.687-2.687,5.3,5.3,0,0,0-2.458-.36A10.715,10.715,0,0,0,622.545,1406.189Z" transform="translate(-608.529 -1394.781)"/><path d="M619.738,1397.385c.754-.852,2.655-.2,4,.688,1.213.754,2.917,2.851,2.065,3.179-.852.36-2.556-.2-3.769-.918C620.721,1399.581,619.148,1397.943,619.738,1397.385Z" transform="translate(-610.015 -1390.663)"/><path class="e" d="M627.88,1400.076a7.169,7.169,0,0,0-2-2.1,6.146,6.146,0,0,0-3.081-1.082A11.95,11.95,0,0,0,627.88,1400.076Z" transform="translate(-612.159 -1390.601)"/><path d="M629.117,1394.2c2.163.819,3.212,2.556,2.917,2.72-.328.164-1.77.393-4.195-.393s-3.113-2-3.048-2.458C624.824,1393.648,626.922,1393.386,629.117,1394.2Z" transform="translate(-613.495 -1388.433)"/><path class="e" d="M632.281,1396.407a5.767,5.767,0,0,0-2.818-2.2,6.115,6.115,0,0,0-4.162-.3,24.905,24.905,0,0,0,3.212,1.377A16.815,16.815,0,0,0,632.281,1396.407Z" transform="translate(-613.84 -1388.439)"/><path d="M633.952,1390.573c2.294.328,3.8,1.737,3.375,1.933a8.1,8.1,0,0,1-4.588.23,6.117,6.117,0,0,1-3.113-1.541C629.265,1390.409,631.658,1390.245,633.952,1390.573Z" transform="translate(-616.724 -1386.244)"/><path class="e" d="M637.844,1391.911a6.108,6.108,0,0,0-3.179-1.442,8.954,8.954,0,0,0-3.966.1,15.093,15.093,0,0,0,2.72.721C634.862,1391.518,636.37,1391.813,637.844,1391.911Z" transform="translate(-617.47 -1386.172)"/><path d="M639.07,1385.787c1.606.033,3.9.623,3.212,1.114a8.441,8.441,0,0,1-5.113.983c-2.327-.262-3.343-.885-3.474-1.278C633.6,1386.18,636.579,1385.722,639.07,1385.787Z" transform="translate(-619.482 -1383.129)"/><path class="e" d="M647.156,1386.737c.1-.426-1.9-.918-3.343-.95a24.115,24.115,0,0,0-3.114.164,6.538,6.538,0,0,0,1.54.524A20.357,20.357,0,0,0,647.156,1386.737Z" transform="translate(-624.193 -1383.129)"/><path d="M640.505,1379.527c.655-.459,3.408-.426,5.965-.754s3.834-1.213,3.441-.557a8.389,8.389,0,0,1-5.08,2.72C642.275,1381.264,639.26,1380.379,640.505,1379.527Z" transform="translate(-623.867 -1377.885)"/><path class="e" d="M643.212,1382.83c1.278-.262,3.769-1.573,2.392-2.13-2.261.229-4.457.229-5.014.623C639.607,1382.044,641.213,1382.732,643.212,1382.83Z" transform="translate(-623.92 -1379.713)"/><path d="M599.663,1406.215h0a.247.247,0,0,1-.262.033c-.918-.164-1.606-1.475-1.639-1.54a3.822,3.822,0,0,1-.164-.361,1.483,1.483,0,0,1-.1-.524.775.775,0,0,0,.295-.262.582.582,0,0,0,.131-.328v-.033h.033a1.3,1.3,0,0,1,.393.229,3.731,3.731,0,0,1,.361.36,4.5,4.5,0,0,1,.983,1.868C599.794,1405.92,599.794,1406.117,599.663,1406.215Z" transform="translate(-595.151 -1394.839)"/><path class="f" d="M600.335,1406.282h0a3.789,3.789,0,0,1-1.54-1.934c-.1-.229-.2-.492-.295-.721a.582.582,0,0,0,.131-.328h.033a.926.926,0,0,1,.361.229,3.743,3.743,0,0,1,.36.36,4.8,4.8,0,0,1,.983,1.835A.637.637,0,0,1,600.335,1406.282Z" transform="translate(-595.823 -1394.907)"/><path d="M602.343,1404.041c-.033,0-.1.033-.131.033a1.8,1.8,0,0,1-1.245-.426c-.066-.033-.131-.1-.2-.131l-.033-.033a8.365,8.365,0,0,1-1.344-1.508c-.033-.033-.033-.065-.066-.1a2.53,2.53,0,0,1-.328-.819v-.361a.809.809,0,0,1,.262-.524c.328-.328.754-.229,1.213.033a3.469,3.469,0,0,1,.688.524l.1.1a5.883,5.883,0,0,1,1.18,1.868.12.12,0,0,1,.033.1c.033.066.033.1.065.164h0l.1.393h0C602.638,1403.714,602.572,1403.943,602.343,1404.041Z" transform="translate(-596.159 -1392.666)"/><path class="f" d="M604.723,1403.905a4.951,4.951,0,0,0-1.442-2.884,3.667,3.667,0,0,0-1.082-.721,11.942,11.942,0,0,0,1.114,2.13A6.707,6.707,0,0,0,604.723,1403.905Z" transform="translate(-598.311 -1392.89)"/><path d="M606.068,1399.225c1.606,1.54,1.508,2.72,1.344,2.818a4.012,4.012,0,0,1-3.015-1.442c-1.114-1.278-1.409-2.294-1.213-2.622C603.479,1397.455,604.462,1397.685,606.068,1399.225Z" transform="translate(-598.934 -1391.159)"/><path class="e" d="M608.6,1401.959c.2-.1.262-1.278-1.344-2.851a4.594,4.594,0,0,0-2.36-1.508,9.262,9.262,0,0,0,.754.918c.36.492.688,1.049,1.081,1.54a8.495,8.495,0,0,0,1.868,1.9Z" transform="translate(-600.126 -1391.074)"/><path d="M611.41,1396.116c1.409,1.049,2.556,3.441,1.442,3.507a4.575,4.575,0,0,1-3.539-1.7,4.3,4.3,0,0,1-1.213-2.491C608.166,1394.707,610,1395.067,611.41,1396.116Z" transform="translate(-602.277 -1389.361)"/><path class="e" d="M615.16,1399.229c.1-.754-.852-2.294-1.9-3.081a5.47,5.47,0,0,0-2.36-1.049A8.984,8.984,0,0,0,615.16,1399.229Z" transform="translate(-604.159 -1389.394)"/><path d="M616.223,1393.1c1.8,1.278,2.818,3.015,2.294,3.277-.623.262-2.819-.164-4.326-1.77s-.885-2.229-.655-2.327C613.8,1392.114,614.65,1391.983,616.223,1393.1Z" transform="translate(-605.714 -1387.424)"/><path class="e" d="M619.783,1395.87a6.235,6.235,0,0,0-2.425-2.786,3.6,3.6,0,0,0-2.458-.917,2.113,2.113,0,0,1,.262.295c.36.393.754.754,1.114,1.114A16.621,16.621,0,0,0,619.783,1395.87Z" transform="translate(-606.849 -1387.411)"/><path d="M619.728,1389.64c-1.639-.852-2.982-.819-3.179-.262-.229.59,1.147,2.163,3.146,2.982s2.786.1,2.786.1C622.808,1392,621.334,1390.492,619.728,1389.64Z" transform="translate(-607.94 -1385.277)"/><path class="e" d="M623.137,1392.47c.262-.459-1.147-1.934-2.786-2.786a4.175,4.175,0,0,0-2.851-.557A12.949,12.949,0,0,0,623.137,1392.47Z" transform="translate(-608.596 -1385.322)"/><path d="M624.916,1387.184c1.934.754,3.179,2.032,2.556,2.458-.787.492-4.555-.426-6.161-1.606-1.147-.885-1.114-1.573-.492-1.77C621.475,1386.037,622.983,1386.43,624.916,1387.184Z" transform="translate(-610.54 -1383.412)"/><path class="e" d="M629.532,1388.856a6.243,6.243,0,0,0-2.458-1.606,11.39,11.39,0,0,0-3.474-.95c.393.262.885.459,1.016.557a15.11,15.11,0,0,0,1.934.95C627.533,1388.2,628.516,1388.561,629.532,1388.856Z" transform="translate(-612.697 -1383.478)"/><path d="M628.863,1383.919c1.868.328,5.44,1.18,3.605,1.7s-6.522-.262-7.21-1.049.492-.95.492-.95A10.971,10.971,0,0,1,628.863,1383.919Z" transform="translate(-613.667 -1381.655)"/><path class="e" d="M634.679,1385.33c.262-.525-2.523-1.147-4.1-1.442a12.038,12.038,0,0,0-2.982-.328,8.173,8.173,0,0,0,3.212,1.278A15.07,15.07,0,0,0,634.679,1385.33Z" transform="translate(-615.386 -1381.623)"/><path d="M635.711,1381.1c1.278,0,3.277-.033,2.917.426-.328.459-3.015,1.606-5.506,1.344-2.458-.262-2.622-1.147-2.622-1.147C630.631,1381.031,634.433,1381.1,635.711,1381.1Z" transform="translate(-617.336 -1379.979)"/><path class="e" d="M634.826,1381.1c-1.639,0-4.2.1-4.326.59,0,0,.065.361.754.688A7.572,7.572,0,0,0,634.826,1381.1Z" transform="translate(-617.336 -1379.982)"/><path d="M607.135,1378.676c0,.033-.033.066-.066.1-.426.656-1.9.524-1.9.524a.956.956,0,0,1,.328.524v.1h0c0,.2-.131.328-.36.426a2.121,2.121,0,0,1-.688.2h0a3.867,3.867,0,0,1-2.1-.262,1.089,1.089,0,0,1,.393.459v.033a.528.528,0,0,1,.1.295h0c0,.1.033.2,0,.262a.549.549,0,0,1-.328.393,1.519,1.519,0,0,1-.688.131h-.033a5.251,5.251,0,0,1-1.311-.2,6.614,6.614,0,0,1-.655-.2,3.129,3.129,0,0,1,.819,1.246h0a.43.43,0,0,1-.1.393h0a.713.713,0,0,1-.164.131,2.42,2.42,0,0,1-.459.131h0a1.41,1.41,0,0,1-.524,0,5.231,5.231,0,0,1-1.409-.3,1.974,1.974,0,0,1,.655.819h0a.577.577,0,0,1-.033.524l-.033.033a1.29,1.29,0,0,1-.557.3,1.648,1.648,0,0,1-.393.065,3.585,3.585,0,0,1-1.049,0h-.033a1.245,1.245,0,0,1,.2.393h0a.572.572,0,0,1-.164.656c-.033,0-.033.033-.066.033a2.114,2.114,0,0,1-.983-.066c-.033,0-.033,0-.065-.033h0a2.535,2.535,0,0,0-.492-.066h-.328a.472.472,0,0,0-.361.295,1.566,1.566,0,0,1-.262.524.032.032,0,0,1-.033.033,1.719,1.719,0,0,1-.36.328.982.982,0,0,1-.262.131l-.492.1a1.741,1.741,0,0,0-.655.164c-.557.361-3.048.721-1.245.065a2.666,2.666,0,0,0,1.016-.688,1.166,1.166,0,0,0,.328.065.752.752,0,0,0,.459-.131.772.772,0,0,0,.295-.262.583.583,0,0,0,.131-.328v-.36a1.077,1.077,0,0,0-.229-.524c.59-1.049,1.114-2.294,1.737-3.376a7.008,7.008,0,0,1,1.344-1.672,8.377,8.377,0,0,1,4.26-2.294,13.033,13.033,0,0,1,5.571.656C606.643,1378.742,607.266,1378.414,607.135,1378.676Z" transform="translate(-590.333 -1377.689)"/></g><g transform="translate(0 0.066)"><path d="M556.625,1408.651c1.573-.852,2-.2,1.9.262a4.576,4.576,0,0,1-2.294,2.393c-.59.295-1.934.557-2.261.295C553.839,1411.437,554.593,1409.733,556.625,1408.651Z" transform="translate(-537.088 -1398.291)"/><path class="e" d="M553.971,1411.461c-.131-.131.655-1.835,2.655-2.95a2.134,2.134,0,0,1,1.573-.393,7.882,7.882,0,0,1-1.54,1.835A9.022,9.022,0,0,1,553.971,1411.461Z" transform="translate(-537.089 -1398.184)"/><path d="M546.912,1408.609a5.086,5.086,0,0,1,1.7-.918c2.294-.754,2.884-.393,2.95-.033.066.262-.1,1.082-2.327,2.425a4.481,4.481,0,0,1-3.113.393C545.667,1410.248,546.125,1409.133,546.912,1408.609Z" transform="translate(-531.701 -1397.627)"/><path class="e" d="M546,1409.834a2.529,2.529,0,0,1,.918-1.245,5.085,5.085,0,0,1,1.7-.918,4.863,4.863,0,0,1,2.589-.393A12.339,12.339,0,0,1,546,1409.834Z" transform="translate(-531.739 -1397.606)"/><path d="M542.115,1403.433c-1.18.524-3.507,2.786-2.458,3.31,1.606.754,4.949-1.54,5.506-2.36C546.277,1402.811,543.524,1402.843,542.115,1403.433Z" transform="translate(-527.297 -1394.811)"/><path class="e" d="M539.4,1406.089a5.925,5.925,0,0,1,2.687-2.687,5.3,5.3,0,0,1,2.458-.36A10.716,10.716,0,0,1,539.4,1406.089Z" transform="translate(-527.302 -1394.779)"/><path d="M539.592,1397.285c-.754-.852-2.655-.2-4,.688-1.213.754-2.917,2.851-2.065,3.179.852.361,2.556-.2,3.769-.918C538.608,1399.481,540.182,1397.843,539.592,1397.285Z" transform="translate(-523.201 -1390.662)"/><path class="e" d="M534.2,1399.976a7.169,7.169,0,0,1,2-2.1,6.144,6.144,0,0,1,3.081-1.081A11.645,11.645,0,0,1,534.2,1399.976Z" transform="translate(-523.806 -1390.599)"/><path d="M528.417,1394.128c-2.163.819-3.212,2.556-2.917,2.72.328.164,1.77.393,4.195-.393,2.458-.754,3.114-2,3.048-2.458C532.71,1393.6,530.612,1393.309,528.417,1394.128Z" transform="translate(-517.925 -1388.455)"/><path class="e" d="M525.9,1396.307a5.767,5.767,0,0,1,2.818-2.2,6.112,6.112,0,0,1,4.162-.295,24.945,24.945,0,0,1-3.212,1.376A16.828,16.828,0,0,1,525.9,1396.307Z" transform="translate(-518.227 -1388.438)"/><path d="M522.528,1390.473c-2.294.328-3.8,1.737-3.376,1.934a8.1,8.1,0,0,0,4.588.229,6.117,6.117,0,0,0,3.113-1.541C527.214,1390.309,524.822,1390.146,522.528,1390.473Z" transform="translate(-513.642 -1386.242)"/><path class="e" d="M520,1391.911a6.107,6.107,0,0,1,3.179-1.442,8.954,8.954,0,0,1,3.966.1,15.094,15.094,0,0,1-2.72.721C522.982,1391.485,521.475,1391.78,520,1391.911Z" transform="translate(-514.26 -1386.238)"/><path d="M515.554,1385.775c-1.606.033-3.9.623-3.212,1.114a8.438,8.438,0,0,0,5.113.983c2.327-.262,3.343-.885,3.474-1.278S518.045,1385.677,515.554,1385.775Z" transform="translate(-509.028 -1383.183)"/><path class="e" d="M512.093,1386.637c-.1-.426,1.9-.918,3.343-.95a24.135,24.135,0,0,1,3.113.164,6.533,6.533,0,0,1-1.54.524A17.578,17.578,0,0,1,512.093,1386.637Z" transform="translate(-508.942 -1383.127)"/><path d="M511.962,1379.527c-.655-.459-3.408-.426-5.965-.754s-3.834-1.213-3.441-.557a8.389,8.389,0,0,0,5.08,2.72C510.193,1381.231,513.208,1380.346,511.962,1379.527Z" transform="translate(-502.486 -1377.951)"/><path class="e" d="M517.566,1382.73c-1.278-.262-3.769-1.573-2.392-2.13,2.261.229,4.457.229,5.014.623C521.171,1381.944,519.565,1382.632,517.566,1382.73Z" transform="translate(-510.745 -1379.712)"/><path d="M569.964,1403.593a1.81,1.81,0,0,1-.2-.262c0-.033-.033-.065-.033-.1v-.033a1.226,1.226,0,0,0-.328.2,3.754,3.754,0,0,0-.361.361,4.5,4.5,0,0,0-.983,1.868c-.033.262-.033.426.1.524v.033h0a.269.269,0,0,0,.229.033c.918-.164,1.606-1.475,1.639-1.54a3.837,3.837,0,0,0,.164-.36,1.314,1.314,0,0,0,.1-.492A1.177,1.177,0,0,1,569.964,1403.593Z" transform="translate(-546.559 -1394.905)"/><path class="f" d="M570.028,1403.661a5.075,5.075,0,0,1-.262.623,4.2,4.2,0,0,1-1.54,1.966h0v-.033c-.1-.1-.1-.295-.066-.557a4.482,4.482,0,0,1,.983-1.8,1.874,1.874,0,0,1,.36-.36,1.138,1.138,0,0,1,.295-.2c0,.033.033.066.033.1A1.815,1.815,0,0,0,570.028,1403.661Z" transform="translate(-546.623 -1394.972)"/><path d="M565.892,1401.225a3.112,3.112,0,0,1-.295.688c0,.033-.033.066-.066.1a8.371,8.371,0,0,1-1.344,1.507l-.033.033c-.066.033-.131.1-.2.131a1.8,1.8,0,0,1-1.245.426c-.065,0-.1-.033-.131-.033a.551.551,0,0,1-.295-.623h0a.873.873,0,0,1,.1-.393h0c.033-.065.033-.1.066-.164,0-.033.033-.065.033-.1h0a6.722,6.722,0,0,1,1.18-1.868l.1-.1a4.8,4.8,0,0,1,.688-.524.943.943,0,0,1,1.213-.033.788.788,0,0,1,.2.262,1.164,1.164,0,0,0-.066.328.638.638,0,0,0,.033.262v.033A.071.071,0,0,1,565.892,1401.225Z" transform="translate(-542.685 -1392.799)"/><path class="f" d="M562.585,1403.8a4.952,4.952,0,0,1,1.442-2.884,3.67,3.67,0,0,1,1.082-.721,11.943,11.943,0,0,1-1.114,2.13A7.557,7.557,0,0,1,562.585,1403.8Z" transform="translate(-542.884 -1392.888)"/><path d="M557.467,1399.125c-1.606,1.54-1.508,2.72-1.344,2.818a4.013,4.013,0,0,0,3.015-1.442c1.114-1.278,1.409-2.294,1.213-2.622C560.056,1397.355,559.073,1397.584,557.467,1399.125Z" transform="translate(-538.487 -1391.157)"/><path class="e" d="M556.094,1401.859c-.2-.1-.262-1.278,1.344-2.851a4.591,4.591,0,0,1,2.36-1.507,9.284,9.284,0,0,1-.754.917c-.361.492-.688,1.049-1.082,1.541a8.5,8.5,0,0,1-1.868,1.9Z" transform="translate(-538.457 -1391.073)"/><path d="M550.423,1396.086c-1.409,1.049-2.556,3.441-1.442,3.507a4.576,4.576,0,0,0,3.54-1.7,4.3,4.3,0,0,0,1.213-2.491C553.635,1394.644,551.832,1395.037,550.423,1396.086Z" transform="translate(-533.442 -1389.397)"/><path class="e" d="M548.586,1399.129c-.1-.754.852-2.294,1.9-3.081a5.469,5.469,0,0,1,2.36-1.049A8.983,8.983,0,0,1,548.586,1399.129Z" transform="translate(-533.473 -1389.392)"/><path d="M545.111,1393.027c-1.8,1.278-2.818,3.015-2.294,3.277.623.262,2.818-.164,4.326-1.77s.885-2.229.655-2.327C547.537,1392.077,546.684,1391.913,545.111,1393.027Z" transform="translate(-529.507 -1387.453)"/><path class="e" d="M542.7,1395.77a6.234,6.234,0,0,1,2.425-2.786,3.605,3.605,0,0,1,2.458-.918,2.113,2.113,0,0,0-.262.295c-.36.393-.754.754-1.114,1.114A15.436,15.436,0,0,1,542.7,1395.77Z" transform="translate(-529.521 -1387.409)"/><path d="M540.458,1389.54c1.639-.852,2.982-.819,3.179-.262.229.59-1.147,2.163-3.146,2.982-1.966.786-2.786.1-2.786.1C537.378,1391.9,538.853,1390.425,540.458,1389.54Z" transform="translate(-526.132 -1385.276)"/><path class="e" d="M537.735,1392.369c-.262-.459,1.147-1.934,2.786-2.786a4.173,4.173,0,0,1,2.851-.557A12.95,12.95,0,0,1,537.735,1392.369Z" transform="translate(-526.162 -1385.32)"/><path d="M532.725,1387.084c-1.934.754-3.179,2.032-2.556,2.458.787.492,4.556-.426,6.161-1.606,1.147-.885,1.114-1.573.492-1.77C536.166,1385.937,534.658,1386.33,532.725,1387.084Z" transform="translate(-520.987 -1383.41)"/><path class="e" d="M530.8,1388.756a6.244,6.244,0,0,1,2.458-1.606,11.386,11.386,0,0,1,3.474-.95c-.393.262-.885.459-1.016.557a15.09,15.09,0,0,1-1.934.951A20.169,20.169,0,0,1,530.8,1388.756Z" transform="translate(-521.521 -1383.476)"/><path d="M527.36,1383.819c-1.868.328-5.44,1.18-3.6,1.7s6.522-.262,7.21-1.049-.492-.95-.492-.95A10.973,10.973,0,0,0,527.36,1383.819Z" transform="translate(-516.442 -1381.653)"/><path class="e" d="M523.265,1385.23c-.262-.524,2.523-1.147,4.1-1.442a12.06,12.06,0,0,1,2.982-.328,8.169,8.169,0,0,1-3.212,1.278A15.074,15.074,0,0,1,523.265,1385.23Z" transform="translate(-516.443 -1381.621)"/><path d="M520.029,1381c-1.278,0-3.277-.033-2.917.426.328.459,3.015,1.606,5.506,1.344,2.458-.262,2.622-1.147,2.622-1.147C525.109,1380.931,521.307,1381,520.029,1381Z" transform="translate(-512.29 -1379.977)"/><path class="e" d="M528.8,1381c1.639,0,4.195.1,4.326.59,0,0-.066.361-.754.688A7.573,7.573,0,0,1,528.8,1381Z" transform="translate(-520.176 -1379.981)"/><path d="M547.187,1387.528a3.075,3.075,0,0,1-1.081-.754.874.874,0,0,1-.393.1,1.387,1.387,0,0,1-.361-.066.747.747,0,0,1-.328-.229,1.815,1.815,0,0,1-.2-.262c0-.033-.033-.066-.033-.1v-.033a.813.813,0,0,1-.033-.262.971.971,0,0,1,.066-.328,1.356,1.356,0,0,1,.229-.361c-.557-1.049-1.049-2.229-1.671-3.277a9.646,9.646,0,0,0-1.409-1.737,8.451,8.451,0,0,0-4.195-2.229,13.03,13.03,0,0,0-5.571.655c-.754.2-1.376-.131-1.245.131,0,.033.033.065.066.1h0c.426.655,1.9.524,1.9.524a1.207,1.207,0,0,0-.328.524v.1h0c0,.2.131.328.361.426a2.121,2.121,0,0,0,.688.2h0a3.867,3.867,0,0,0,2.1-.262,1.091,1.091,0,0,0-.393.459v.033a.553.553,0,0,0-.1.328v.262a.615.615,0,0,0,.328.393,1.519,1.519,0,0,0,.688.131h.033a5.5,5.5,0,0,0,1.311-.2,6.661,6.661,0,0,0,.655-.2,2.841,2.841,0,0,0-.786,1.245h0a.43.43,0,0,0,.1.393.327.327,0,0,0,.164.131,1.876,1.876,0,0,0,.459.131,1.41,1.41,0,0,0,.524,0h0a4.867,4.867,0,0,0,1.376-.3,1.974,1.974,0,0,0-.655.819h0a.577.577,0,0,0,.033.524l.033.033a1.288,1.288,0,0,0,.557.3c.1.033.164.033.262.066a4.984,4.984,0,0,0,1.18.033h.033a1.934,1.934,0,0,0-.2.393h0a.571.571,0,0,0,.164.655.114.114,0,0,0,.065.033,2.112,2.112,0,0,0,.983-.066h.066a2.535,2.535,0,0,1,.492-.066h.328a.473.473,0,0,1,.361.3,1.561,1.561,0,0,0,.262.524.032.032,0,0,0,.033.033,1.72,1.72,0,0,0,.36.328.983.983,0,0,0,.262.131,2.626,2.626,0,0,0,.492.1,1.739,1.739,0,0,1,.656.164C546.466,1387.823,548.956,1388.184,547.187,1387.528Z" transform="translate(-521.619 -1377.89)"/></g><path class="g" d="M576.485,1403.1v2.556a3.969,3.969,0,0,1-3.924,4.064h-.033l-3.139.065-.719,1.311-.85,1.507-1.046-1.507-.948-1.278-.033-.033-3.073-.065a3.478,3.478,0,0,1-.817-.1h-.033c-.1-.033-.163-.033-.262-.065a.979.979,0,0,1-.327-.131c-.1-.033-.229-.1-.327-.131a4.19,4.19,0,0,1-.654-.361,4.234,4.234,0,0,1-1.406-1.8,3.554,3.554,0,0,1-.294-1.311v-1.934" transform="translate(-540.168 -1394.772)"/><path class="h" d="M559.6,1404.4" transform="translate(-540.882 -1395.646)"/><path class="h" d="M562.2,1404.4" transform="translate(-542.63 -1395.646)"/><path class="h" d="M613.3,1403.2" transform="translate(-576.983 -1394.839)"/><g transform="translate(18.432 1.314)"><g transform="translate(0 0)"><path class="g" d="M519.3,1349.9v-3.835a3.958,3.958,0,0,1,3.966-3.966h9.963a2.8,2.8,0,0,1,.524.033h.1a2.174,2.174,0,0,1,.655.2c.033,0,.1.033.131.033a2.472,2.472,0,0,1,.721.361c.033,0,.033,0,.033.033h0a3.977,3.977,0,0,1,1.868,3.31v3.113" transform="translate(-519.3 -1342.1)"/></g></g><g transform="translate(18.128 7.902)"><ellipse cx="0.295" cy="0.459" rx="0.295" ry="0.459"/><ellipse class="i" cx="0.262" cy="0.426" rx="0.262" ry="0.426" transform="translate(0.033 0.033)"/></g><g transform="translate(18.694 1.675)"><g transform="translate(0 0)"><path d="M535.9,1344.019c-.1-.065-.164-.131-.262-.2a.032.032,0,0,0-.033-.033,2.969,2.969,0,0,0-.721-.36c-.033,0-.1-.033-.131-.033a1.492,1.492,0,0,0-.655-.164H534a2.485,2.485,0,0,0-.492-.033h-9.6a3.771,3.771,0,0,0-2.229.721A3.832,3.832,0,0,0,520.1,1347v5.407h0a2.268,2.268,0,0,0,.1.656,3.967,3.967,0,0,0,.164.59c0,.033.033.066.033.1a6.511,6.511,0,0,0,.361.656,4.213,4.213,0,0,0,.918.95,3.857,3.857,0,0,0,.623.36c.1.033.2.1.295.131a.982.982,0,0,0,.328.131,2.084,2.084,0,0,1,.229.066h.033a2.98,2.98,0,0,0,.754.1h3.245l.066.1.688.95.983,1.409.787-1.409.524-.95.066-.1H533.5a3.823,3.823,0,0,0,3.179-1.7,4.2,4.2,0,0,0,.36-.655,2.72,2.72,0,0,0,.2-.688,4.439,4.439,0,0,0,.066-.655h0V1347.1A3.275,3.275,0,0,0,535.9,1344.019Zm-10.029,6.456a.873.873,0,0,1-.393.1,1.4,1.4,0,0,1-.36-.065.75.75,0,0,1-.328-.229,1.815,1.815,0,0,1-.2-.262c0-.033-.033-.066-.033-.1v-.033a.816.816,0,0,1-.033-.262.967.967,0,0,1,.066-.328,1.353,1.353,0,0,1,.229-.361.915.915,0,0,1,.655-.262.951.951,0,0,1,.951.95A.9.9,0,0,1,525.868,1350.475Zm2.917.131a.95.95,0,1,1,.95-.95A.951.951,0,0,1,528.785,1350.607Zm3.343-1.868a.993.993,0,0,1,.721.328.961.961,0,0,1,.229.525v.361a.981.981,0,0,1-.131.328,1.134,1.134,0,0,1-.3.262,1.069,1.069,0,0,1-.459.131.971.971,0,0,1-.328-.065.93.93,0,0,1-.59-.885A.832.832,0,0,1,532.128,1348.739Z" transform="translate(-520.1 -1343.2)"/></g></g><g transform="translate(36.055 7.902)"><ellipse cx="0.295" cy="0.459" rx="0.295" ry="0.459"/><ellipse class="i" cx="0.262" cy="0.426" rx="0.262" ry="0.426" transform="translate(0.033 0.033)"/></g><g class="j" transform="translate(19.078 0.724)"><path class="a" d="M574.6,1379.9" transform="translate(-570.044 -1379.9)"/><path class="a" d="M564.6,1383.7l-3.9,3.7c0,.033,1.9-.754,3.9-3.7Z" transform="translate(-560.7 -1382.454)"/><g class="k" transform="translate(0 1.245)"><rect width="80.791" height="59.175" transform="matrix(0.836, 0.548, -0.548, 0.836, -16.801, -40.547)"/></g></g><g class="j" transform="translate(20.979 3.084)"><path class="a" d="M573.1,1387.1" transform="translate(-570.937 -1387.1)"/><path class="a" d="M568.335,1388.9l-1.835,1.737a4.074,4.074,0,0,0,1.835-1.737Z" transform="translate(-566.5 -1388.31)"/><g class="l" transform="translate(0 0.59)"><rect width="37.849" height="27.732" transform="matrix(0.836, 0.548, -0.548, 0.836, -7.855, -18.988)"/></g></g></g></g></g></svg>