<svg xmlns="http://www.w3.org/2000/svg" width="20.617" height="12.027" viewBox="0 0 20.617 12.027">
  <g id="Vibsible" transform="translate(0 -106.662)">
    <g id="Group_8771" data-name="Group 8771" transform="translate(0 106.662)">
      <g id="Group_8770" data-name="Group 8770" transform="translate(0 0)">
        <path id="Path_10204" data-name="Path 10204" d="M20.541,112.431c-.162-.236-4.064-5.769-10.232-5.769C5.016,106.662.3,112.163.1,112.4a.431.431,0,0,0,0,.555c.2.235,4.915,5.736,10.207,5.736s10.009-5.5,10.207-5.736A.43.43,0,0,0,20.541,112.431Zm-10.232,5.4c-4.243,0-8.277-4.046-9.3-5.154,1.023-1.109,5.053-5.154,9.3-5.154,4.964,0,8.468,4.04,9.324,5.131C18.645,113.725,14.587,117.83,10.309,117.83Z" transform="translate(0 -106.662)"/>
      </g>
    </g>
    <g id="Group_8773" data-name="Group 8773" transform="translate(6.872 109.239)">
      <g id="Group_8772" data-name="Group 8772" transform="translate(0 0)">
        <path id="Path_10205" data-name="Path 10205" d="M174.1,170.662a3.436,3.436,0,1,0,3.436,3.436A3.44,3.44,0,0,0,174.1,170.662Zm0,6.013a2.577,2.577,0,1,1,2.577-2.577A2.58,2.58,0,0,1,174.1,176.675Z" transform="translate(-170.662 -170.662)"/>
      </g>
    </g>
  </g>
</svg>
