<svg xmlns="http://www.w3.org/2000/svg" width="20.641" height="15.48" viewBox="0 0 20.641 15.48">
  <g id="Not_Visible" data-name="Not Visible" transform="translate(0 -64.008)">
    <g id="Group_8761" data-name="Group 8761" transform="translate(7.762 69.19)">
      <g id="Group_8760" data-name="Group 8760" transform="translate(0 0)">
        <path id="Path_10199" data-name="Path 10199" d="M197.54,192.668a.43.43,0,0,0-.608.608,2.58,2.58,0,1,1-3.648,3.648.43.43,0,0,0-.608.608,3.44,3.44,0,1,0,4.864-4.864Z" transform="translate(-192.55 -192.542)"/>
      </g>
    </g>
    <g id="Group_8763" data-name="Group 8763" transform="translate(6.88 68.308)">
      <g id="Group_8762" data-name="Group 8762" transform="translate(0 0)">
        <path id="Path_10200" data-name="Path 10200" d="M174.708,170.718a3.406,3.406,0,0,0-4.04,3.381,3.369,3.369,0,0,0,.06.6.431.431,0,0,0,.422.355.381.381,0,0,0,.076-.007.431.431,0,0,0,.348-.5,2.494,2.494,0,0,1-.046-.45,2.549,2.549,0,0,1,3.03-2.535.43.43,0,0,0,.15-.846Z" transform="translate(-170.668 -170.659)"/>
      </g>
    </g>
    <g id="Group_8765" data-name="Group 8765" transform="translate(5.379 66.929)">
      <g id="Group_8764" data-name="Group 8764" transform="translate(0 0)">
        <path id="Path_10201" data-name="Path 10201" d="M148.595,141a20.89,20.89,0,0,0-5.632-4.493.43.43,0,0,0-.395.765,20.209,20.209,0,0,1,5.122,4.006c-1.025,1.11-5.06,5.16-9.312,5.16a9.916,9.916,0,0,1-4.324-1.036.43.43,0,1,0-.373.774,10.754,10.754,0,0,0,4.7,1.122c5.3,0,10.02-5.508,10.219-5.742A.43.43,0,0,0,148.595,141Z" transform="translate(-133.435 -136.461)"/>
      </g>
    </g>
    <g id="Group_8767" data-name="Group 8767" transform="translate(0 65.727)">
      <g id="Group_8766" data-name="Group 8766" transform="translate(0)">
        <path id="Path_10202" data-name="Path 10202" d="M13.142,107.154a8.88,8.88,0,0,0-2.822-.5C5.021,106.659.3,112.167.1,112.4a.43.43,0,0,0-.024.524,15.965,15.965,0,0,0,3.945,3.74.427.427,0,0,0,.6-.121.429.429,0,0,0-.12-.6A15.727,15.727,0,0,1,.985,112.7c.99-1.075,5.051-5.183,9.335-5.183a8.05,8.05,0,0,1,2.547.45.424.424,0,0,0,.544-.27A.429.429,0,0,0,13.142,107.154Z" transform="translate(0 -106.659)"/>
      </g>
    </g>
    <g id="Group_8769" data-name="Group 8769" transform="translate(2.58 64.008)">
      <g id="Group_8768" data-name="Group 8768">
        <path id="Path_10203" data-name="Path 10203" d="M79.35,64.134a.43.43,0,0,0-.608,0L64.122,78.754a.43.43,0,0,0,.608.608L79.35,64.742A.43.43,0,0,0,79.35,64.134Z" transform="translate(-63.996 -64.008)"/>
      </g>
    </g>
  </g>
</svg>
