<svg xmlns="http://www.w3.org/2000/svg" width="19.021" height="17.753" viewBox="0 0 19.021 17.753">
  <g id="Speaker" transform="translate(0 -15.99)">
    <g id="Path_9959" data-name="Path 9959" transform="translate(0 0)" fill="none">
      <path d="M11.053,33.681a.632.632,0,0,1-.671-.076L4.215,28.671H1.268A1.27,1.27,0,0,1,0,27.4V22.33a1.269,1.269,0,0,1,1.268-1.268H4.215l6.166-4.934a.635.635,0,0,1,.672-.075.633.633,0,0,1,.359.571V33.109A.636.636,0,0,1,11.053,33.681Z" stroke="none"/>
      <path d="M 10.41231918334961 32.34772109985352 L 10.41231918334961 17.38449096679688 L 4.839699745178223 21.84327507019043 L 4.565769672393799 22.06245422363281 L 4.214949607849121 22.06245422363281 L 1.268039584159851 22.06245422363281 C 1.120239615440369 22.06245422363281 0.9999995827674866 22.18269538879395 0.9999995827674866 22.33048439025879 L 0.9999995827674866 27.40263557434082 C 0.9999995827674866 27.54792404174805 1.12274956703186 27.6706657409668 1.268039584159851 27.6706657409668 L 4.214949607849121 27.6706657409668 L 4.565719604492188 27.6706657409668 L 4.839629650115967 27.88978576660156 L 10.41231918334961 32.34772109985352 M 10.77694606781006 33.74354553222656 C 10.63610935211182 33.74354553222656 10.4968376159668 33.69668579101563 10.38266944885254 33.60459518432617 L 4.214949607849121 28.6706657409668 L 1.268039584159851 28.6706657409668 C 0.5693495869636536 28.6706657409668 -4.083252065356646e-07 28.10131454467773 -4.083252065356646e-07 27.40263557434082 L -4.083252065356646e-07 22.33048439025879 C -4.083252065356646e-07 21.63053512573242 0.5693495869636536 21.06245422363281 1.268039584159851 21.06245422363281 L 4.214949607849121 21.06245422363281 L 10.38140964508057 16.12852478027344 C 10.49679946899414 16.0372257232666 10.63754940032959 15.99031448364258 10.77829933166504 15.99031448364258 C 10.8721399307251 15.99031448364258 10.96597003936768 16.01186561584473 11.05346965789795 16.05371475219727 C 11.27283954620361 16.15896415710449 11.41231918334961 16.3808650970459 11.41231918334961 16.62432479858398 L 11.41231918334961 33.10878372192383 C 11.41231918334961 33.35224533081055 11.27283954620361 33.57415390014648 11.05346965789795 33.6806755065918 C 10.9652624130249 33.72274780273438 10.87075138092041 33.74354553222656 10.77694606781006 33.74354553222656 Z" stroke="none" fill="#333"/>
    </g>
    <path id="Path_9960" data-name="Path 9960" d="M342.831,131.4a.634.634,0,0,1-.891-.9,5.057,5.057,0,0,0,0-7.162.633.633,0,1,1,.891-.9,6.325,6.325,0,0,1,0,8.965Z" transform="translate(-328.209 -102.051)" fill="#333"/>
    <path id="Path_9961" data-name="Path 9961" d="M387.949,89.848a.634.634,0,0,1-.894-.9,7.566,7.566,0,0,0,0-10.739.634.634,0,0,1,.894-.9,8.837,8.837,0,0,1,0,12.54Z" transform="translate(-371.538 -58.711)" fill="#333"/>
  </g>
</svg>
